<mxfile host="65bd71144e">
    <diagram id="HIP3nbAZw_EuaXWnEj3U" name="Page-1">
        <mxGraphModel dx="2611" dy="645" grid="1" gridSize="10" guides="1" tooltips="1" connect="1" arrows="1" fold="1" page="1" pageScale="1" pageWidth="850" pageHeight="1100" math="0" shadow="0">
            <root>
                <mxCell id="0"/>
                <mxCell id="1" parent="0"/>
                <mxCell id="7" value="http://ics2o.mths.ca" style="swimlane;whiteSpace=wrap;html=1;" parent="1" vertex="1">
                    <mxGeometry x="-780" y="40" width="760" height="480" as="geometry"/>
                </mxCell>
                <mxCell id="9" value="&lt;font style=&quot;font-size: 36px;&quot; color=&quot;#93acb8&quot; face=&quot;Lucida Console&quot;&gt;Select A Number&lt;/font&gt;" style="rounded=0;whiteSpace=wrap;html=1;" parent="7" vertex="1">
                    <mxGeometry y="30" width="760" height="30" as="geometry"/>
                </mxCell>
                <mxCell id="10" value="&lt;font color=&quot;#cce5ff&quot; style=&quot;font-size: 22px;&quot;&gt;Select a Number&lt;/font&gt;" style="text;strokeColor=none;align=center;fillColor=none;html=1;verticalAlign=middle;whiteSpace=wrap;rounded=0;fontFamily=Lucida Console;fontSize=48;fontColor=#93acb8;" parent="7" vertex="1">
                    <mxGeometry x="-100" y="80" width="355" height="30" as="geometry"/>
                </mxCell>
                <mxCell id="11" value="" style="line;strokeWidth=2;html=1;fontFamily=Lucida Console;fontSize=22;fontColor=#CCE5FF;" parent="7" vertex="1">
                    <mxGeometry x="10" y="180" width="80" height="10" as="geometry"/>
                </mxCell>
                <mxCell id="12" value="" style="line;strokeWidth=2;html=1;fontFamily=Lucida Console;fontSize=22;fontColor=#CCE5FF;rotation=90;" parent="7" vertex="1">
                    <mxGeometry x="75" y="75" width="30" height="180" as="geometry"/>
                </mxCell>
                <mxCell id="13" value="&lt;font style=&quot;font-size: 10px;&quot;&gt;Number selected&lt;/font&gt;" style="text;strokeColor=none;align=center;fillColor=none;html=1;verticalAlign=middle;whiteSpace=wrap;rounded=0;fontFamily=Lucida Console;fontSize=22;fontColor=#CCE5FF;" parent="7" vertex="1">
                    <mxGeometry x="-35" y="150" width="170" height="30" as="geometry"/>
                </mxCell>
                <mxCell id="14" value="&lt;b&gt;&lt;font color=&quot;#9999ff&quot; style=&quot;font-size: 18px;&quot;&gt;Guess&lt;/font&gt;&lt;/b&gt;" style="labelPosition=center;verticalLabelPosition=middle;align=center;html=1;shape=mxgraph.basic.shaded_button;dx=10;fillColor=#E6E6E6;strokeColor=none;whiteSpace=wrap;fontFamily=Lucida Console;fontSize=10;fontColor=#CCE5FF;" parent="7" vertex="1">
                    <mxGeometry x="5" y="210" width="100" height="60" as="geometry"/>
                </mxCell>
                <mxCell id="15" value="" style="shape=image;imageAspect=0;aspect=fixed;verticalLabelPosition=bottom;verticalAlign=top;fontFamily=Lucida Console;fontSize=18;fontColor=#9999FF;image=data:image/png,iVBORw0KGgoAAAANSUhEUgAAAZIAAAIICAYAAABEl2hCAAAAAXNSR0IArs4c6QAAIABJREFUeF7sXQdUVFf6/+57b/oMDL0NHaSKBbEX7GKPsSQxvZi66Zu6+zdusptsNs1N4sY0U62xJBbsvSsqiiidoddhmD7zyv2fO0jEDgiIyD2HY+HW7977fvfrCLpLNwW6KdBNgW4KdFPgJiiAbqJtd9NuCnRToJsC3RTopgDcDJCglStXUmfPnr2ZPrq3oJsC7U6BuLg4PHv2bAEAcLsP1mQAjDFatWpV9x3pSKJ3j9UqCly4I3yrGgO0HEhycnIkWq1WzbJsJEIohud5urWDd7frpkBHUICmaR5jfE4QhNwePXrURUZG2ttz3C1btijsdrsHRVE9KIoKw5ii2nO87r67KXDzFODtFEVlSKXSAgDQjxw5kmtJn83iJsjLKjU1VYUxHkBR1HCMsTfGmEYIZQiCUEHT3VjSEqJ31+04CvA8DxRF+QJAb4QQCwAVgiDsRQgdSUlJMSKE2oRLmT9/PtW/f39vABiCEOoDgDQIgRkATvM81HdfkY7b8+6RWkYBjDEWBIhACEUAgAUhVIQQs9PVVZ4xePAgG8CN78gNgWTXrl2MzWaLFQRhDMZYTVHUaYRQNkVReePHjycXpbt0U6DTU4BwCYIghGOMewiCkIAQ0lMUtV0qlWa29PV1+WLXr18vR0iUiBA/jqIoQAgdwBgXGI3GotmzZ1s7PXG6J9hRFGj6vW2TB0xbTZwwCxs3blTTNE0AJbrhnqBSmobtBoOhYPbs2dcVe10XSLZt2+bKcVwKxjheEITzFEXtnjhxYklbTb67n24K3AoKbNq0SSMIQjJFUdGEq2YYJnXs2LH1rZgL2rp1qx/P8zMxxkEIoYNWK7V/xozxVa3oq7tJ16MAFRERIQIAibfaOwhJkB/wwFjMBmAxLrRYLGVKs5mzqFScJjeX3w1APta3HGAIqGzZsiUcACYIgqDBGO82m817rvcouiaQEBBhWfYFACAirV/lcvn5kSNH2rreXnev6E6kwK5du6QWi4UAyVwAMIpEooUtBZMdO3YE22yONxFCpQjhlUajkbzcHHciPbvXfJECISEhaoSQDxKEOAqheIYRRTEME48xuFEUorAAWMCCAWNcDwiqgBeyHaw9FxDKcQhCkcPhqKisrLyl0p5GdQbPoySahgcAqIMA/I8TJ068qn7xqkCyePFikUajmYkQ6ltZWfn3Rx55pBtAum9Kl6TAkiVLpL6+vv8kugyj0bisuUDw+++/q2ha9CQhyrFjRz5ZsGABsQrrLncmBagI9wiloCQiU34ARYtixWJRP4YRhYok4joRI1LSNO0OCAHDMET0CRhj4DgOeI4DQRBsHMeaWZvDZnfY0zmOO4swfxoATlo4rqCsrIyIRy/hVKKiolSsle1PIUonVojPZmZmttsDZvPmzRGCICxACH0zYcKEPVfTK14BJASJNmzYkEDT9CyGYX4bN27cqTvzbHSv+k6hwKZNm/oAwFxBEJYdO3bs5I1AYeXKlbRMpkqmaTxCIpF8N3r0aO2dQqvudV6kwKxZs+iTBw/6IYmkl4hhpjKMZLBYKokWi8UCIxJhiqLEiKIIajSDbKSaYOI4zsA67HqbzVrusNmreZbLFkDYyQGkFxYWEvEr6QzFRkT0xoj6DFGUKyNi1ildXBYdPHiw3USqqampEwUBhvE8+/XUqVMLLwe2K4Bkw4YNbgihpyiKKpZKpb91i7OacQa6q9zWFLgg5poBAMEY468mT55cd70FpaamhmCMHqEo2CeRSHbfrLL+tibenTl5FBER4Qk8P56hxdNkClmSVCr1YURiMU0TY1Z0QyOmG5DNijE28yxXbbVZqyxmYxXr4M6wmF/PMMy5Pn36cFqtdg5rsy8US6SeZpOpViKV/h0o+DYtLY1YJrZ5aVB18A9gjE1ms3HF5fqSKxa8adOmFAAYAQBfdCvW23w/ujvspBTYuHGjL0VRT1IUdXT8+PGp15omMXtPTd06D4BXmUymxbNnz26Nkr6TUqF7Ws2gAIoKDe0BtOh5qUw6TalUEgBhiLVeOxTi/2QTeN5stZhrTEZTtZ21LxdJJH94uLnNtNnsHyuVKsZqtQh2m32rwkX5l0OHDuW2wzyIKI5YdUVTFPMQxtTySZMulVRdAiTkZWaz2d4AgPSUlJS17TGhTtQnmjUrVlRSYqA9pVRYfByOtNvAT8qAVBCAKqlEjNkG4GDBXlMHJbpaOIHF4lKNJpffvbtzWFd0Ilp2iamsX7/+Lpqm+5lMpveuZaGyadMmL4zR+xQFi1NSUo51iYV3L6JZFEgGYCoioocAheerVKrhCoWSRu0DIFebD+ZY1mE0GBxWi3mnSCLhxGLxXS6urpTAC1Bfpy9kpKIn09LStrWX5dfx48dFVVVVjwPQ9pSUcUua6kouAZLNmzf7CYLwT4qiPp4wYcLZZlH39qpEh4WFKfv0cATXm1GoxhuPZERUT0837OfrKXhyAqhkEhC5KAFYFijCoEolmC+vRvU5hVSJxYqyqnSQZtCjM64yVG6040qlt0iXmppLFF3NEYTeXtS6w2a7ZcuWaJ7n/woA86/FjW/YsCERIfoFmkYvTpgwQXeHkeiOXW50QIAHksnuYSTSlxUKZZhUKoUOBJE/6S4IArbbbGC1WFixRCxWKFVEWQ/G+vpasZiZ7+3nt6SmpgarVCpq69atREnfpkYgqamp4zFGY1nWvmDatGnGxok1BRLivT6E5/kHMcYvTpkyxdKVTo2/f3igvyc/1NsDD4mLEgYG+giBoYHYNSwQS3x9MDB0Aw5QCKDxkUH+jigAlgMwmhBUVCG+pAJZS8qRpVqHyvKKqCwKwangILz9neeNuRCirycGGR1MNzo6IFqNldiRlZX158Z28By6xHAHDx6U1dfXf4oQ+m38+PE7LrdOIUp2lUpF5MSeKSkpH7eVV3yXIF4XXkRYWJirRCR6UiqWvqhwUfmJGBEQC6xbWYi1F5kDiSpCgMRUX2+TSCSrGbF4K0aoF8LYQTHUihEjRpy+kfFIS9axZcuWUGLBBQD/l5KSQpTuzvInNcglUSqVj2KMZZMmTfpvSzrvzHUjIiJcKEEYGhbIPja8Px48PEnwCA0UGBclIJkUO0GjuWeCGF8IAoDdAWC2IlxaiYR9RylrdgEqCw5Au+Li+J9T5sqPI5TrtLXG+LgI9IoAqDN5g4O3gV5XiAZONLQlvUL9QoN5hJ+iGDAwYuaT3NyGsbtL6yiwcePGpxBCgslk+u5yb15iFh8YGPgmxvjQpEmTiAihu3RxCiQnJzNV5eUPikTid1xc1RpGJLq1CHIVepMwQAZ9HaZpxigIAomZpcYALM/za20O27tZWVlZbbVNJNKJ1Wr/D4CwfuLEibsaJTF/EmX+/PlM//79H8cY6ydPnry8rQa+hf2ghKjgEBEDzw1MxE/dO4WV9+slgETchsweauBW0jMpWLOFwQYj5Ph64g+l/u7Lg+l7/Uprq5/gWXa4j7tbYHyPMHNMaNA6nmc+U/QbXt4WdElJiZDYDewDfeP4v5aWU5Lj6czjOUX529ui7zu1jw0bNtyDEFIfPXr02wULFlwSuI7IiCsrK98CgN8nTZrUbRbf9Q8Jio+MnEiJxF+q1OpgsVjSKVfMsSzoamtAJBYDmSPNME4/FZvFUm4ymbZzmH+tsLCwoq0mv2HDplcZhjrVlGu/AkgoitKnpKTc1kASGxsrltCWQVGh/MsThgljJ47iZV7uuP20GBSATo/g8AkK9h+nqvR6r9UIhw4J8vOL8ff2EPG8ACVV1aBWKatiw0Le8FH6/BrfBh7QQ/oH9ovvAZ/Om8MNsdpAePV98bKyGvx8UVHRdc1X2+pAdcV+UlNT7xEE4ZpAUlVV9SYAkNfYya64/u41/UkBKrZH7BCKhq+UKpdYqUzmdCTsjIWAxoXgpM45CjxP/m3hWEeqrqbWjjE+mKst+LKt5r5p05ZXKQp3bSBJTg6R6qqFyYMS8OszJ/K9BvXlRQp5B6jCCXfCAhw7TcFXS6XsXaMHiZL73gu6eguczs4HuUwK5/O0fE5R+ULMCvMXrVplupmN9fMLC+oTw733xBx+9rjhnITnAF77QJy+/QD9Qm5h4Z6b6ftObtsNJHfy7l9ce0JEhIajmc8UStUMhVLZBq4h7U9XwpmYTSYbx3OZHMumsw42k+d5OUWj87kFBSvbagZdHkgGDdLI6nXU3Ulx8M6Lj7ChsVECJWbainzN6AcBHEmn4MAxCp6Y4w8K5hnIyhfDN6s2QK3eAFOSB8OWg8fXHDh64rlzWu0NxVsPJ4dI68Rcr7JKUXBlDQg0gmyZiyzfYXIEicT8sy8/5pgzexLnQazMBAywahNTt+Bz0btGC/dVSUlJd9TZZmzZ5VW6gaQVROtiTSIiIiRimn5SJJYsULu5k4jnt8UKHQ67sba6upRjHW9gmj7EMIzVarUyarvdcboNY3d1aSCZNQvo3LPB4+Ki8X/fepqNiIkQ2k+Uda1jhQA27KKhqhrg4bsBqqomwZpUF6jRGyCrsASSk3pBebWu4Pft++47ce7c0cu0NSSpCwJIRABpfLhPuGdwmOOvESF4VnQY1tjsyHHwBH0wuwDOMSJKPe8eh88z93PDRSKQOO3EKIAzZ5HxzY/Ey06fwQuKa4rLbovT38km2Q0knWxDbsF0ekZH9wREfe2idhsglkg6pzzranTBYDEY6rLrdXUnLazjubKysnaxvO3KQEIPSQwe3jMK//PhWeyAAb0FqsONcMnGIoD8IuSUU6rVAqzfHA4MGgvDEnvB4lUbIDokkDty5mzp4fS0DYwI5zk4OGRlsZbGKMrfB0/08RCi7XaEq3Vwys6i0PumcTMnJ/MyH09MLMtwZTVV+8vvdJ1KIfjMu4+nJGJQAL5geYcAqmpB/85n4sPrd4teKynJP3ML7uBtP2Q3kNz2W3hTCyD6VRCE52Uy+d9ULi6uiNj/30ZF4HldVVVlIeuwL8gtKNjQhqZFf1KhywJJ37jwiNge7JePzGRHDU0SmA4VZ112yAhzUFsHsHaLDHjHaJg0fJLTs3Hj3sPg7+0hHDq9rnhgv0Kd1QwRJ8/RxVkFcD48CMJHDxaifTwEES8ALi6neI7DjnHDeJmrCzRNP4nP5SK8fgdDTRrJg683BlclBmLWTorZjvDiH0Xnv10lev5cTv7O9jhEt9GdatVUu4GkVWTrMo0SYxL97GD7UeXqOkYqld4+3MiFHSCm6xaTuaSmpmoDK/DvaZshQm/p5nVJINFoNDJfN/q95x9hn5o1kZdLiXnvrSoIoLoWwa/rxEDhETBz7DTwdvcCvdEIxzKyIO3cMeiTcMwxbqiJMC2i0koEuQUUjgwVhEA/krq4YeK80PBzOSASkDqbQ8HnPzIWNxWuc3UBtdoF5GpXjNxcMbA8wPY9dM6uQ9SLZ7K1W0hXt4oUt+u43UByu+5c28y7V3yvyRRCX6vUrn63awpxEpZeX1tzxmg0/CO/qGgzALQo//qNKNkVgQRFRIRMHTeI/2HBi6za062jncqbkJyAiA7h5euVANwY9PC0qaCQKYHjefhy+e+Qfj4P7p8uhqEDToBUfFF0iYlDJJn2taZOwMUZOBrA4QBudSpduXQd83OwBq06lUPLJQwfHR+JhztYHFZTh8z5xeiPeguzKi8vr91CSt/ooN3Ov7/DgIQKCQkRm81yxmrVybzVkiSplI4WS6gwlVIkZmhEi0WIQohCdo7nOIcgBQpxCCObREyXllWaazkWl9hZtt5oFSpra21lPj4ivrKykkSgbbf8GO15vmKiYv6qUMg/UCpV1K0IgdI2a8PYYjaX1dXpfnZw3L8LCwv1bdNvQy9dDUhQQEBYZFw4/9m7LzlSknoLzUhR35bkvNgX4QSKSynYuNMHqxXjYGryKKRSyJ1OQeQndf9R2HnkJMx/Xg1qNxJY9qJBFcEIwn0wTUWxCIDjQaiuQQgQWGgR2A164HcdYaqXrqM3FVaiLwsLC53hCVauBFom85cc3ypnTmr12PBHjXV3G79A2odqnbPXrgokgzQaWYVI5OKuogO81CJfm11wl0iZSB8vaU+5jImlKPDw8ZKIQwLl4kB/hVitEjW8bRAmgYLIYwYLGFMmM4t1ehY7HAJfV8/yDrvgqNLZMcsKgtnK2RFGRdU6+7myKusZhYQppiSgryy3F5dWG2oVCoWdeF4XFhaS6Au38NV38exhomMsLJCAyKb4fdt2/wUff/NPiVw+RSYnPgO3b+E5zqSrrd1tNda/lFdS0qYRgbsUkHh6eqr8veWPPHUP/8qjc7ggyQU9QUduPTG5rdEh4egpMZzNDqbCApJhZNIAcHNRXTINvcEEn/2yGiaOFGBQv8MAQGL9NeS7KalAcPo8BeHBuDbIXyinKMTU1oPi5BlKuesQXe7goBQA2StqoDY7lz5rMqN1+SX5ed36j/bZ6a4EJMSSsSgrwk9n5MPCAhVJfr7Sfr7esqhAf6lGpWTU3h5S2t1NhNQuYuTuJgaVgnHGliOvl+sX8kBq8jEmf8UAeiMLdXUOqKmz44oqu6DT2x31Bk5XXWsvqKq2lzs4XF5Xbz9fWuHIoHlr3smsW29ZiAvTQwHzU3gMicfOnA1+9b3PeyGxWC0S3UoZ+c2fbQLY9XV1540W08t5eXlEX9pmpSsBCQryDYoZmAhvfvCGY2yoBvt06PsGgcCy4EjLYOp3H3J3VUj7i4f0GkxFhQSB1BmD5cqybsd+MFoz4N67zmGRqJxcRFxQjGp/WctYDqXTh2gEErWLADIJyPQmJFTVQEm1Di03WqkyEpgBC9jOKBldbm5um8bqarPT1UU66gJAgjQajTQy1LWv3cINdXcX90uIcU3oE6/2DgtUuvj6SiilnAGJmAKRqIENblYCvxbsL9H1NcSkE8Bm58HmEKBO74DaWrujssZuyDinrzp+Wn+mps5+3FMt26+3K9IPHTpE0nl3KJeCc9MiWArey83Xjj10IkNdUFxKbdh1AMRSOcgVcrjdLLYu2yLeZDQY9fq6/8vJy/uiLWnblYCEjo4MmT13Cvfkq/PYRKkYlJcQkdyP6+kdWnApLqna8FCrq65F2z78WuFiMkYOnj5qvHJI7ziKeK4TMdbVCnFoysjJh5/Xb3BERVRoGabAdD4fHMfP0NbiMrTCygkrGJZR0bTgxwLIgIEKg4Ep0+lySTTfDr1crSVNV2l3GwMJExgY6B3gJR/pohLf7+EmShg9zNu7f293KjBARrkoGzxz2xo0mrvvDYYkCASMwWjkoKrGJhw4XsPvPVRbUVJmOVGtd/xirsF71Rp1Hcnyl5iYKDJVVXlRDCMysizHMExtYWEhAZs2KVh/2g3r+e9Onjk3ben6rVTPqHDolxALpRXV8MPqDVBQUgVSufyGoeIddjswIhF0RqdFu81WU1tTvYoH/FJbBnPtMkBCIvr6qNl//vNlx6gRA4RIQPCnYItcFCIqEosBQjQCSCVNQhy35ggiwIIArMWGqOpaSjiWLi3duju4Pjo8IfauUUPEwf7eN4zBQ0y09EYTfPjdcpxVWJReWFq+1Whz5PIsPs0Bd7rbC701G9M+bW4nICEf25qaGk9vD2kvFwUzKjxIMTE0WBE+oI+bpFesGqmUDJCU4Y32Gu1Dsdb1Su4EiUFXV8/C2ax6fDhN58jOMxaUVNp+q6nlNtebbNEiihmuVklFnIBlBovtJMvzqzw9PXNvNp0s3rWL4UPU99fU6D5e+MNy9+FJvcHTXQ3BGj/wdFNDTmERfPC/nyAzvwScMbYo6pI7Th6MgsCDzWp1/riq3Zxg0lhIWHdnMqNbHJuL47hqXXWV1mSzTm1LM+AuAyQ9wsKShiZx//rgr45YL3fsf/lR3nOEhtQ9FA4NwvyA3pgO9BWQu6vTqa/ZRcBg1dUjY3k1TRdowVhZ7a00mfxUSlkUlRAZI4qLCAEZQalmFsJWrNy8C8qqdL/06xP30sj7nqxpZtPuah1IgdsESJj4+IhgtZwZEBGqmhQdqRoaF6nSREe6UAG+UhBfEFl1INlueiiWFaCwxIIzztU7dh2syTlwrMb+6MwxGx6eOTymtFwn/3Ht3qp1W47VOnh+Gy0W772ZFzbOOeHFM/iDXQeOPXjoZAYzenASrE7dCUOTesPwAX3ARamAzXsOwYoN26GsWgcWO+vM++EMiIgFILlAnPlAAAFRypOou42FcCh2uw0UCiVQdFMXsJsmUYs7IPnVddXVBWaz8fU8rfaa6aNb2nGXAJL5MJ9aE/3j/OcfZu96eAbXg2Hgiq+5nQX4fRuN12115yOD/GiJpAyFBbIQGsRhtYsF+XsLQDOAna8Gp+wIk4CLSFePcI2OMlXXyo3F5SI6Tyu1K6UhigDvEFmQfxAT4h8g8vFQI7lU2lLaO9mi7YdOwNb9x1aHh0Q+9+yCBW0W1rnlk+lucS0KdHIgQaHeod5SNcyMi3RNGTfCp1e/Xm4+wRq5yEXVwH3cKtFVW5woch0drACbdlTArv06xxOzptQlREd7AAic1cGd/Wn1nqX/XrzBH4GwIr+4OK21Bic472Skg3d8/tPa1LGCIFBKuRy27TsCSQkxMCF5MIQGBYDZbIGSyirIzi+GI6cyYO/RU2DjeKf4mqYZEIlEwIgIzS+ChcPhAJOhHmRyRQMn05KXa1sQ8PI+MAg6XU2moa5+YUGJ9tu2GqJLAEm4f3hggIb733cf2odHBGPlnyFCLqOS3giwdJ0KxNQUGNa3PxxKT4fCMi1U1VaAnbOARMTalUregjHGHCeS6A2UQkRLsJurp8NV7onDAgOZ+Mgw2sfTDVwUckQjChwcBxLxDczDSGJLgk9X4X72HEuH37buXRUa6P38a/9Z1A0kbXWy27CfzgoksRArNgeYhwYGyF6cOMo3edYUjSLAT0bdjtzHjbbr6EkdpJ81wqMzJ4AYBTeoCUl0dIwOPPzqF9v2pWWbLTbb19XV1a2KoI0LToZwvLBw+/4jk9IyztG9Y3vAycxsmDttPAT6+wLdJEgjkSRUVNXAJ98thX1pGSCVKYBmGrgTAioNIjqepL4Fi9kMCpUS5HLFjZbYIb8n3zZ9nS7XbKj/OKewcHFbDdolgCQ4OHjQ2IHC1++/zsZ6uuHrxtTK1VKwdJ0Gxgx4HJLiopycB3mxmS1WqNLVQbW+nshpsafaFbm7qMDNVQU0TTXgAHHhuPCiIH/uOnISCssqYMaY4eCivIqNOYkRaacaPDhIB2IMSHypnvxYRhb+auX67+qx8a/r1u1uUyehtjokd3o/nQ1IiP9HvYyJ8vWS3RMX7XrflHF+mqFJnkgsvr1iQLXkXOVrzbBkRSE899Bg8HfrB4AbDQWwfdHS7Qs+/HojSDH3TXZZWavEwzjnsAuIJH/TlpT/5bPvl0knjR4K2pJyp0jr7pRRzqk25SYIYBQUl8HSP7bAvuOnwc7xThNpUsfhYMFqswGiEMhkchBLmifuJuBDPi9NOZqW0Kg5dZ1AoqvLMxv1H3UDyWUUCw8OvuuxOfxPzz/EKhWy65OTOPrtO0bDutS+8H9PPQOuqosvhcvZzmtZXDUeqi0HjkG1Tg+TkweBq/LKFwe2UYBtTdgQCgMlxwDMRTDJ0pbgf33966Jf/zj6JkBNY351OiAgQC2naVeMxQjMUJ2ryyUvLcLbdJcOpkAnAhIqPjw8wNtLMj062uWB5MGevQb0cRf7+xCRSQcTpYOHs9sFWLauCIwmCu6dPA68XQOdprgcNuO/vv/r6T+2Zx4WYfyPrOLW+aFgjBEUn+rHssLn2/cf6X8y4zwKDvAFqUQCHmpXiI8OBw839aUmbgjAaLLA+XwtVFbVOh+iZZXVcCozG+wCgNnGNluU1ahHkUpll+hX2prM3UBybYrSQX4hz73/OvvpnKkcao4qy2oDWPBfXzxh4ONoeGJCq21p7Q4WiDUG8RO5muxTMBFupMkNJ0YbMuESriRLWwrvfvXz0t3HT75YUVFRPbRnTzdM01OVKvkIX08PbzvroGp09SU2h31fcbVue//+/atWrVrVHS+rrW/YdfrrJECCYiIi+gRrZH+ZPMZvwviR3j4afzkSi25vHUhLtrG61g5rU0vBbFbA8H49ISTQA8qqC+GLHw/h3AJDUXmV/UOHIHzfWpNgfPy4CLyZUSaL9fVz2Xn98rRlyjp9PTqTlQfPPDgL4qLCGpL8NC1OSyyiseHBwfNOQPnk219BoVRBQXkVVNXq/xR3NW12IcKR83d2m80pBpPKpBf0KFfnLBvFZteiGfkWNehrrv0V7BZtXYN6Xl6xykBv07v/eYt7cdRQvlkhCckm7jhIw6n0afiZe+5GN9RxtOS0N6mLrahBtNVYiIewXAB0KUdCTIBTS6t0T7kdOFBakZj4xICEmL/dO2mUr8bHExEb+4LSCmH7oROWw6fP5nMsfm3rgQMkB3u3L0kr96WlzW41kPj7+8tlItn4hFjlP+6/O6jH6KHeYqWiI7OztZRi7VefODMeOFZLFO9gswtAUTyMS/YBm43Di37I1+UUmD6z8+wnrc27gVeupGFghA/Hwb1Y4P9aVlHt8+PqDTB7yjiICg++EkiuWCqG3UdOwqqN28HXxwfKa/RQWlUDRjMJgdRwZcmjkzw+bVYb6OvrgWQxVLqoQCqRXtM8mICNzWYDhVIJDHP1vbdarU7LMVLnWkr9BiCpzTQYDF/kFxZ+1VY7ddvrSLy8QnwHJghfvfcKOy0hVmie8Ifk6agB+yff9K5/aOpDXlEhGnQ9MVariU10JES8xTdwJUgiABI5lYR/ltzicli88vc9Zqvw2LG0NEN8XNSKFx+4e2SvHmGXHCoyv/0nM+C71ZsOmgyWZ9ft3p3eDSat3pkWNbyFQEInJEQFKcXowcQE9QsPzwlx6xntCrdJcr4W0billZuK8oiOk+UE2Lq7Ej77OsdSUmF7H9lFX2WXZde29o7g/PRImJ4sAAAgAElEQVQooPGiyuqa5G+WraNmThwNUREhzQAS4sEvOC26Dp86A/UGMxgsVrDYHMBxvDNgK0tCYDjswNAU1NSbgXY6L17JRTT4pghObsVhs4FcqQSJVHpVkCD6FZPB4Pw9sQ67ViFAUldbk200Gt7K12rXtJTu16p/2wNJjx6agAHx1JK3n2HHRpEMiM3UIrA82L/62askxPdhr/FDElU0sZNsj4JJKBOihHMGu7vCciu3uAxWpO48KpW5PbgiNVU5dcTApc/cM62Hh9rlCq944qz11cr15pWbdv7XVFe3iqOoZq726gsTELKcy8/PaY9ld6U+bxGQoPiosMSEaPWrI4d6TRiX7OOq8ZPd1qa87XkmGsyEMezYVwlf/1JQlZ1r+M6O0eKCggJta8Z1Kt/F4nfrDZanFv+6Wjx2+EDoHRfVEOelGYXleDhy8gzkaUtAqZCD3eEAi9UOMhLvSCKB4rJKyNYWQ0mVDqx29k8ug4CHg2Wd9QmnwrGc0/mRgIO4iW9K0ykQR0jMscQwCBssjgsfm6tPkud5S11NdYnZbhubn59f1IylNKvKbQ8kSbEhvsHBwuK3nmGn9unZfCDBCPD6bZKM3Ly7qCfunhQtl0mao15pFlFbUmn/iTOwL+3Mvsi48Efe/OB/zPThA5e9+ODMPhpvz6vKrpas3iQcWbu51LfOWH4z0i09IDiBhLSD2sJnWjLfO7HuLQASJtg/uOfARI8P7puhGTFikJfkThVlteS8ETBhOQy7D1ThL3/Ir8nKNf4ErOjT7JLs0pb0Q+pijCkoSp9rtdk+W/jdMvdhA/vC4MRezQYSO8vCpl0HYN/Rk/Dcg7PBz8fLyV2Q9yoxJSb61ax8LRw/cw5yCkqgpk4PZqvNWaeqtg7sLO/0SSGBImmG+KZcFJETsGn4NwbW7gCFVAQpIwaAp7sHrEjdDUbLxUjil6/b4bDr6mpq9ulNxvtaK/67Gi1veyDRuGjco3pSH//zFe7hAYnN05E4CYEAHz6Jju3cmyJ/cs7sOLVS3j4cyXVOMIlWvXb7XmJyvDYpLvaZp994V+yqVq+cPXXsgHsnjiK+Kk7zZMLOsCwPh9LPQuqGHTClqAICS6uwM2dJKwppdhRh4SeKX7FeWzi3FV3cUU06GEiYQL/A0fEx6v+8+lRk7KB+HnRX9AtpzwNktfGw4vdi9qufCvJ19fYDwNMf5Je0nPPGxad7YkFYs/iX3yLCQ4JgzJCkZgcmI3esurYOTpw5BwP6xIO72vUKCUMj92GzO5z3m3jIE25k1cYdsGH3QWBJKgmRuCG21wWvUoamQe2iBBphqKmtgxB/L7h36ngY2DsecovK4NMffwNtWeU1yWuzWix1urpFvjlZb7ZlaonbH0g0Gpm/J/32h6+zb48Y3AIgAcBZhZC+ZsNw14enPxDq7ebanmf7qn2brXZYsmYTDvD3/lpvNM3/avHSJ1MQ9ZbMTS2RJiVAQmI8qFxVThPDs+dyICczB6aLZdAnWwvIZG71fMkh30ZhxxIkfLhVW/D3Vnd0hzTsKCCJiIiQMMAl94pVv/eXxyITB/R17+pWve12gorLLLDw29yqnQeqD5vMXCmm0FcFBQVnW5IhFJeVyQHV/fDDr2tmEeX4zJTRTp+ySwq5TMS7neUAiL+ZiAFoIiUnIEAC8zW3ECW5xWqDzXsOwo6DaZCtLQFimezkZGjSFwZfTzcICfCB6PAQGNQ3AQJJbD9AUF1XD5//shYOnjx71WCxBLiMBoPDYNA/mZOX90Nz59Scerc9kJDLZ7Nwry/6h2PBlLEtABIEOL8cMtZvSFbdO/HBEA/XS4MFE+IRNpNYTRFWtDWhDUhbciiIVZjoMksLEoolt6gUVm7da+jfO/af7336bW5MnWHRswLtQ2ZyjkZQ4qaCerEIZBQFnvVGiHPw4E8zgIj98k3EvSDHejUSzEsA/nKkOH9Jcw7KnVyng4CEHtA7anKfBPXrc6ZpkoYmeTLdKNL6UycIGPYeqcGff5t7IqfQtNpu58m12hgYGnp09+7dzUozi/EuBiq9Hk3dvOd/2tJyau70FFDKL1VkY6sDBL3JCSbECgKpZECp5K2KCsuT740gOL8V5NtRo9ODtrQc6g0mqDMYnH4zJK8RCSbp4+UBXu5uToV9o6GQg+Nhy/6j8N1vqWA0X8y42khFjuPAqNefNlhMj+Xn5x9vPXWvbHnbAwkAUBq/0Mf+8ZLjfw/M4OhLsgpej1INQHJmQ+pIl3tTHgxxb+KYSJqRFwBJhVtQVgGDesWBVys4FqvdATsOp0Gwvy/ER4Re4jRGXiq7jpyAI6fP5atdVP/d8fPqyc+zaHTPC5BFHEVIblIesDNqKEPCGTuzK1491EpLDgXp+zsKG1eAcPepooJtLWl7J9btACBB4UFBg0cM9vnvE/eHJPSOVTONeUHuRHq3xZoJCJstPHy/vJDbsK3sM22p7bDACf2Bgl1qD48dzY0WjIvS4wu0xb+vTt0Vdtf4ZAgLCrg4PUEAXmcEbLoYyR5JxUB5ugJq9oeooTsCfGeycuFkRhb0iY+C2IhQEIlFDRlVnQDTIMcm36U/Az9e5TFZpdPDkjWbYdvBtCu4EqvFwhn19b/aeMdrbZ12uysACUSHBw8eP0xY9vfn2SAPkqO9OboDBDivBDLWbx7pMnfSA8Huqks5EuLUs3b7PjhwMgMenZECUSGBLT7fxMqKpNQlE5owtD8Q+WZjcbAcfL82VbDa7IdOHzlVMSy/dPxdQCk7IsgFEYotpvi6VBqSTxQUnG7xwu6wBu0NJJHBwTEhQcpv33whZuDgfu4UQ3e4uq7L7ihxYnz7/bNZp8/q/6I3sayA8f2A0A4BYG1zHBdxVYbSWGv8ZNX6rU8EB/hB8qDEhnDw5FbzAgi1BsAWkiW4oSCxCCgvV0CiltnuEKBIO5MJW/YdcUpAHpszDbw93Zr3LWu6exTl9K7/dtVGOJR+zhmupQGoBKivq6t0OGxvAk3/mpmZ6WjLTe8SQBIbG6sM8LD8+q9X7VMS44VmSaFI1umTZ0XaA4fHyOZOmuPtelmsLNJJvdEEhKvwcHUBhmnZwXBuHsawN+00mMxWmDC0HzD0RUei4ooq+OSn3+zYZDnvfep8wFwWe6rbcmev0xcxrl9CCYV7aTzhQEFBVgcNe9sO045AgsLDwzUh/pL3n3kwfO6UcX7OF2d3aVsK7DxQ7Vj4Tc7SqnL+zRqr1ZUS4FXA+JiIZ1efLy0l1+GqheR2MZaXu+5c9+Oo87n5C3MLS3yJYluluBBXj/h5GC0g1JkbRM0IAaWUAuWualXeEWewR0EAo8kMCpmsxd+cWn097Nh/FDJz8qHOYIKK2nrgAWGzzW6u0+sZi8G4WaKUv5qWlkbScrdp6RJAQigyY3zwKxNHcgvun84prpHZ9hLCYQpg515XY0npNObuseNksqs0akSk1jor2hwOWLl5N/h6usOYgX3/NOEj4PTj71vw6XM5htCCMmFChU4d1Cz4a5u9LwOA7ynhxAHEzzyq1Ra0Ta9dt5f2ApKQkBB1aIDiL/dO17z4wMwgd2KddROqr667ATe5MpLS95ulhfmbdpS/sP/o+U0hISE9GAHmAEI1IhDWnNNqyy8f4vjxRNHfX6ueYLPBq37emrPz7ns0KS39fJ/p45Pp0MCL6Y4IVwJmGwjE34NEAJZLndwICQJLgEUha3l6icYowi1ddm2dHs7mFIBapQSW4+Dk2SxiwcWarfbNqbv2qwQKze/du/eB9gix1GWAZNrooNioCLz++YfZsACfG8u2BATCsrUeDhfpw+LxQ5KopmGiW7qBV6tPDkNWYTFs3HsEpo8aAqEBvs5qBJSOnc2Gn//Yin3Lqtjx+WWicAyoI0RajfMsAIwXU3zqfoQfv9olaov1d6U+2glI0KC+0ZPGDPf+5Im5IREBvrLWWnN3JVK3y1p4AQPhSr7+qeC/Z3JNf8vNzWWjgoODWYymIoS8EOaX5RYVnW+06CKR4Jct1PQ8eBJ9NKyfkGw0Uw6bY5TZ7vB0DwvUMNMnjLzSEqvxBUASXQkC7Dx0HFyVSkjqFdu6NQkYMEmURXQjJIFWM0RlTn0K8TG5IEKvrK6F3zbtgDWbdxWVVFR+JJLJFre1SKtxcV0GSOamuLso3JTf3zOZvWvEAOH6EgKiiDPTjs++izSNHfSAe7/YHlfPrc6RnLoAiCIRe5t/Hohwot5kgUXLf4fIEA1MTR70p9VWncEI3/62Eaynz8PE/FKIYIWrpSlp/mCtqHkOMP85zf90CAuvFBUV1bWiizuqSXsASUhIiLRPjOvSl+dFThnQ153pFmm175HK05rg069z9p45a3rgQFom8ehGEe4RKqzkpwMShiKElrp6eBwgSvhN/42Q7D1vfcbHHf39obs5N5EE4Mw5P15blozSMw3Uy/PuBy839dW/GRf0ESs2bHOKpmZMGHVJLpNmrdIpMrOCYLA4RWbEpJhyVzr1L80pOYXFTqutunoD1OkNsG7bnqqq6rqk7QcOtJkn++Xz6DJAMmsW0EoUdH90KF746BzW1VN9ba6EqOPP50p0S9cNd5k3c4YowNvjCpECtiNnnCyn4p7GQEkxAImTdYNCXiOVtXWwbNNOp7zzyVmTnTkNnNwICRZ5KA3++HUdnllUiXqzxCar48sJJAifUPiTEzbLO5WVla13SOn4qd+SEdsDSKJCQxMmjvVb+7cXosNcXZr3gbgli+8CgxLduN7Awre/FhhTd5bN3n0oa3PTZYUHB6dgQDMpBH9wAFv8/Dh5qDda9MhMfvbIQTwiriMsT+O6+mHWVal+Yn09zzw5927wcHO5hjIcw9FTmXDwxGmYM3U8+Hm6t4iKmDgnVukBO7gGM2KifnFVAO2maJbuhWRv/OqXNRAeHAAxEaGQmVNQbBfsSf9a+O21PRVbNMMrK3cZICFL++lTv5hzOfSXvWOFETMm8NQ1LPCwySIzvve5F5sYNc1j2ughV74YSKQVE31J3C4SsRcpCHtykYgEBAiHUVZZ4wQLq90OhaUVkJFT4EyINWPMMHBTkYSNDSW/pByW/7gKIo6dhVF2Dm7F54PMZTdg7nsK/32TUvoJtLH1xk2ex07ZvF2AJCJ06rz7Qr996sFwL4mkIwWbnZLE7T4pIiFau6kUflyp/dQ7yOOtH37Y/afNbnJyMlOcnz8AUdQUjFAmQ4Nt6iju/156nI3x8yTa1IaCQSlU1U3nfl3DizzcPdHUMcNA7aK66twNRjOs3bLbqasYnzwIfD09QEScFZ0dNSjmSaDForIK8Pf2BEmTOFrEuZGv1Df4plwoSCkD2l3p9FW5WiFhUYh4nuhJSsqr4Ne1qeDj5Q5hQRrIzC1I6xPuP272ywt07UXoLgUkZcf95XsPo6fSz1L/NyOFc+0bLzQ4mTZ+/DHJG+Dh2Lo3wLrjgJfytUfvo91dr3IQrgYk9AUguWwfSWKr3cfSoUZf70y7q5BKIaFHGMRHhkDTPO7a8kpY8uNvEHEsA0ZbHUDyW92KQpwRNyPBvIrCb5R6ui9urj39rZhrZxmzPYCEmKzPmBS47JWnegS5qm7Fk6KzULdj5kG4knM5Rnj/i/O5x49Wj7g8AdYsAPpYSEgkjfFMpRxS5r/IBkwexfuL6MveeygAl1ffA2u31CFfLy+YMGIgyKRXV6iTECm7DqdBYXEZRIYFQUxEGHi6uThBw+Zg4VxOARw/nQmPzp5yKSDxAvCNZsXkO0FRTtEWsQi7IoMZQs5QKT+t2QgaPx/Q+Ho7Y3iRsCs+nu6Qpy22ikSiD176x4f/Qgg1yxGzNTvSpYCEiBMrT/uELPtN9FFpJdz19FwOVesQnDxLg9VGwcDeETjQc4Dw7W+laNLw4VSfmMir6yeI7MvWJJcIyV0jwYCkV4Y6IMotYoVlY4m9NgKpiAFiAdbUCIvkI/hu6ToI2n0UJth5uEESx9bsY7PbkJO0hhLq1iH8mj00+Ifmevk2e4AuWLE9gIRYbCX1dF326lNRY/v2dKO7vdjb/+DYHQLM/0+mbf+B6hmHz2QT8dblzzk6KCD0vonJ/IfvvuJQerphBZCAeI0MyYUnKYYeUFAyEX5LrYS+8TEweuiAawZzJICRU6CFExnnoaqmDkwWqzOyLwm6SMyIhyQmwOB+vS7xMXMyLXYWBLMNgBcASURAKaTOECyXFIRAbzDCD6vWOyNoEF8Uopfx8XQDnd5IdCR8sMZ3V1xc+ItDpz5MwsO0W+lSQNJIpQMb/YKX/CRaqKtnJmt8fOhePZLARaGBYD93OHLmPKgUMpg7afT1w54QMHEgAJJLhIi1Lssj0pwdIfqSrMISWPHbRvA+eAJm23kQdbhq/dKZErhbg4Ti5RS8uFeb/3tLYg81Z81dsU57AAl5dQzq1WP66GSfL556MMzf17vlZqJdkdbtuSYC1qs3luIly7VfWLHHy5c/ouLjQ3181cLy9191DO/XS6CawAzRIxIHPhKQz6k4xRAHZ3NGwY+rc+HuiWOgX8+YayrVSRQLkodErzc4FeDELUAsEoG3hxu4uqiu/UVwwlyDGOxqRVdvhNWpO0i/eN7cGVae58VpZ7JQrlYLKoXSGhsZdjAsNPRdt7gBhxBC7ZpVtUsCCZ4/n3q56NwLNKLemzluuNzHwxPEIjFs3n/UyVLePWYYeLlf2+rikk1rZUgS4hB0KO00nEjdDVFZhTDc0cCJ3CKJ1p9LIrdhCSXkrUL8X05qtVu688Df+NPVTkACYWFhrn4ekufvna554aHZwR4yacudXm88++4aTSlQWmGFp14/uedMtn1uSZPw8iRmn7+afXzGRP6fz97Pul4WGo9cW6eQ6WJfNHBCAhw+lQA79tdDbI9I6N8rFgJ8vK6Z6vZPKcUFBboTkFrzQcAYyqpqYP2OfSSPCU4ZOSg/wNf3KxAEH0HA3g67wwYUlSZVylLBP74UIdT8qJGtPC5dE0jyjrs+87d/rxszqG+yWMSAtrTC6elJwGPi8AHg5+XhDHPQWkfD69GaWGqdzy+CnXuPgH3/cRhUVQc9BAzi1hyYVm7q9ZqRYA6LkZC+huKfPqPVHu4E2NYOq2zbLtsLSAhXEhISEhwXrpr/yJzQByeN9aVETLdne9vu3qW9EfHWW+9nnNu7v/qxk+dzDzX+tmePkOg+cfzCN55mx8REXFSwX38uIuD4cMgvSYADx0RQb2KcMbIGJSZcEdyxrdZEFPTE6XDnwWPg7eEujBrcL8fb0+0jusLxK3h5CSC1K6AeHBAXZ0ao41yTuiSQ7FmyMPKjn1evm//0Q7EZuYWwed9RSBnWH8YPTQJPtaszU9maHfugb0wPiArV/BndtzXA0uiFSqwzKmv1cOBUBpxLOwNROUUwtEoPKqHj/USud2iJqcpHFH9yOUbzyovz07qB5MZXvB2BhAxOxUeFxgdplN++8mRkv2EDPFG3T8mN96S1NTgOw8Lvcsr+2Fz29IHjWX+QfohPj6cKHnziHvatB2ZwQTJJS+TPBPhdwWRNgszcONh5sAx4AQEJ8BgZHOjUWbTWU71xjaQ9+b7kF5XC9gNHQVtSjocP6GMZkthrj4tKtZi2iHei+HhTa2nSFu26JJDk7F3p9e/Pl/0+Y8zQQa5KBXyxdC3MnTwGEqLCwNfDDXYfT4OfNywDlVwEvaP6QVJ8Ivh5eTpDCzSEe78+y9nIopLAiySzGdGDkKRT53ILoYcAML6qDiJr9EDxwi0XZV1+SMhp+5Ti9y7F3KNVxcVtHnOnLQ5lZ+ujnYHEudxQTWj/4YM8lr3xl6iwiBDltcTinY00t918iEJ62boS/f+W5Lx0+FSOMydHiG9ISFAQfu+D1x2JA/sIkQigFTJGCgAFgtmaDBt3kpztxRATGQFD+/WCQH8fcFUpnQmqGniEG4sniFqE6Pl5joeK6lrYuvcQHEk/hS1WvVkiUhe9/cJTn3kGB69RBUTrOpLzuNaGd0kgwRijt59+9EWZWPyPh6ePV+aVlMPxjCyICPKHfvFueGnqStQzJhPCAknETQbKqhTAs9GgkEZAeGAA+Hm5O5VglycVaBQ62O12KKuqhRxtiU1bVskZDUaxN8uJBlkdEFFYhpSGC0HcOtk1I/MvdgKJsGMLjR8rb2U+6062rHafTkcACeFMhiRGzZs0xu/th+YEB/h4SbtlXO2ws+QDvWlHhfHNf2X8LSar75erYBUfHBzsJ2eox6eP48Y/dDfXLzRIEItJ3obWFMSAwAdBYVkQHDstQHE5AwipwddLA76eXqCUy8HT3RVkChlIxWKQikVOjoWk3iVicZLr3c5xYDWZQW8wObmQrPx88PcRQ/JAM+fldrL4m+W6mt9S6a0VOvZ/JSUlJHTejZGpNWtpQZsuCSRk/fNmzPDTmQ0fDE3sObl/z2iZi0LOVutqUXbRISmLjzBzp1uR2qXBas9gRnAyQwK/b4kXYsPisc3BIscFr9KG+DUCMpit2Ggy20UixgyAygWMc0EQGFxvjIioNQT3rdHLQo0WJG4B8Tu6KrkZ+YCF/1HC+n0C+2x2SUmLc1l39Jw7w3gdBCTQo0cPzx5BkldmTtY8PWuKxlUi7nZUbOv9J7rRg8drra++m/GxoQj9O7M6kzDpVA+Nxk/uyoxJjOcfnTBC6JU8gKc83TAJ89sc7qQxjjxxCLqwaSIQsBvojQoorXQBbYkYTGYpGM3Eh0QODOUKMqmr0wyYOCoazVYnF0q+N3a7GURMPVC0BdxUGOKiVRAeaACJ+AwA1GC9AVl+/I3Rr91CL62uob/IzM8n78NbCiZdFkgIOzGwd+9gikYpHq4uw1RymbvBVKMZn1wTc9d4G+Xviy+wmQ1bn1uA4PMfNOenjrrnZx8PP6ipqZMRU4eC0jKPtIycZKPZ3EMiEdnMVpuu3mBZbTIYM92s1oenOHCvoSwv82zIrNypC5lfOsL8V0hYfZrCL2QWFlZ06gl3ksl1FJCQMxsdHRYZ4id///nHIqePHe5FdWBQ6E5C7fadBvlYn8rQO/7x8fklZ8+Y/55bkVvdOCLRlTAYx/j5wCO9Y4RBj8/mUHyMEEMBXIgbf625IWIMyRPvDwCncaakoeYFk08kApajgOUkwPIKsFvFYDC7gdmSBAazL1BI4tSlSCUUyGWVIBMfBZmiFBjaDhKxDaQikhGVDHHRn1BnQMLyP+g6Aia1lY53T+ZW/LmO9qXg1XvvykDSuGIqJCREbDAYxEkJqieenev498SRwqWplxFAeiYFb3/ErAkMtDz/vx9ryojc8e6UMX0sFvsHYwb1GX7XqGFSD7ULCYGCP1+61lp+9DS8JCB5AkbNerLcis29fEzytDqOsH0RJXyxE+H39IWF9bf6JdMZ6HKjOXQgkDinEh8W1s/LV/rDZ/9IiI2Pcu0405sbEaIL/J4ASVaekfvPopzV2w6Uv1JyFa6c5DeyGqz3+njjlP97jo0dM5TrISK8xkXnxGtRgrw9m8bSuEq9C4yDM963KwAKbvhx/ncxAC4AwORaNlrsXlvCVmdA8P0qxrF+B7242mB5KzOz+pYp3O8EIHFu5vz5QBWdC7ovIUr4/P4ZnNrT9SInSELarNjACF8vo//xxv3iD5bs68NZa2t7eakVn0wcPnDo+MH9aPmFvAKE9Tx6NhvWffINPFGuA09At5anbMHlJmYE2xDm/kUJe/QIr6Z4KBNE1DmRSFSelZVFDuEtZY9bsJQOrdrRQEIW1zcuYsqwwV7/ffbh8JDQQEW38r2NdpwASXGZVfhiSd7WLdurnj2Tk5N/ta6JXwlv5wf4e/OPThsnDJsylreEB+IAEY1J/rnW6U/aaA1Nu6nSIfh5NWPfdoD+VsTw72/YeWvE1XcMkJDwKT8s9B9z/jy9aMpoLmJIEgmo1aAjOXWOgoXfM9l5ZeixA0eK9g8dOtRNLaZ/nDVuxKTpo4ZQTZPTEFFDWXUtfLHwe5iRdg56kPhd7XBA2qNLwpHsQNj2PiWsqqVgOxIETwTgBpiqAoFKzSvJI1Zc3WByGfFvBZAAADM0KebZaRP83rr/7iBvL48L0pL2OBgt7LPR0Zo4011uMt9outwqR7sWzqO11atr7cK3ywp2rt1Q8vSJs3m51+mHCvULDZQqhMmRIXjQ/dN4zaTRXKxcBp7N4E5aO70Wt6upQ7BqE20+eppaTNHw8ffLi4kCvkPLHQUk776sGV5TR301exIbTYAE8wDn85Dw+c+i8mMZzDMWu2wzSfzi5+cXPKpf77R/v/ykB7HganpZCJCcKyyGH99fBI9oK4Gkq7pdvrwESHZR2PAhEt7KkYp/UvM8EgTBB3HCKAzgg2m0uKCgoN1CTXfoyW7DwW4RkBD/Bt+4MNXr988MfnzGJH8lfQvT8DYChMMhgMXKgcnCgbbEAiyLQSKmBKtdABGDKAJ4vl5SUCloQLdwvtfbfieQ/Fqwc+2mGwKJsxsfHx+FTCTr5+WO50wby8c8PZcLc3fDGsBNPd3b8MC1oqtaPYJlf9C6PUfob3kH/+HaHddOIdyK7m/Y5I4BknnzQFRbGvzaxBH8/HumsCK5pCH52PYDNP7kW/GqrCJ4qLCw0Bla2t/bf/CUkYO2ffH2c3JiVdH0dVVvtsDPqzeBZM1WmGO/NflEbrir16hARFurETa9g4S3lMqL2dJIqA7E88/RAJnZWu3a1vbfVdvdKiAh9IyPjIwJDZF9/vbz0aOS+rihjn7pEwsSMmZpuRXOZhkgr8jMZ+Uaa86cMxTWGx0l7mpxDctjGwgYOVjswXOC78Akz9gxw7x8Rw/1QUSB3NkKAZJvlhbs+H1T6dNpGbnN9qWKCgz0ZzH9l8ReeMI7Lzj8YiMFr84EJqWVCL5ezhiPp1MfJ3kp31+wKpNo6Duk3DFA8uazAR6sHa2fPYUflNTzojCqrArBv75ktCs3MwOrqxusmDw9Pf36REcueZUe//UAACAASURBVO6+u0YlxUWJiL03CcBYRULG7zsCxi374O5aI5B0NbcLN0LWRYBkDYWN7yDuDU9Pz2+ahJCnwoODpwFQEXnagv90yMm7jQa5lUBCbAqjI0LH9IlXf/7m89GR0REqRExY27twPAaTicV5Wgt3PF1Xd+JMffbh47V7bHYhm0FCiYOi8goKCkjGvUuuQFRUlIoS2AEBPrIH5z0QeveUsX5ykahzgUlVjV34+uf8zctWa5/L0moLWkLLBB8fhUkmm903hp81714+aXBf3k0h7xz2NmQjCosRLPmNMZ7IoD7V2YSFhw6VtFsOkqZ0u2OA5Ll7Av29/PDhe6dygZEhRLjbQAYS/X3+QpHpu9/ocVVV2sbYO1R8VFTfyGD/F3toNCmBCpk7jTGYdHrwLq6A/uW14G3rMLBvyTm/bl0CJL8hXP8OzT9VXFi4oslHgIoIDZ2MeRydV1T4YZsN2EU6usVAAkTxK6LwnClj/d576oHQwKCAG1ijtpLuBJ+I6Kqs0orTzxocJ87UlZ3PN+4t0lp2Vdbbj3qyntq0sjRLc7rvFRsRFxWu/GrBq3FDe0SoABP2vxMUp1NumZX/73e569euL3+xoLxA29JpxcbGih1mc2JMBJ531zh+6vTxvJubC25/dG/GRAmVtaUIfl7D6HYdpj+zm5nFB0/nVTWj6U1VuWOA5N+vBfrbOdg/aRQX2jf2IkdiMAE7/zNxzbLV8iGV9VlNXydUQlRUsBtF/e0uFs8dQDESlYgBD7sDxHa2gd+/zQpZ9feUULcI8Y9pm4iwEhMTRfrq2keBRta8goKfbrNltft0bzWQkAVqNBpZZLDLi3enBLx+712Brm2dnpfoQGp0dth9sNqx+2B1VmGx5feKGtPWugrIdq9y16VBGslA0OxC5isXi/7zzUeJzw4b6AkC3znuCwHL05n19v/76NyPGTmG/7sJnSAdFhAW7unFvfXSo/yDsyZyzpS87VCw3Q4EvCUSiVOocMNCPk3l1Qj/tJYp23OA/sTGWL7evbt9TYPvGCDZ9L2v196jot3D+/Ox40fwDZkTAeBMFjLO/1R8aN8J2cyamizjZbuE+gQGTpkEzOfPYTrods5jR5ZLvgSLKKHuh8uAJDAw0F9MMS8xPPycVVJw+oYn9Q6r0BmAhJCcKN9jQlX/mvdA6H2TRvtK2iq4IzEmOZ9rgq9/KbDvPVzzA8bCF+4+gedbm/QsGYApCQ0dFRWuXPjR3xOiOxVHggB27q8xv/bPM+/VGR2fNepFW3OkCWdiNVhfeO9Vx/v3TuPo9nD4IXnzVqUy2TYbBN0zhXMVi5qv4C+pQPDVUka7Zbfo75PuLvh1wYL2MzC9I4CEbLgIrPPuGse9++gsVq0hXu0IoLoOuK+XiotWpdLvpWcWkpf4FclfSByeaKA+/yuP7uoLFNU53lUtP/YESJy5SGih+mfgH8rUalMbX7pSmp4LAC60WfpN1pVg2vLBuliLzgIkRF8SFhbWd2CC+v1Xno4cmRCjvqnMiuTlWltnx7sPVFtXbSo5feasYZED4/WFhYX6Vm4hkxAVHOjiKp+dEOP60P0zgqKS+qop1HncLpxZBL9frq1bsiL/lSMnnEEbW32l/fxCg/tGC4v+85ZjdEykIGmPzzQGzK3aKDIs+oWWffQWC4nxghQ1k6BEApGZTcGXPzNFuw5Rbxlt7NqysrJmiSZbuv93BJAMSQwaGh6Cf/rbc2xIRBBuiDqBAI6mU6YPFol+P3pW/EZpaW7JNYjH9A4OmzMJw6JnBcqF5LFr9clr6e60YX2yZHKCvqOEkjWIfzBdq91F4giFBwcPRxiNExhqaX5+fsZturw2pNSVXXUiIIHk5GSmvqpkYv9E909emhcZTiIFt6YQXciZ8/V46+6q/MNpunVZefVL+/Tvn75q1aoWZ9IjoUUQQsEBXtIBGj/Z7OEDPQePHurtFhokh7bimlqzxqu1cbACvPfZ+cLj6XXztu7J2HYT/VIhgSFj75/OfT7/BTacoZrPKbRoTAog7TSln/e22Dx6EM+//jTr7uEKzdt0BGC3A2zZS8O7X4jP1BrR4wUFBUdbNH4zK98RQJIQHfzWG0+z786exFN/yjFJWJRziPvkG/HyrYfEL1c0iblzOe00Gk1ADMV8/1dMj0vsHDq1Zm7vxWoESAwA8DElFO9F/ENmkeggcjiGCwjNwhivdPPy2tPEiqvF/XflBp0JSC6IuKRKCXXf1HH+/3n6oTB3Px8S3ql5hTyiyqtssGNvlXXLnsqj2XnGz00Oy+7z50uJdU9L30hUqEYT7+0pGxcZ7jJp2ADP+L491W6RoUpaoWht+NzmraO1teoNLDz0wrHDJSXsvafOny9sbT8+PgmKyGDDX9940vHUpFG8T4sp19yBEUCtnrK/8I6oPrsQZfzjJTZ03DA+iLpRZCYKoFaH4NAJCk6cpR3HM9BXBbn0vzLayU+sywMJEWsJNssHK760v5QQ0+DN7iwE6dMpYfFy0bITadIX07Kza66ztygsOOy+RwT01SMYKYnNTEtvXHPPTXvVI0BCIvh8RPHFR2h4TCcgF4SFKYDon/K0ebu7U+5em/KdDUjITP39/eUhvqq3Hpwd/MJ9dwUq5fIb62GJLiQz2wi/ri6q3nWw8juHlfoiPTu7vKV7TzgQMSX0oyhmTK8411ljhvpEjBrqJQr0kyMSQqoDrJNbfU2OntTB2//OWGE4IH+gpQYETQcN12gihvSnPv7gNUeKnzduV/UpZgA++Jyp/maFaO2wfkLswvn2GLUKPK5JBARw4iwFqbtowWSG4kF9hRUijfyfEyfmkrdku5QuDyREfNMjLOTv773MvjEjhZPQF5TsLAZY8TttWLmR+VjKWz9ZdQOrhj6+EV6hYv7XlzA1JhZ35qty9XNClk0E3x/QfOU+ENY4AEwIYFmuVnuyXU5WF+q0MwIJIW98fHhgVJDLf56YGzI9eYiXhGk83JfRnugF9AYWiC7kt40lR7PyTIsqao0bKysrzc3cJjrCPULh6i/1kogcgz29pFMjQpT9B/R1C0zq7Y40fjKgaZK6upm93aJq5Nb+tErL/7y6+O2d+89+dDWdaDOnRvXvFTztvmncwifmcAFyWTuJtRonQ5EcKrT5g8Wi7w1GZHnzaXbmrMlcGMHsJvPFdgdgbSkFW/fThm370Hmapn55aAa/t9c4Jic0tMHZur3KnQAkEB4cPGpoP+F/77zARvp6Y8RyAMdOU/x3K0S7zuag19IztaeawWSgwcHBT8/G9HuzBMqN6EpaW4gQmii+SfSk9rEYvHJmVgA4hTB8SQmGPISXswh9WVBQQHQit0uosNaS+6bbdVYgIY+khNgeg/sluH7w3MPhAxPi/p+964CPqsj/v5n3tu+m97abZEMgtNAFRUHQkCBiA88GYhcV9bw7/lbkLKd3ds7DguipqAeeHAoBFASR3kFaIGV303vZzdb3Zv6fWUABE7Ipu0ngzef8eGbnTfn+5r3vzG9+Jdjrq3j6g87+v61ZgF+ONYnrNlWat+yo/V9+qf3fRUVFR08Z8Z0Xm7CwsKAQtTo6JkY7KCJUNiYtRXtpcpI2PXNAiI6pr0KCZMDzPZ9ATk/S4yEw7+9HnN+sKb0u32T63od3vkV8mGnz0HTuH3Pu8twzfpSo8EP+CGZgyT4NJ3OhIIBCCyLPviH7dvMufvGY4eLcF55wj0xNpDImY1EET2kFcmzYzjV/t54T8s3csoZm8s+RIzWlywLk3X5REEnW6IQwF+FXDR8kXtInmUBNHaInzOjg7v2yP4ky5SYWX8uXr01mSkraMIEueoDgy1LAGwe63YUlLNiJKClA1JNDkDzKj4oAtl1hm8QioLAdUShBAL8AKSgCcv8Ri4Vdtksk4oMEezCRePONh2m5qaOGRrxwx01JaYMyQkCt5kDwECiyNMNP22uaf9pes/l4ftMHnkbPj/vbTh2AMgyGaLsAmSlJqnHGFN2l/dODkgf3C440JKllEWEKpJCzPOQ+ANfDqhw43ADz3zy2d+ueuik1NR0PbDi4b0qfy0e5v/rzfcKQxNguP4axButP7TM1pyFstCH65keyI99v4h6qa4LBM28Unnlkhoe4BAQ/beM8363DpUfz8fe1jUguUlQTFhH2diDvPC94Ijlp+mu/bVh/8vqUCUIoc0hf8xMWIsPgGXNDyWvLlv3e5Le19c9e2niAx2eI+OnrKdb4kjrtzLYYW+Vi6v4vkI3NQJVPUW7scD+pydhqbAQK61n+BUShD0UwnCL4BIs7V4B4l8ViOdzD3vMeO5yeTCQMtJP3gM6rk5PUzw0ZHJqZFKcSq2pc/PFCa1FevvXTJqd7SV6emYUzOa9FlsFgCAnV8jeGhSimjh4WPubySyKCMvpo+chwJWLWV72RPE4vKnYyW/yVyfmfFcX37dh3fElnNlGjhyc/fNeNnlduv86jUfojKDMCciq68K907XIDfLVS1rBoKfeQqUzxU2Sw67UJY0S+vBpF/HKMO2izk2VYLt8lCEIyR+gfiYBfLyorygvUS3VBEgmlGfL6w/Uxy9fi0M+WcuMz0mDOo7M8yX2MxHtg/PxrTvxsuexvwdHm59tDJOyQmZ6YOOwKJHt/LsFDQtqRl4CpllYj4vgci8uLOe4VvSg+cBfhHsyhXRcilX0lmCK0HFHYBxSOIQqJgGA0wWAEAKYQfwOTXSsA32mx5B8J1CLr7f30dCI5jW9KSkqS4BT6aBVcaKOD2FUy2TFQQEl+fv7pVLDnioJLSUnRBqt4Q3gIf5VWJ795eGZonwmXRgb166ODIK3MqyY7N1R8b5Mnm8O+Q/V0wUeF62tq3bNWbzzYmql/m1NLCk4KNWbA+3+b65k2YhAJmIcMm8PPuzj3vz7jFlUWOedabKpLBBHfKIpkvULN/1BYWMhsaVjBRn3yLAqQ4vC4XvKX38i5QF1wREIp4N2rY7Iqyrknjh5HBoWCxmSPJ+o0AzmZgQoBrPuZg2Wruc23XM1NGT+rfc5XEenpun5O9/P3UvzINQTJfDnYMhJZg4nz30j8uhKhl+IMhnxkMr8+g6A5UwnusAUY264w3RTLSFUNFMwIoBRRYO75cRRBJgDEUgQsj/zpy/Y3JSJp82NxboXeQiSnxn06Qx9bmq0tT5QclRylDuNGpunVV6YatBMG9g02Ds8MVekT1KBSnlRd9fTLc18F2Wj1wBffWGp/2lHzXI015IOOeuyz1yg2MnnsLVM8nz/5kJAYEfZbzD5fx9KZeidMiL79iWzr7r38jTsOFdWmpKRoCgsL2f7wtxy8pyIgYAovYQSf5ZtMmzpz+vJ1vBcckWz/PCzo36s1L2s1MHvcKBGNzCQQHnLSk/10OXQcw8IlfM1fH3PfHDGs8kdfwfqV8Q2GsVdS9O8/iVjfVoZERiIbEHV/g8WV+ZT8+ReLpWjatGnYsXP3vJsIfvpaitrlLX96Gmz1lCEKLDgY2165EQWW9DEZECRR8GZuPNMmkT3HFK+vY7JrpXQiaZfIexmRnHduRqMxiBeE0UlJ2mmjhoddOWZYWHxfo04WHalE8h4WpbddQjpP5T0H68kn/zH9jBF96N1/7+qwSpeZXMuxfM78xz1/vu16Iay9qu3OzqfRimDBv/mi/+Zyt+8/Zt56nvaQMTn5KkrgChHRBSbTyajm/iwXHJHkvmNUrN7jesblgaevv1pEY0eIoFadsm0/tT/LK8Dw0kKZuOB51zMhgypfaS/ALFS20uH6x1yK77uath7Um3W3Dajwb05cV0DJE/ssFmYtQ6dNm8Z5du596noC86ZQxLV1qmG/M7UV+3chosBMzE4g6rX6imQ6corAQBFEnCdhNCOSagB4Dou79gB3Z76k2vJZ7BcCkbBU018vSeobHq55aEBf3ZSpWXGxo4dH8KdPHz6D0csqiiKFBR/lW/MKbC/delXG2+NnfdJhM9ikqKSU4HA0/5t/uRKNBnpFh1UJHcTQIwBdtpKvf+MTbv6eg5Z3ztdMRESELkSrfRhRfDwoIvRbf1+8X3BEwsA9usFgOJzneWH7bnxleCgNHzmYyI0GisJCKMgVFE4UYXj5XRl5/wXPPN2g8hc7IlejwXDFBBF/+gRFSeEtaErZR/8wUPIRR3b8AuSJfWbzjjOOmPiSJMPDsyl+/RqK+daIxBsSGgP8jAF2cBiqKQVeFIGlM2QX54kUge6Uecf59BhsfoxIWCzpJ7G46xeJSNol8t5MJMxAJDoEJwYHK2+KjlDdf81VcQlXjA7nIsIU3jXR1iamXUD1sMpMC7FhSzUs/LRwQ1payF2vvLWxw57szBQ3PTn5+tFDxRmLX3dFIQKjumG64ubduOaJlxVrSqrcs9u4/2Bx2cYjkY4Hj+v9grKyYn+O94IkEgYYLUgJzitwXrHtAMoqKUOX8TKUGBlOQiJCKWJpKTftwMfffEq4J2xY+c8dAZjliEj2CAsfFrk7xgDiz7QFZi/nEaDwAaZH9oMwl2i1359jYoyH6/WzZxP+zakUteiSzF7yPBkPC9VyKAkJAiRXeF96WVMjXFtvhSkeEbTtUNGy9moB4CVMdv0oqbbaJfJeSiR8enJyanyc6qq+Rt3Nmf2Dh0+8PFoZH6PqVb4f7RLUGZUZiVTVuuCVd/Kajp2wPRgU3fc/HYkjdrrJzExDSEwQfenJ2Z5bLh8lBndLZkQEUFwOnrmvKrZv3InuLy83Mw1HqyUhISFMwcnuRhQq8i1FX7RltddRrNlzFyyReMlkHmC4NS7sUAn0KS5HI2ur0ICqWggzl2IbRfDtOzPwSjS+4x6flySkZl+F6IczKY4PPSUF9rEvAAqfYFK0AdOnBZ7/pgWrGa5/kuHFuwD/ZRZpOaIwwRgWK2WwMjocYmJigeNP8o3Dbgel2QIP1zVBRjuSBUmX7R1/TXobkWQaDCEeJc7JSAuaOfGy6KGjR4SFJydqEFNjXSzFI1D49vsy+tES08d2gv60efMv7IqwwyVrrH7o4Azy4R/v9gyJjuimgHsIwOkC8tZHfPOb/+ZnVlWZ/9fGoRKnJKYMBUxnYSq+m2+x+M1S84ImktOrhlJ2is+QVW+slu8olyl356ndAPn2+fPPtnZo7yrrGx8fPpCTv3k/wbdmAvIGqGD3EJ9gUvEjEp+1aTSftuTsqNfrkzWAFj1I8ZW3tWC15Q35zvPwthzD1vhYiImOhpMhi8Gb8re5vByuK62AG13Cr6qJ0xZcTAHM/ioDBGd630tE0l7p/la/FxEJMsYb40PCuTlXjgmfcduN+khjihYr5B3yne04YD3gSUupHf7xbt7xn3ZU33HkeNGuzmjx3nnEqNhf4X78shHkyVumeIL84jviK2YY4NsfeHjhHe7Vslrhrz6Y9/KpSYa7AaH+Nqf9yXaExfF1RN56FwWRtAuR9lXmRiUl3zqFotfvojiS2eAtw6ThG0T/VdNsfSWvpubcRFneMODFJtNNagr3P0Hw2GspbvGynWIMn6gV8K33RBIDGJ/cTTKbflt1NVxpKYVZDvevRMJCt27GFDaoFWDhODC4PXCdS4BRBM41/92dS9GsguICFh5FKj4g0BuIhDklhurcQyPDNHMnXBaZ9YepSarwULk3/8bFVqprXfDZ15a6FWtL33Luyntlz8mcbh0uTz4ZE+mpkX12Q5aQNSqTgB9Covg+Ngxw7ASG+W/L9u47QKfkFbftoe+9eNdo3wJKVudbLOwUc5a5sO+dt15TIpLOoYiMicaUYVh4Z7bITSrE1P01oksKMbxwtKjlXNDpiYlxAsYP6BDSPy7iW6ZQ3KIvCttD7lMq4LUQDSiSkrx5Nk8TiaOuDsaZi+HOZpfXmsuMKHyNAbZFhIEuNgZkMjk4HQ4Qq6rgxrpGyBaoN4EBC9r4JiYnNiNx5j7zr/npO4fARfB0DycSNCIjI5pTiNePGBL6QNa4mAGXjQzHWk3b0YAvRNHV1Lrgy/+V1K3ZUL6orpq+uevIkU6bvs5/Iu4qIuKP7pomJCZ1fUiUdovB4QZ4+h/yys17YfqufcXsjret3QJKSUkZjgm5kYrc5wXFBUzF1aXhkSQiabcYz36AXbqHecR7+1L4WzUiG4/z/JMFBa0KCqfq9VcA4EuDKeUepfiZKeex2hIwhtdUMjikT4CgsHCveoudSOzVNTDBUgK3OdwsbhdsRAT2aDSgSzOCSvNreB4vmVCTCe6ta4LR5GQ+ktewWLIZkdOJrTo5+4vj8R5MJFz/PskDDAma+8eOjrwh+8qY6PQULfBnmX5cHDJisyyvdMKX/yu2b9pe9W5xtfvtAweOl/nwkT0vQCxKxh/vts7L7E/m3pQjcmpFW9/sAOCNAT5ZxtvXbOBeyK+MfN0X0152YnXZ7bdQgDCBkE8sFkun7ozOnaVEJF0g936JiQM4zD/qJuiD48WFe1pjeyZMp91+FybIFopp+MMifu18RMKGtodHsCA8BLjERFCp1SAIAjSXlMA1ZRUgEwkcQgDpFGB9VDjwaWm/3qV4p4UQNNXWwkCTBe63uwFR6s1HshmRmacyJHbB7C/8JnoqkWT0SZmQlhz03O03JI6YMDZSpdOxm7GLsxRamuG/uWX2I8caX62rdC9YtfkXdgDv9Ff/y4Uxhh07+eU3ZIuZlw0PXEiU80oRAezYh8UX3pV9VJdHHttWUsL8ntssqampiUgU76KU21RgLmBBW7usSETSBVCyew/r8ePyPWVlTKCtLt7U1NQoJIqzKSHfhSE06mHCvd0WkTRyGBZrVfCzRg0KnRaIywXq6hqIczghDCjcQTCwTv8eFgSePkavWuvM4vF4QF5QAI/UNAI7lUtE0n6B9zQiYeutqb5iglGvfGP2zNR+lwwLQ/yvqT/bP7/e/oSpuJndiTSVV7o+jDUmPTV//jKfonm3NW8WbumDV+JvLC5BX917q4CT4tphb99W4538vboW0Xlvybba7PDAZ8uLfb3vxClJSeMxwjeC4Hk5v7S09NQwOk24EpF0UqDtedxgMIzCADmI494NE4SbfCESFhy4RCGHLQoZHBM8YHU5QUUojKAAEyiGoFP+Ie+pZHA0LRV0wcFnDYlZeXksFrizogYyPSLLR1K8FonSiaQdgutJRDJs2DC1irNNTkvW/fXuWw3pIwaHIZZU6mIslMWXK3bAF8stlcdONH3YJ0a14Pn3tjK/2y4pB1cGh/6wVfcx5mDq7Ds8IO9B105WG8DCL3jL1l3c3SvWW9b5OmEW5kXFK+4GBHoAsoo9RwlnQ3JkLigoYFliO3R3IhGJrxLofD2cYjDMpJSqOZlsEbtXeYigN9s6kbBumYnFYR7DD4iCTiQwhoI3LPzpCNbswv1nRGFReDDwSUleFRgL3MLuVNxut/ee5P6aBhgoEPgUi2VLQJz5i8X3xdf5qffuFnoKkYwenaDSyIKv72fUzb3jRv2AwQOCMdd1waN7lZBYQMkTRVb4+Ctz3Yki25tIRT9Yvvxgl5EIA2P3/6JHfb5C/tW0HNEwZoTYwU+sf2B1ewCWreZr3/uc++Pm3RYWFv+8KQLOHEU/vT7WTdHHCEEpBboPKFIDQsEAZL1LFLeV+KgqO7NNiUj8I+fftcou5anH8zQgtLXAZPphuD55/kMUPTm1FYdE1gCz3GL2w1sQhd2IwHCKYQRFwM4c53oGMP+RdRzAMp0abOFhoNTpvCbDtrpaGF5dB/c73BBCKLyPxbrFmN5lMplWBGjqvb6bnkIkY4anTx3cL/ilWX9I7pc5IBizHCEXa8kvssF7nxZW7j9c/6IqJPjT1at3dGk+cuZ7tuStuFnb9nKv//1Jd4i6MylR/SAkQgB+2sm5Fn3FLbLVqp/8dkve71wNWus2w2CIcRL4FID81SkIezHGSiXPjwCKbqKIrhMBVphM7XPUlojED0JuqclBgwZp7I1N//AA/XDkyJEHK3bufOsuyj00lWDUkoKSbS8sQGENol4j+MkUQ2obY/UGdcQAP3EIKkURXAggieMhiyBIEERvO+9hUr8YiXebzeblAZp6r++mu4lkGgBXMrTvxFSDesHsO1ONwweHehNNXYyFUApH86zkk2Xm0l0H6l/dvOPov7riUv1cLFmQy+aypLkJMeTZR2d5VD0Na3Yi+yUP00VL+ZVHjpBZ63eWsghIPhWjXj+aAjwTEhFx3ZkWXykJKQMRR2ciIEvyzeZ9PjV2qpJEJO1BqxN1MzIytM5mx3yK4Z3hw4eX1Ozc/c59FD14NTn7i8BuCRmB7D+VWySZAlxKMYT72PfpZBSMiJhKjKm/Tgd0ZL99hUj9y1i8p8Rs/sbHJi/6at1JJOwkq5ND1sD+wa/cd1tKvxGZoXAx3omwKL4VVU74eWet/YefKnccPNL4oVjT9O3BykqWUaHLC7Ow1EfZ/jpnlvD4pLHi2RYsXd5bxxo0lyF4c5F8y4bN4h8O5pf6nKyLEQbmxJedojj9TDUWm7Pb5riZYhpaYDL9sz33JRKRdEyG7X5qWFyculEmfxGAfpY/cuTBSTt3v/MXgmdnngrbw1LYVSEKLJZDCZzMbDiEIohjgRrb3VvLD7C7wuWINj2HxDkWi+nz9uhVu2gIvbKZbiQSPDijz/ChA4Neue/2lCuGDQq56NRZLDKQrVmEXQfqxHU/VRZv31O3pLrOucxFuGPnyfzY6XWm1+tjU+LgxQ9fdt+Wqif+SKjb6THWN3nzkxz/ejV35y/HfHcw7p+QEObkuH8Cpe8WWCxbzhyIwWC4hAeYlG8yvdCe74NEJJ0Wp28NjINxfIneModQQmR220cxGs2/XiD87QkUgQkoHEQULIhCEiAYQzAknDpN+Na6b7UYkXyNqG0+Ik9ptar3W4oD5ltLF1et7iKSsUOMkVFx2vl33JR0Z/b4GNXFdhJhxiKlFQ7IXV/uWP9z1YayCvs/84sbN1VWVtr9oc46c1UnJyenJ0WT1E/piAAAIABJREFU+798yzUpNor264kr3u4E+OpbWcX7S7nZO/e2S1WNU/T6WwDwUKYhKSoqspzCk/19EgbIzDebX5WIpCdKHQCMiYmpFHF/ZqnVVQiumkBRxmnVE7PCGkMRxMLJjMD+KCxa11pMrS8i4UmHTLbInzs6f4y/u9rsDiJhOvoNa9LvvHpc7N/vuz05PCykR2pX/CYSh1OEPQcayOf/NdfuP9z0gQzRhdsOHD/t9+C3fk83rNfr+yk4uPfp2R7XzVPFOzgEcRgB6klXU043wLJc3vqvT7kntu+3fNgeUCIjI7VBau2DCNE4AWAFJwglwHFRQNHNQGB1QYlpbXvIWjqRtAf9ztfFer1ezwEM0QJ69h6CM4cA8uZVDzvVtr9IhDXPiGQTIs2vYzr/hMf1rg+RQzs/4wughW4gEjRqYOrQgQPCPp89K7XvwH7BF43HusdDwFRiJ2s2VNT8tLVmc16hdWFYlGzHlnZYJXXFkhsUHa2xyZRZKhUae+kIMT2zH+2TFEdio8KpXKelNFgHHqWCiioFODFGLiYgDgFz+6IIUQXCSA5AlUC9rx0zssSAvGI820qitRf+VNaxkz+ffAQhCuySnRIWBRyguh7RL7/ly5Ysx/+394iFqarbVVjaZeLxTGQhmzAQOUWIUEp3ypqbv20p4Oz5GpeIpF3Qd1HljAz52GbHN4tEbnLUGZfhXdR6q82wFb0FUedbiL6zm4eX6wsLG/3d54XQfqCJZNCg9OSYUNk7c+425ky8PArzF7jD4Ul/JxHKKpywfV+dfcvO6gMHj1mXlFW7vissLGRql24pzNDB4/GEIQHpoyJJYnAwlwY8TItJ4PrGxoMTu0WPDFErluEGKhCXUo0dmiBoDFERZ2SI6IgJFlxqBehUaoiX8TRGLkOxHAfqk3zjJRbMYUDcqTQxpwOwMJJwehA4CAc2UQYegoCnImhEN1gbCTQ0IahrRPTIcVy7dS+34pgFXj9x4vxJrloDcNiwYTJruTWYk7lkbp4XRVFsaq/pL2tbIpJuWKLMuzRNJv/6M5HP/i3Eov8HwtbrHkTdCzFZtE1wP1da6rvJoP9H13N7CCSRsF1iZLDsT7fdmPCnGdP0KvUFnIzqdBDSQnMz7Npf51i/uepooaV5dWWV5xur03m0I45xflpFaNq0aThkqGlo8UH7J/ohqoz4fgrqdhJwNhHqaCLk8DqrKIoghkTzzPDSTQl1uu3EpZABCg5GiLgFXqsDToGpTAaEU3BUKZMRtU6LcBALT8GSVokYRMBgtwOUliNwIwxYw3v1ae5mETi3CM31IlUKnqb+RnFfWRX33xNF4vKVP5awCMc+OyT6AyOJSPyBahttxsfHJ6Twii+/FPFlgTRQZ0SyHxFxIaL/y0fkkT1mc3k3TL/XdRlAIuH6GgwTJ2fFvfvUo31TQ4JkXlXGhVbYnJg/iKXETr9bVy5s3Vl74siJps/cDs+y/OLigp44X0rn4cfeX3PrkR9tb196W0hYUBTvlQ07WlhrRdjyaR2ogjjIvCYIQuNkXvWTs1kEj4uC6KbgaBK96iiPg4DgZg+y3EInZ/qrjNl/Y4CGYg8UH3SATImhz2UaYH1hDoE2jANrpYcc+E/Nhhf+6Jg1Msu/edjbIweJSNqDVhfVjU1O1hsJWvKliC8NJJEwRa0JKPkXJit/Ip7Zx0tKAnZ52UXQdUszgSISliLXkB787L23GWZPmhCjZB+jC6kIAoXaBjcUmW3ubXvqa3bvqzty5Hjj6hqrY7VGoynsycYf05ZO42yrjtzGc+j1cfeER5yWCyOSE1uboWC7HULiZDA4RwdK3W8pjU8lNj3jZgSde0tylojZZX5DuQd2Lz+pdc4Yr4WYdOZWf5J1rNUCbP2ywWKrJzdvWX10e09ZHxKRdIMkkpKSUoYC98m7hBsbyMgL7MqOJWh4E5MNuRydVd5K8q1ugKRHdxkoIhmR2WfEuEsiP5o9K3VgYlwgtxj+g599SJ1OEUoqHPDL0Sbnvl/qzflFzZstxbYfKyttm5XloRVH4EiXROv13yy8LXOZw40PDMzSvTDkmqBQ7ykCATTXirDrvw1ABIDIFLn3w8/JOxd1gIgAu75ugPoyD8T2UUDGRB3IFCcJSHASRjLUZSN/vf7ZiFdmJW9k0ZG6vUhE0g0i6JOYOGIs5he9IHKDAu3pxNyA38Bk8xICd1WXFJ7ohun3ui4DRCToupzBT0+fHP/M9dnxCpmsd+dZZ/cfIiFw7IQVtu6qde0+UP+LpcLxQ0Wte7XMCUd1x483bPRDyld/La5x4zK0dlH426UzQu9P6K/0+gg7rQSO/GiFumIPcDIE/a/SQlSy4rwnDl/GhzCAZb8Djm60eQOvGkerwTBMDezvjJiPbrBBjcl9IPVS1fWvzdhZ5Eub/q4jEYm/EW6h/b56/ZjrKPfRYwT37SqvdV+nwbYvf8fivqWA7y23FOxtj624r31caPUCQSQsV83lw0M3/eWh9PS0ZJYYuXcWtlFnJrxH8prY/Ye472DjvuOFTZ+KHjH3hMViak/YjZ6EQM5tfQcKAv7gkltCRunCZai5ToDD62zgahbBZSdgGKoG42gN4N+0Wp0avsdF4ND3Ni9JOWwipI5QQ+olGpCrEFSecMEva611fcZp73vr3knLEZrf7UpQiUg6Je6OPTwkMfnaqQgWPki4uECnOGChWD7E5Jf/gDD7iMWytbe+2B1DvmNP+ZtIpk0DrrQw/U+33ZQ0b9Z0g0ou712nEbZLdrsJ1NS74USBzbF5Z03V9n11+83Ftm8aaz3rS2pLKk+FfuuYAHrAUxOuTR8vEPxJWCKfJFNgsFYJ3ktydhKJSJJD33EakKu7Vm5NVYL39NHcKILooqDUYe/Fu8tGoPiw0z04J/ifaaO4Z/44ZptPGRL9CaNEJP5Et5W2hxsMt9whcgtupSi8a5de25NhEYC/QKR4GRYf3WY2f9vdZoNtj7j7a/ibSNLTk9OTY7Vf/uO5AUP6pTFb0N5RvPcfLgIlZXZ2/2Hdub/OdCjPuqG83L6+3i7sNJlM1RfC+po3bxy/YXf5DNED/wiO5sN4BfMsRCBXYYjtp4D4fkpgf+vyQgGaG0Qo2mOHWrMbRA9zRqReyy5no0hi+qhWZUzUPfRM1qbiLu+7nQ1KRNJOwLqien+9/p45lH/tRoKC/bD8zjtEFhF4OSJ1yzn4k8uQ9NnGjRvZn6RyHgT8TCTYkGiY8dCdqe/PnpUiV/SSuxFCKPNApxs2V3n2HW7YYym2f1da6l4vyGT5hw8fZvnSu13d0lWL+uo7BmmwIP49NEF2T1i8TM4uvZVaDMExMlAFYa9prj+L4KHQUOaBxgrBexrBMmAmxLTW5Nk/8CrVfS/dsnO3P/v3pW2JSHxBqWvr4Ax98uwXKX55HEG6QLsJsLf7B0QcXyLyVFlk+Ltn5iPo2mleOK35k0j69+8fFq4jL704t/8Dl42KACIGekX4Lid2AmG+EFU1Tli5rkJY+X1ZeVGxfYG1QfjaXGlmHujd6hTn+0zaV3PixJRgebR6Sb8rtZPjM5S/hSoJpKiY0Zb3H+aAAmCrE2DvysbKaIPqnvf+snNl+2bU9bUlIul6TM/bIvNqj+Dlf36V4D9fAlgT6G0bW/ubgJD3Ofr8Whn3d8jPZ9cmUummE0lKSkraFSPDP332sb6XGBI0Xke9nlgEkUJ1rQu27KxtWvdz1ZHDeQ2riyvtX0ZHR5su9M3IA/8YPsC8z7Fk6HXBg8ISAm0e0/JqcNoI7F/Z2KjUcf932fX4o/uH72Fa624rEpEEGPqUlJTgJIH837OEmzMEkLo7PhsHECVvILpgh8P6THV1tS3AEPS67vx1IpkHgJf1SRp/3ST9ouee6Gfge1Jo2VNSYrzW0OiGnfvq3T9uqczbe7BxeVWt4xt/5wPpSYvk7peG/6Gh3L0wMycoRB3SRWZZnZygx0nh4NomO6LwZtp07uXnh+9hofW7rUhEEmDomZlnpoe8+DjlZmRQUHQHkeQBFd/h6NKfVfJHSo8d8zlFZ4Ch6jHd+YtIsrONCt6jfuSGyfHP3nmzPohlAexJhWlRLKUO+HJ5sbh9b11hfZPnO50a7+cx55eshF0xd4ebCqUVtjrBxh87Xna8rrN3NSw0ysxnVzwnuOmzAybqsELbOSIhAmXxskAbwXtVVR0tokAhb5PNY6sRlxjG8I+9On1PtwZglYiko5Ls4HN9EhLix3Dy12aL+CYjAN8dnw4LAH0fkx83UM+MvOJi5uwulfMg4C8iYTkhLh0e9/IT96fNHjM8nOuJWq3te+rgp63VFHHQLJfxHgoiOhkNvWcWQoFUVDid+w835Dc7hEWl1favOxP8cWnBxOC1X9Z/KAp0WvrlGpArO2dnWVfigZ1LG2DC7AiQKTuOIwufk7+jmVblu3Jj+6tmvvvwzm7dEEpEEuD3ITMhIW00lr93H0Hj9d5ru8AXZtT/ESb5u4g7Z1NJieTd3oYI/EUk6en65PEjYt79vznpkxJiVR3/qvhxCbFTkvfe5uT/ekXxCAQO51lh2bfF1vWbq+eGRed/uHEjdMg68cOScQmbFzUtQxQu6TdO2zkzXwSQv90O27+oh0mPR0KEoePJyphISg45oeyoc3NQpPKmRU/vYK91txWJSAIMvTEpqf8NwC2+h3AjwwPc9+nu2KXIh5jUrMTkqv0m0/5uGkav6dZfRHLFmL6jsy6P/fze25NTQoN7xiVurxFKGwNlaqODR5rg5XeO7Tlc2HjDkSMdy2uyKH+ccfOSpu/kStyXhSrh+E7wPQXY+20jczJ0XjYzTKkf0vF4aoxIKvJczMdkb3SG5uZ/PbQtvztlJxFJYNFHer1+9J2U++Begvt3fBl1btDMRvMjTK1LkHDLIbN5Vedau/Cf9hORoDHD06+96w/Jn956Q2KQvJf4j/Qmabs9FF5+56jjy+WWyQVm88aOhAN6r+DytJ/ea1qlCeXS0sdqOxUCxe0gsPPrRqHW5D6WNlqdkXGVDnf0mMeIpKrABSe22Q8nD1fe9sbdOw90p2wkIgks+niYPiV7BoE3p1GcFuiAjaenykyOVyBqW4zp3K3mwn8FFoLe15u/iGT00LT75tzT5/Ubr4nX4M7cvPY+SAMyYowRfPBZofv9Twun7TuSz3wt2m1t/3Hx5WmrX2/M1UXwxr7jtIA7ekWCAJoqBdi3srGmrsizOKaf4rHRt4Z2XLcFAPWlHjixxVZgGKG969Xbtm4KCKitdCIRSWDR58clGm6/FeFXriU4uruUGUzXvRFR4UNOfHetyfRYYCHofb35iUjwlImDnnxwVsrTV42NVkk80vXrghHJoi+KxA8+M92w+2Dedx05kSwpu1L/zcs1y2OMiiEpI9UdHiSTb2W+Gw6uadpRme96LKG/6vvRt4boOhOfq77EAwfWWMv6Xa558O93bmfhjrqtSEQSQOhZfuT4mrrHbiX4uSsp6qQhYccHzojkAKL0DSyuXWU2ZXe8pYvjSX8QCQvUyHuGfvDgzJQZo4eF8xKRdP1a8hLJkiLxg887TiTfNE0IX/xIxcdpY7RTEgcrgYpnGB2csj5g4WI8jpP/wSyxfg2ZcuZ1CgUw7bPDsZ9sHxI7vKQIw+tH3BicGhwlO6ndogDMpNfjJN62BA+lgod4A0OyPhEGxMuQN0gkCxopUyFwNHmdEvMNAzWz3nlsx+auR9D3FiUi8R2rTtc0Go2KAW7y17soemIMRX6O0HP+4ZYDhf/jxL077M1XSE6J58fKH0Qybtw4Xh9p+++DM1OmDBsU6o18IZWuRaAriGTDhnH83GdLXxxybfDc0HgZNNcL4LJTcNlE6rQRj+imbuIBwWETlZhHLqUGYYQRx8kRr9RyHKcArFBziOcBai2Cs+KY88kas+xDbYTr89TR6kmqEI5z24jA2nKytO8eyiJNNFMB6kRC6xEGV1OVkCZTYpsmhCOIg2BEkQph0AAGWeVx1yGPRz5jz9ZD3ZqiWCKSrl27520tOjpaM0ahfvNRgu8d2M22+Myj7BlOPL6VitfnWyxHAghDr+vKX0RijG1e96fZfa4wGnpv/pGeLMyuIBI2P2OK/i61jp8dHCNDQdEcJ9dwdZTQUsxxBdQt7ju6zeoU7Ogm46WaJTHpvLo6X4iVq3EKAqpzNpEICqBrbhBljnqxzN3gXnDgiHl/WlrKH1RqmKDQ8A0uOylxOegx6iblnBIaQkJkAlF7BC0ohKYmj7qxVnyccnhXZLJ2PaIuXqgUcU0zVSJE+oEIyGq3r6+srOxWJ1GJSAL4JhhjjJEj5eKHjxE81QioowYbXTJiluBqIRbrv0PkngNm8zdd0ugF2oi/iCQ5unnX/D/3y4yL7i77vQtUYKem1VVEMih6kMamsfF3fJSEtHK3/M+Xbq06EzmjwTCOUnqpw+N5s6ysrEtDlUybNo3bs2PXwxhRT77ZvLAj9zyBkLJEJIFA+VQf/RMSjOOw/IsHCB4R380rgnlnLcXU8wEW5/5iMr0ZQBh6XVf+IpIMvWPXi3P7ZwbpusvsoteJol0D7ioiaatTY3LyHUAgCGTconw/BEE1GgxTCYEhzS7HP7r75NEaFhKRtLVKuvD3oUmpwyYDXTGT4PjQLmy3o01tQhT+gsS3T1hMf2YZUjvazoX+nL+IpJ/eseuFv/TPDAmSiMQfayhQRJKs1z+BECpLMhiW+SO/T2pS0jCE8G0cEV/rqSGNJCLxxwpupc10vf7KGYRbM4tiWXf5kJweGjOHP4Yo/BGL3xQ6uQcrKwvOOq4HEJYe35W/iCQh3Lrr+Sf6ZRoSNT0eg944wEARSapevwAAcgvM5jX+UDSwQK9UEJ7DlP6rp95nSkQSuDcEDUxMufNhgA+mUdwtwRrPnCozEmKWW3/jyME9RLjtaHHxocBB0bt68heRxIU27pr3RP/MVL1EJP5YEYEgkvT0dJ3H6VzIY/yP40VF/vIux0aD4WVCyA+FFsuGjjhW+gPfM9uUiMTfCJ9uf9gw2dia2lcfF/lHxnVT1N9ziYSZeSzgSPVSRKaZTKafAgVFb+tHIpLeJrGT4w0EkaQmpBoRR+Z6gLxsNpuL/IVUil4/GyFkV6jVXxw5csTtr3462q5EJB1Frp3PJSQkqIZg2YrHKZ6YSbsn6u+5Q2anksWYWBcgeMCcnLQUpPztLUpVIpJ2LvYeUj0QRJJmMIwiALcCx71UUOA/9XCqwTAJKB2gcToXHuxmU9+WxCsRSYAWfWRGhvbSZsfB5wlOTqQ9w/uMB4DvEXUuROIrh0OCXqs8eLBbbdEDJIp2dyMRSbsh6xEPBIJIkpOSpmCML9M4HH/15wc+OTk5HRNyB5LJ3s7Pz6/uEQCfMQiJSAIkkcjUVOOVHrLjDcKFKQPUZ1vdsAv3XxAVFyLy1R6l7LHjx4/XtPXMxfi7RCS9U+oBIBKUmmS4DyGsuc18x1vzYX67g0L6iqzRaIwkbmE2BvJ1vsVy2NfnAlVPIpIAIW1MTr56ioj+8xTBIR0NINrVQ2XnImaq9Qon/pRLxbuqLJbCru7jQmhPIpLeKUV/EwlzVLQrGx+lAEcLzObl/kSJXeoLTvcDAGR3R0Pi+3N8EpH4E93f2kaXJBke+QPgf9xGsLynEAkbHru1W4DJkZWUPnCwuIgFfustifACIzkAkIgkYFB3aUf+JhJmlgsCmYMR/e6EybSjSwd/TmMsNpulqGg6AKDQiIile/bs6VF+XxKR+FP6ZxDJGIPhrUdF7pEJtGfF52Me7sswqVqB4bEfTIVLAYDlvZLKGQhIRNI7l4O/icRgMBg4Ao8TDr1RVFRk9jNKyGgwXEEJDHII7kVdHYqls2OXiKSzCPr2PD80yfD5Pyl3c3oPuWg/PWym1F2HiWsREp9aHxGxAHrYTsc3eP1by19Ekh5v//FPs/uMTU6S/Ej8IUE/Ewky6vWXAEXTgyPD/xKIE4Jer+/HIXSzWxDeKSkpqfMHZh1tUyKSjiLXjucMBkNMIsAnHwlcVkQ3B2tsadj7gYoLMPloP6ZzTSZTQzumdlFU9ReRDE51fjvnHuMkfYKmZ5jxXWDS9DORcMlJyTmASJ8is/n1QEDXNz4+3C2TPUIA/mcymfYHok9f+5CIxFekOlEvJSUlbZhIF/9d5C4L6kQ7/nrUApQswnTDVuqZsa+4uMxf/fTWdv1GJEb3ijl3p2RLROKfleFPImG5hahbuBNxqDm/qOhz/8zg7FYNBoOSA5iJKLXlm81LAtGnr31IROIrUp2oZ9Trh1xBuI/nUTy4JyoxmFH6B5gUbJShSXsLCvI7MdUL8tG2iKS6uvopSum3OTk5+3wFgF2eDpaIxFe4OlTPz0QSRD2eRxDAj/lm87YODbD9D+EUvT4bAR6n0Kie7kke7qtXr/4zQmhfVlbWenTK3/rXY/bSpUs5nU53D6VUlZOT81b75y09wRAYotePHk+5xX8kuC/L+tzTzKJYSrYPMalcAcLkvRbLHklqZyOwevXqOQghd1NT04fTp08/yxhh9+7dsurq2qcAyPbs7Oy1vmInEYmvSHW8XhcQCRoH47jCpEKdUqlUIweiHpmnubCw0GowGJIwgZlIcC8uKCsr7vgo2/dkakKCkXLc43KOe/tYYeGJuLg4lRbjUDfPyyilLlEUG0pKStgr7TeflnNHzHhCo9H+EyH4Kjs7e9PviIQ9sHr16tGU0ntVKtWc8ePH29o3bak2Q6CPwdB3IEHv30vQZVEIYTVFwLzKuVPwMHPglkyC2d9YvZaIxxelui+Exay2mAnwx1is/R8iM34xm3Mlqf2GwHfffafGGL+DEPosJydn07nioJTiVavW3MFxYNi+ffsL8+f75pQmEYn/V1lniCQjI0Pubm7uTyi6HGOYQCkYvakWEOynFH+LQKwDwMNcomdxIC++0yPSdaLW9RQF2E9FsQBhPB0ATaYAoQigDFFYRxH9yeZ0bgpU7pLc3NxUhNAzlNJnc3JySk5L9qxv1KZNmyJtNtuLPM8vvPrqq3vUBY//l2LX9MAcl+QK6419EMpWUQiSA9WFAMIyoGGIIhlLtCpDFFNAWgLAHN8pIwH292D6+0yKBAF2UaoWf+Oi3w2UCVEJ0MwBYlzRYmFb61pEwQHg2Q907zHg/njAkt/jvGa7Rgoda2XVqlUDAeBRQRCenjp1amVLrbA6GOM/U0qfyMnJ8Sl8BSOSQanOFXPuNmYbEqXL9o5J5/xPdYJIsFGvZyHx5gGFqwDgdApLCgh5KKVHEIX9BKHdFNGPTCYTSzgaqIKMycnTgNBJFMAAAKMAgCk6vIUCNCMEBYTSBSqN5tNAqL9yc3OzKaWX8zz/YlZW1q9hls4ikqVLl8p1Ot0TlNLCnJwc5mfgy0Y3UKD2mn7YRZncLde6ZC6ZKIqaYIzlPPBhgEQZYw5MOaxFYpDw26IFOQDIveeWs107CMW4GVONi6JWMyJxADSIQhOHSCt+IZy3VTeI4ALOZefgOISGHguEGWOvERoAWr169U2U0n4A8GpOTg5TGfyurFy5MhRj/iVK0VeTJ2exU0ubhRFJ30THikfuTs1OT9X5csBss02pwtkIdJRIWIBVJSe7C4A+TAH6/E5hgOB/QCEECLxXUGxaFkg1Epuh0WhMoB7hMwB0GQBlSoszC/s+uwHoLoLx7f72b1m6dKlKqw26HyFaM2nSpCWn1VpsQL9b1Lm5uVcAwHUcx72TlZVlkshEemUvBgRyc3MTAOBhhNCa7Ozsja3Ned68eXj06NEzCSGpcrn8zYkTJ9a2hQ8jkowkx//m3GvMMRq0EpG0BVgHfsccgnc/zne895np5sPH8lf5+sEfFB2taVaqH0QILgdKL2Vqo1PfRQpAywDw2xQgnRPoP0+UmlgOkkBvrlmMr4UIobsp0JY04xQoHKI8vrGwsPBEB6Dz6RFKKVq5cuUgjuNmCYLw4bXXXnuWNuN3i3rt2rUaURQfpJTaeJ7/7Mzji089SpUkBHoZAuxuhOO4PwBAEMdxH7a15letWhWDEHcvx6F9jY2N30+fPr2tnBF48sSBr8++M3X2VWOj5Gz3LJWuQwAhgIYmD7z45lHrirWVOYWWwi3t+OBzKUkp4wCJNwBCiUBhBDpJJiyo6SYKqA6AbMMy2df+yNHuCwopCQkDEeZfAKCXAkJhZzzDVNllAPQjhVnz9yPgv9wlK1f+HIqx9S6EUKnVav3m3DX/uxXNmGf16tX9KKW3UEq/v+aaa372ZbJSHQmB3orAmjVrxhJCJlNKl+Tk5Bw688je0pzYqeSSSy5h+uocQshnkydPPt7G3NFlI9KzsifEfnDPLYbE8LDuTr7cWyXV8rgJofDTthp488MTq8vrHDP37Wtf6PW4uDi1kudHI4TGUIBBAMCCrTZSwMcQors4heLHvLw8azeixhn1+sEU4DpK0SiMIYRS5EEAJoroOqUgfHvYv97vaPXq76+jlAwURc9HU6ZMKT0Xixa3Rhs2bODdbvdVoijmIIRenzRpkrmtl6sbQZa6lhDoEAJs0/Tdd98lymSyuZTSH6KiolYNHz7cpwB5W7duVTU0NNyOEIpTKpVvjx8//rxRAkZkGGIionXzRw4JuWXK1XG6VL0WMA68nqRDQPXgh2w2AbbsrhVz11VY9h1ueOz6afkr589vvzksUz/m5+cHyak8AvOiFiNkB7e8Rhera+whd4nYaDRq3W53BM/z7FTiopRWcRzX4M+TEjP3DQoKGgYA91NK39u+ffuelqwVWz1j5+bmKiilD2GMr8QYv93Y2Lh5+vTpjh68pqShSQj4jABb3wBwCaV0NqV0m0ajeW/8+PHtsshZs2ZNGCFkLjBzTIT+qVQqj4wfP741yzmUaTAEh8SqbnR7yJ0J8Wq5Uo5JwBwAfEamd1Wsq3Fhm13Y1+wQPtCF5R/cuBFatVzsXTPr/tGuWLFCJ5dj/UutAAAgAElEQVTLJwEA0079R6VS/be19X1eZS2z4tJoNFcihFhjJp7nVxUVFZnuv/9+n3Zt3Q+FNAIJgbMRYDsstVqtRwgxU88UjPGPVqt1gw/3HC1Cye4UCSHXU0oHIoT2I4Q2ZmVlVZznBI8iIyM1Op2OkVBPyjLQK5eKXBA8fFBQdSBMX3slQB0YNNtkyWSyPh6PJwcAB1GKl+3cueXg+fym2rz1Y8f/NWvW9KGUXg0ASQBwlBByTCaTFYuiWGVjZ0upSAj0YAS0Wi3PcVwUACQSQtIopWkIoTJCyLqcnJwTnVXbMnLSarWDALgJlBIlpZDHcWCilJpUKlV9dXV1oC19erA0pKH1UATkarU6FmNsQAgNoJQmU4oOIETXZWdnl7b1jrRJJGzSpy7gdQCQgRDqSylNwhjHEEJKKaUW1LPSbvRQOUnD6g4EKFu8CLENUAKltAZjXEAIOYoQOpqdnW1t6wXxdczsAn748HFhcrk7QxBIP4RoMkJIC4ALKKVtmgj72o9UT0KgqxGgVOQAMPOhYdZqFZRCPsb0sCiKeVOmTGHXGW1uhHwiknMHzmIOlZaWRsrl8kxCSDTGuM2OunryUnsSAr4gQAhBGONKt9u9Pz4+vtrXy3Rf2m6tzqmNlxwhVSyAZwiAGNyZ9qRnJQT8iQAhCGFMLTKZbD/HcY3nuedrdRgdIhJ/TkpqW0JAQkBCQEKgdyEgEUnvkpc0WgkBCQEJgR6HQIeJZN68efyIESN0oiiyMFFSkRDosQhgHCRynMPaWvwsfw2cWb+IokpHSNPp4M/+6kpqV0KgUwhwHOfetWuXdf78+R0ynmo3kaxduzaKEDSQUmEIQjiWUpBMgTslQulhfyOAEMgoJTZK6UGZTHZwy5YtBb6GgG/v2Nj9yA8//GD0eDyDEOL6s7ArAJJvQ3txlOoHDgFCCCCEVBh7LQ33chx3NCsrq6o9I/CJSE5ertfoOY5cw3EomVLKvHhLBQHyFAquVhCk4EHtAV2qG2gE3GqEUDqcDMUdhhCqB4Bcq9V6qKucbFm8LoRQJsZ8FgDRUIoaMMb5CNFCUeQkR95Ai1zqz2cEeJ5QZjRFCErDGEUDkChKKfOJ+kGpVJb4cvneJpHk5uayHdUVlKKxCNFi5sAFAOUKhaLJlw58no1UUULAjwgw89xRo0ZpKaXMC/0SStEAAHSc42DdpEmTKnwxcWxpeOwE8v333yeIojgJIS4ZIboHIbRTo9E0XHrppbauMi/2IzRS0xICXgRYaCxRFIOdTifzJxkLALGU0p+bm5u3TZ8+/byJDs9LJGvXrk0WBDIDANgO63tRdO2YOnVqdwYvk0QuIdBpBA4dOiQvKSlJIwQmA5AwSunynJycXQihdkUsef/992UJCQmjMcbTCYFSjkPfNjU1neiol3ynJyY1wBBg3zSW/ClULpcHud1udj9FQQ4iuIElYmI+Pb8mZJIgaxkBFh5FqVSOEEWRRTZp9Hg8/7n22mstreHVKpGcvAuBvxJCygHI+zk5OZXS7kpadhcQAmjr1q3K+nrrBAByKwD398mT25cVdNWqVaMwxk8Qgj8NDdWtHzNmDIvVJflUdc8iYYnfBgDA5RzH9dVoNGkymVzPc5ycfbcEUXS6XO5Kp9OehzE+HhwcvD8iImKTFFqldWGx03Zubm40Qmg2I2aM8bxJkybVtfREi0TCIpvW1TXeijGNP1+2uO5ZL1KvEgJdi8CqVatuRQgZOY57z9dLxlOJsB7EGG+dNGkSS6QklcAiwL5dcrlcnsJx3CSe58erVZp+QUE6g0aj4eVyOWDMAcaYXSSDSEQQBRE8HjdYrTbSbLdVOh3OPLlCvpvn+eVKpfJwYWEh07a061Qa2Cl3T2/s/o/n5c9TCgcAxK9bsn78HZGczrVAKc3GGH86adKk/O4ZvtRrT0eAmYAfOdKfLls2vZUUvz19BifHl5u7KZIQ210YQ4HNZvu2LdXUhg0blHa76waEIEqlUnzSVgj53oFCrxqlTC6XpyLEZet0mmtDQ0OHBumCtCqVGnMcB+yf04WeOh+y5FesUEqBWSmJogh2hx0aGxtdDrvdRAldLVfKl2VkZOxZvXp1i2mWexVCXTzYVat+GIixcAvHcd9s2bJl77lWjy2l2o0EgPsIQUcNhsSVAwYMaCv7WxcPWWquJyNw1VVXpTmsjnhBcAYBxlE8J3dTjGt4HlmjoqJKYmJiyhYsWNCrXkS2eRo5cuTQk3cd5IvJkyfvP58McnNz2WX9NIzh39u3bz/kL1PinrwOumts0dHRmqampmyFXHFfeETEJWGhYVq1Ws3C4HRoSIxQHA47NDQ2uBoaGo7K5fKFkZGRS/fv33/e/DId6qwXP3Qy7QI3hVKS7HI5Ft9www1nxY9rgUjWZgOILG/76zk5OdW9eO7S0NuPAJo2bUacTCYolEpl9eLFi08bVqAJEyYMtDXZbrQ327IAoI8oigrB48Ecz1Oe5ykC1MzL+DylSr1XG6Rdw9KUfv/9973mUpOdMpqbHTMwBraReq0150VWz+FwPIkQKrRarV+2dXppvwikJ1pD4Oqrr9bs27fvUQB4MD4uIS4kJAR3VbxYSgnU1tXR8vLyRoy5N7Va9duFhYWNkjR+Q2DNmjXMiovdl6zPzs7eeCY2ZxEJs2Yxm81PYIyLtm/fvlTaaV34y2jatGny2traRITQBI/bM9XlcKUAAsxxvANjdMIj0o+JyxFldzrmUEKH8HIZqFVqkCsVTEENHrcHPB4PuF0ucDodTHVAENBamVyxFyF4X6XV7nA6ndU9JMvceQW6evXqQSyZm8cjf27q1ImVLVVeu3ZtoiAIL/M8/1JWVtaxC3+F9IgZooEDByZXV1c/zWHuD7GxsWqdjnkldH2xWq1QUVFeZ3fYX+I47oPq6urzmr12/Qh6bovs5D569OjbASBSoVCwrKC/esGfRSTMUksUyQs8zy28+ur2WbD03OlLI2sNgcsGDgx1yZQ5mMMzeZ6/RK5UaJUKJYJTCmWX00Hqamsb3E4nViiVwaERESg4OARkcrn3AvPXwvTOLMSB2wU2qw3szc3QbLNSt9vdhDi8EQhZJgJsyMvLK+/JVk0bNmzQ2u3OtyjFi6+5JmvbuWM9lZuHmUPe2NTU9ERXOTNKK/T8CAwZMkRfVVX1PKX09sTEJJ5tZPxZmpubobSsxNLQ0PBcc3PzlwAgqfdPAb527doxhJBbtVrts2PHjmWOvd5yFpGsWbNmKCHwEAB5PCcnp8mfwpLa7l4E+vfvHyZD3B8VatWM0LCwOJVaw7ETxpkE4bDboTD/BMh4GcQlJIBGpzubQFqYwunLTJfTAU2NjdDYUE8cdnu5KAjrAGBxvF6/dePGjR2K5xMIxFatWvMou5Jtbra+O3362UYEzGHLbnfOQQg35ORkLQ7EeC72PoYNGxZcWVn5KCX08YSEhBC1WuN3SNgabmxqpBaL+VhjY+Njwsm1K1lzeQ1TciMpRW/wPH41Kyvr0O+I5JSH7kRRpJfk5Ex6we/SkjroNgRGjRoVJDidT8nkykej4+KUSpXqdwTBXqbioiJoamyAREMyBIWEtEkiv58QBbfLDXW1NVBTVSU4HU4zUJgnIPJfk8nUrvzogQJrzZo1YwkhE6Oiol48N3cJCxVUVVXzDEJ0TXZ2NjuxSMW/CCC9Xp/jcDjfiouNSw0NDW0zEkdXDYet/7r6OmoxmTc73c6ZTqezqKva7s3tnMy1s/Z5ALIlOzv7h9O+hb8KhlVYu3btBEJQZk5O1mu9ebLS2FtHYPTo0Sqn0zmTw9yLCYlJ4Sq12msSeWZhpxKbtQkK8o5DcFgYJCQlnWVS2V58WfvNViuUl5QwYiqnFL0oIPKFyWTqcZYxq1atykQIXRsVFfW3lomk6klK6bdtWXa1FyOp/u8RYBses8n8flBQ0PTY2DjcUcusjmLL1q3ZYnaVl5e94HQ635I84k8iuXJl7p94Hu/PyspaLxFJR1dX734OZw7IvFymkL0eHRubqdXpWrSZZC9QVUU5lFoskNa3H+iCuybBn9PphIrSElpfU1ssip75co3m857mWZybmzsEAKacj0gA4LucnJx9vXsp9PjRI4PBkOV2uT6Oj0+M0Wq1AR+wd0PVbKNFRYUHbDbbbIfDsb0n3/EFCqDc3LV/wphKRBIowHtaP0zfTNzCGxExMbeFhYUpUCu296IgQLHZBDarFdIz+nsv17uqMOuuEouZ1NfV7UdAHz1eWLi5q9ruinYkIukKFDvfRnp6uq66uuatqMjIWdHRMR32E+nsSNimqqKi3F5RWfGGQqF4pbKysteYtHd27q09LxGJv5DtJe2OGDHiCozxx3HxickKhaLVUXvcbjAV5ANCGJLT0jql1mqpE0ZQlqJC4nQ4NiIZf09eXl6P0T9LRNIzFnNQUJBRIVdsS0lJjVCrW7fSYh/6s31JmLa+8+HOzmzXZrPRktKSPYSI0ysrK3vMWu0uSUlE0l3I94B+s7OzFeWlpfNCwyL+LzI6+rw7PJfLBUUnTnj9RPSpqV1OJOwlramuhmJTEeF47iVjnz6vfPfdd/YeABOzSpFUW90sCOav8Nprr/0hKCjo0z5p6dz57kbKK8ohLDQMTm+MbM02UCqUwPP872bBQqM0NNQD80GRyViMx5aLw+GAJmsThIeFe9thflKWYksjQvhps7no3W6Gp9u7l4ik20XQfQPIzMxM4zD+NjYuoa9WpzvvQJj6qSg/3/uy+YNIWOfs5TQXFoDdZiuOiIx+YPzE8Wt6ggOsRCTdt0bP6FkRrAt+Ny4h/q6Y6JhWLbUEQYDjJ/IgKVEP7A6FbVAOHzkM8fHxEBoS+ruJsICN7PfUFCNoNBpobrZ5SeXMwtqora1lfiTQJy0dVCqVt93KykqwNjUtHzJsyO09ZdPTXZKSiMR35NniRdOmTUPLCgsxwJ6Wn9SNo+MAYOPGjewsfeY/vvfUck00D+ah+TC/S2zXp02bxh06cOjW0PDQxfGJSfyZQe1a6t67AyssBAoUko1dr9o63SczCy42mQSNTvfv4JDEuevXLz8rfk9nQezI8xKRdAS1Ln8mUqvVLRs4cOAV7HTRWrHZbFBUVAjJySleImFxsw7+cgAS4hMhMpJFujm7uN1u2H9gP6SlpYFcJgeLxQzp6X29EYJPF0YapWWl7vLyMrFPWh9lcHCIl8gaGhqgqqqyoP+AzJu//35VKx+ELsehRzYoEUlrYhkGsghzhJJdQFc1NWlVMtQnTh6aHiSX93UTkogRqLhzgvoIlFI54m08QrU2wVPcIDgqHR6h0Cq6zBFBQTWCINjy8/PbG7wQJyQkxGJKxyCKozCmuyjPH+ysz8WwYcPUVBDfD4uIvD0iKqrNxcleSHbZbm1qgr79B5xXDdBmY+epwMJ6F57IYx+AwqjY+IdHjx65trtPJRKRdEaiXfZsn7CwsM8HDRw8orVYWuzvNWwjUmyBNGMaaDRasNvtcOjwLxAfl+A9lZxbmpqavL+nGfsAL+OhsKAAMjIyQHWGpzxTfxUUFhRVVVUdT0lJGR4bExvO2rHbm6G4pEQwJOof3bJ9y8KLOTeTRCQnVxYeZzDIy9xybbBK3sdNPX2VPJeWpA7tp+Lk/TiEYsLlakWcKohLUIVwcapglKAOBjniz7rCa/TYocZthxpnM20SnbTWZRdqXDahytXsFigpMtlqf24SnAeUcoW5WXQVVjY0VOl0OiE/P9/TmpdsmsGQKZfLH0xPMQRpNUp8+IRJ3dTUtI46+S/yK/I7HEDTaDQGheqCV0bERI8NCQ37nd9IS69/ZXk5FFtM0DdjALSlCuvo54N9DMpLiqGuttYeGRP9mlqtfrW71QYSkXRUml363JiY6Nj3+/btO+B8RFJaVkrKy8pQ3759ESMSRhQFhfkQGhoGSYlJZ5002Ojq6+vhWN5Rqk8ygEKpQAUFBd7TCVODMVcqFvWH3Q/amxuOx0aHbcsvqhiVkJDYlz3L/l5cUgyhwSF/i0+Mn38xh5q/mIkEXTZwYIhLxHGi25WSog0frcR8f70mdGCiKiwxWqnhIhQaFMQrIVSugiCZ0hs7pr22H6y+1eOEKlczlDoaoNTRJFY5bbUVzqZj9W5HQbPoPl7abN0lx3zejvyDLO7UmXk8UEafPnNvvy770odnTo/SqFWKo/mmyrcXf9m8fc+B9VWNjZ901PRwzKAxUU5kX5+gNwxQa9oOMcFe3saGBig8cRxi4xMgKiamA17tvn1YmOe8ubDQGRQUvDBBn/jcsmXLujVInkQkvsnNz7XGhoeHP90nLf1SSqmGOUuf2x/GmJaXl3pqa2tRkt7A4m+h+oZ6aKivb1SpVKqIiEg5z5+RlwSArWlSU1tdqVZpdBhjTXVNtSMqKlodHBTMSIRFsSYYUZx1xUi4bNRQ+wtvfEAabU6NSAhmarGmJqs7NDT0L5mZg/65bBkLH3dxlouNSHBkZKQ6QRuaGqpSDeUoNywtOHKIXhUan6INj05UhSijlFoIlilBhjkva5wkDnYz0LmCToUwcxMBmkU32AQ31DittNxpsx5qqqg43FC+v8Zt3yqI8LPFXnOsrKzMwXocNWTw86/OnTPxspGZIxFCzOzEdaKouGj+Ox8U79h36K1Cszm3IyMbO3bsIGtD4/LU9L4p57NWObNtduGen3cMWPgUfXIKcC1YwXRkLOc+w17QgrxjbkrJpyqt9okdO3Z0a4w3iUi6QqqdbiNVJpM9nhAXd02qPjGSIlBTQsHt8YAoEmAEkRAXTWMiQzyiSKjLI8iIKGKPIIAhMba8vsEWXFFdq25otALzlQoJ1kFsZDjotGoxMjy0xGprDm22O3RqlaLO7nCFYYwRx3FEpVCIao0Sjx4+mDMkxMEPm7bDlp0H6La9h11mS7EHY7wyODjohRMnThzt9Ax7cQMXC5FgvV4frcR4bLRcNzVeHTp4WGhc/KCQeHWCKlgWIlchJccDhpOf+86SRlvr4fRWitGTQClYPS6odFqFA41lzp+rC4uLmxu3lLobl/GK/2fvOsCjKrb/ufdu3012s+nJbrIt2fQAIST0Kr0IAqKIAiL2ru89y1NR/9bnU8GKXXmKYgWlS0daCCQhfbPZ9LbZ3su9/2+WIkhJIdkkuPN9fOT7du7M3DMz9zdnzjm/wzzOwLC7Hl+5ZM6NsyZnEATuC/QgKbCs+/G3hlVvffR1aGT4y92gY8dGDx89x2I1f5iYkhLR2fwNPq6tGg2Y9Hof1xZfIDit+/dwQcGPNWo1ZbPZdoawhIv3n9jf7Su8nhhaAEh6QopX3QZSJUbMvG7s1tefe5yBE6fvlRGIkBTpu7IK4nEgiMfzHf88Hg/mu5sCABaLRXq8Xsxmc2AOp9OnSSPXYA6HBQwmA2g47vVSFI60HBzHSZIkz1na0RcBLXEaQQCOAXjQ5jNbyT+OFRbe+eizlVa74yWDwVD4dydwvKaBRKFQMNkeXIrh2BQ5TzgvOTgyd2S4lJbJj8a5NMYZ2LjqBd5jDaBlb3TZ4aiuljqo1dgrLG276m36yti46MEvPXZvSEZyQiqGYySF4fr1v2w79sx/3tc6SfdjDQ0NXfVswkaPGLHYYrWtVqakXuwTeYU3cjocUF5SDEwWG6RyOTCuEMTYXcEg42ZDXS2YDIZisST+ls2bN18xO2F3++nscwEg6aykerceCkgcPyLrxOqXn+LFiaIRIXPvdniF1ksrqjQLVzy26VRZ5csAgK6k/9blmgQSBCBBAHIBLWi+IihsRiY/OiNLKGLJeWHAxNFBpu8WYGdWGzoFmT0OKDe3wZH2GvN+bbWFHs4zz5k+zhUXG61vbdebv/x+k7ZSU6cAgE9IDENkh11hzsXGDh+1yGy3rklMTvF5oHS2+LxgigoAp8BH3BgZHdPjthKfj35jI2jbWnXxMumDv/3227rOjq836gWApDek2vU2x4wZIw7h0nY88dAdypysTACyY094dChBBWkhV9K80ZqzORxgsdogLERwxYBbVPdofpH1sef+821BSeU/zWaztutvc209cU0ByQJYQJTK82PYGGNWiiDqxvHhikGZgpjgaFYwsAl6vweQ85fW6QsjDIxuO5SbW6l9bWrvQUON1US5VW6vZ5/Z6fwd83gMFEbcjGPUVyqN5mgX1GssJydnnMNm/0qZkhrbWQZVFEtSUV4OdBoBQRw26PQGiI2LA5TY6nIcXd3ZLmijtrW0QFtriyc6NuaZ7du3o1Nfn5UAkPSZ6C/oeMGCBbzK0lOvPX7fsrtvnDsNiCtdqyLnEJMZ9h48Bh6PF4ZkJIMk7mL3X9QBSsBWXlkNm3fu8/W3dNH1ECoUXPal0XXad79s9WzZfXDd2JxBj654ZJWuf0io70ZxzQBJSkoKQ+DGrxMwOXePCZeNmBKl5IvYfNxnNB/gxUe57nVBqakVtjWX6Q611+xster/W1lfnyeLl12PATXIA+R7NTU1nVWxOXQ6/Y6w0LCnMzIzw4ShYR26/6KTnVpdBXabFZYtnAvxUWGw9n8/QF1TK8SKRBAaHo5y8faIpH10Ka2tCEggOjb2XafT8VBfJr4KAEmPTGtPNIJlJCXMmz1jwmcP37U0SCgIvvz1lo+l1wb7/siDyuoaGDY4DYYPHXTJMaD11tjcBg1NLT4AEcdEAYNxBboUtxvefv8LjyA4+NvFs2Y8GJyc09Wr5Z6QRb9qY8ADCdJCTKlVUr3LuWJYqHjZ1KikiNzQeKBhl2RD71fC785g7F43/N6qIn9rKinJ0zW8QdGwnaTHs5giyap4meznznxw6XT64JzEjP/GR8ZkH60r56SlZ2BXJGx0u6GhoR4otxPuuW0RzBo/HFh0Ouw+cgLe/nQ91NQ3QHhEJERER/u4uK66UBTodTpoa2mGqOioT+QJCfeuWbOmq4GcVz2Msw0EgKTHRHnVDSnF4hhZQvzX//f0Q2MHpSVdmM71cq2f1Vx6wqaCYVBZXQvvfPQ/5w2zrntrzLApL2BRUQH23wFMI48PFiujgoI4U2VswfKcsPjcceFyAl1jXesFqeIqixY2NRbrjuvrf6mytB91U1QaENjnarU670rvHwLAj4iVPrZiyg33EzjBf+2nz4AfFkIJhaFYiDD0HD8R4ixCPEQoV7XXaQe5OBqWzJ0Bo4dmAkGcdohB4yiurIaP1/8CR0+eAgonICQ0DLg8ni/yvbNXZheN1wck7dDa3AxhkZEvb9++7am+jBoOAEm/2lFEokLy+AN33PLPZTddL+CwLk+X0uOjxjBwejyw+v0vKIPZUnr7kvkPyAZftxvDsI6NNT0+mP7V4IDUSNA1Fs3pHSXlCpfmCOMnjQ6XRCYFR+AMjOjnZvSenXyj2wGH22scPzecyi/QN2oc4GmjuVwvVjQ2Xsn4l5okkq2eP2JSbnVrA7uysRYbPziXtLmd2J7S4xjOZADyzKIROMTFRkGqLB5yBqXC0IwUiI0MvyQ4NLRo4fc/jsHmXQehQlMLBI0BvCAeBAXzfQR36MrLByroZNiJU6GPJK+tDVqaGuzhUVH/3LVr15qelVzXWgsASdfk1du1BQLO4JHZQ9e88K8HcjNTEwkcxTN1wvB+NeNCy9ZstcL+Q/nw7qffeAalJf1ktrueeWft5xVdsE1ezRD69bMDDkiQRxaPwhcNEoj+cYM4PSGDH0MPojEB74V4hn49c2cGhwIcTxmbPV/X5DccbNeY3aTnMw+GvXcFLy5+MJs3LZTPH2qyWZXKWEnOO3c9HRYSxMce/fR1+O3YPhDygiA5QQYrb5kHU8aOAC6b1SFtvNPlgsaWdvht7yHYuf8IaOobkS+/D0gQoCBKFSab7bv6Qt4zf03le76sfcb21hZoqqurY/G4j5w4cWI7IgjwQ4jPJac8ACT9ZyfIZDI+5fHMiQwVrszNzsgZlTOEljU4BeJio3vtG4BARFVdAz9v2Q0ni8pIBoNRZTRajheXq6pdJLlWo9Fo+o+E+mYkAwpIJBIJK5LGuzmZH/7Kg4ljwmW80A6NxH0jVv/3qra2w8fqI+7dLVX1Tsp9n7qmZmtHJyUEyu0tbc/fMn7m7eMzc7jv/foNi8/mwfTsMXBEXQjTZo2A66eMh7MulJ15KwQSlbWNcPB4ERwrKIbC0kqfvQM5XDPZLOBwuMDlBQGiZWGyWOdcMs+6Zp4FGOS1pVGrdGaL5aDBYKh3e73/AoA+iXAPAElnZr7364yDcbRaieaOGRNHrZo9dZyAzqDT804UQ1OrFm6ZPwMyUhMvCyZn19WlXIDR+r6Se7DRbIGPvvwegoOCIHdoujcpUaa2OVzlz7y42rFt3+E9FSpVIB/JQLGRDE9NFbK8jKXDQuMeXCjKECuCwrH+Hg/S+1vrwh60Lit8qTnu3d5cvltvtz1RXqfOvxKYoGRBL7744pLYiPDXJo7IEZZWVtNkIWKYPGQEVNlq4c7lN0B0RFiXXwNtSo/XC0aLDdr1RqhraoZT5VVQqa6F2sYm0BnN4HR5fFddOEEDOpPhs6vgOAFmkxEcdgfYrBbQt+vIRSMmk4WaSt1hVdEcu91+pC+0kgCQdHkJ9MoDYrE4JlzAf/fjt1cNHTwoJRwoaPO4XLFbfz+Iqapr4ZYFMyHsEm67HpKEkjIVuN0eyExL8tGp+AqyxRlNsOfgMRiRPQgiwy8OqaIwDLbs2A/VNfVw04IZpDBEgIHXi5EU5d76+4HSZ1/94I+8goK7e+WFB1CjA0IjyZGmRQo47JW5oeK75sVmRMdxBSi8aACJ2T9DRRJB5JDra0/YNzWVbGi0GZ+sr69vuFTvKB+JpqFhZHVFxfOpCsnot1f9E6/S1MGGH7ZDGDsEcsemw/xZk4D+Fz6tv2oOV3qzs3XRic/l8YDL5YaG5jaormuA5jYdFJVXwq8795F0jAYGqxlnMpgwPGUwyKLF0NDUCGW1VdSS8bMxnREKfzwAACAASURBVMVg+3znz8+rm+vfQlxj/pHmn70EgMTfEr90f5IoiSQklLv6649elSUlysRAUUeBglGaugbmu5+sp26YeR2em51xkR3OS6IAwkLYuusAIl4EZYIMWEwGtGl1sGPPH754k/vvWAxCAf/CjjEMdAYjvPTfj2DKxFEwaUyOHQNgIvXF5XJbv/lxS807H33zc15h4dP9Q0J9N4p+DySZiYmxdJJ4Yk5s2uIbxBmCaFZQv6M26bvpu3TPtTYDvFv1h3lfm/o9N049e6kcKBMnTk+sqa38EMeJMbERofir/7wf0hKlsO/wcSgpr4Ip40aAUi65KBrYZLaCzWGHiFBht72y0DUD2tx1jc3wwptrqcywJCjWqLBTtSp4ZdkjkCFJhL1Fx8iXv1sLPDYXy05Is3+1e9O2Jl3bwwBQ4295B4DE3xK/dH/KsLAgDy/46btvWzD+rhU3yrkIDSiK3dLWbn78uf9qFRKx9OF7biWCgrg+Qrrzi83u8Gkee/5AAYoe3wEJac3RkeGwcM4UEMdGX3g0xTAf0Hy1YZPjy2832d54/nHOxPG5BJCY3e1wHP1p627PF99sdKrUjW9UVFfs7x8S6rtR9GsgQT7jXCbnqetj01fcLs1h8OjMgE2kE2sFaSZFxiZYVbLDrXPYH5tZVfLOKoBzLorI683mcDxKer1PZ2YO4hi0rfDv+5bD+NwhPnI6wHGgvN6LZI3jGLz/1fegqmmAB5cvAlFUxwmxrjRcL0nC6k+/BqaWBcGcIOo/P35KhgWH2DOkidZ8Van3aOWpzSwGwwAUJbA47fu8Xu/PZ4zunZBCz1UJAEnPyfJqW5JIJJLQ4KCXbpo3bfhNN0yPiQgTYkaTadMNyx7VVlXXJM2cPDb3obuX0BXxcRhB/CWWjMDB43JDaYUa9AYTyCViiBFFA4Y8vs7zJnR7vXCysBQ+WveD9YffdnzM5/AbJowZtmLyuOExdrvDuObj9YdaWtsa6QzaD8KIiEPdIE29WjH0u+f7LZAkikSx8cER/5oVm3rrnJi0YAGdPaAoTvp6pr0UhaLgkQG+1k56Hmvz2jee0UzwsLCwsUwm882k5JSM0NAwrLGuxv3I0oXkrImjmQgsfAUd6LwkUN4zXEUEDhiNgJ+27YaWdh0smjUF+Ojkd4VisdmgqUULUT667ovrova+27gVvlu/A0IEwa4Dp/JLW40mQiQSh2jb2lw0GuNJu93ym1arRZfaNgBw9YVcA0DSF1K/bJ+YVCRNZ7Npz8gkYolcItadLC6rb2xqbTTo9d87Sc+otCT5jfNmXJc0dmQ2XxYnprM5LGDS6IAjYEHenb41jlzRTwMI6SXB4XKBwWCC5hatd++hPNem7XuPVqnrPq1taNgYGRnpDuEGj4+IEOa43R5XS6t2OI7D/0RS6bedCQDuV9LrpcH0SyBB3kTRNM4js2NSH7lBlBEmZHB66fWv7WZdpBe+qc33fltbsFfrtjxRUV2dBxxOZBiH82pCgnKBSCxmIeCor611LZ87xblk7nQeQeCYLw+Lw+P7h8DEt/kIDDA2DbwoGBGoi2wnl5LkofxC+PTbjbBy8TwYlpl6kYaD4RhUqmvgt10HIFEa59m671Dp0RI1N14ija+uVpNGg2FHWGzMo4f27Cnry5kKAElfSv/ivqVSaSbmpW7yet3baOiKygVGOkWvUzWrEFUJzmAwFHw+d2JGctJ1qUr5mES5hFQq4vmRkREEi8WgWEwmTpEkcvigLDYb1taqhbLKalupqlZbXVOvr6quMeB07MGYmPji84ACT4EUlA8IHPHWWRhAMkUQa9RqtbF/SadvRtMfgQQXi8WjpsckfX2ffFSsmHN58rS+EdnA6lXrtMLH1Ycd21oqfjJZTf+sb2+fk5CQuCohUSlEtCjIXtHc1OTNTo5vffaBO4QcNpsJbi9QFvc5beTcGxM44EFMAFrnHB3UtQ2w5/BxmDImF0TRkZe8lkSGeHRXbTJbqX+9usbeZHaBQCBA6YRBVVlpd7vd34lEMY/v3993OUkCQNKv1jwhjY9fhmMY7vR4vqqvr/clgLtEYQUFBcWFCgRvx0qVYQyc8oDbGs7hMNujIkIJr4fEdHqjWWc06m12J47TuRJRUlarvrXe1VBZVKTSaJ68nMcjunL3YsT9ALR1qlpVSV94EvarGQGAfgckSBuJIJhfPaocN39SpBK7UuBafxNmfx0PolN5o2KPfW99+WteDFualZUdH8z/00PFZDKSNoPW/PHLT3Ol4hgaZXcDZXNfMsMXxmMAxvIdzDosPq8tFNGOrsh8CbAv/Qi6RTtxqhRWrfmUZAWH4jT6acI8k9EIp04VUV6v5wORSPSvvsqUGACSDqfabxUUCkU45Xb/gyKJb9V16uMdfcSVMvkHWRPnLRGERZUc2/1LW11V6d7mtrYfz4AE8gA0pyhTbksYNOKJ+MTM0PKTB6vURYdfrdRoPr/cS6FvFOXx3AkAtVUazcaO4rX8Jpw+7KjfAQlERnInhoqOvDvk+lTEm9W/M4f04cx1oWvEibWjpQKeydtkYkWHMZKTUi4gKEJeLDUaNbV45kTy/lsXElcEkiAEJPROUZ34PGecXqBcXkBpUTEadvpZ+oVGULvDCe9+tQE27T0KMSKxzxvM6/X6AiER11dFeZnN5XK9x+GwX62oqPB77ocAkHRhsfVuVUwaJ52P4ZQcN9HeU+lUVwxQjYmJ4XAYrBeTs8fdJk3NCjJqm08d3/1Lvd1k+tpJebYzGAwvTpK5keKE1SnDJkjZ3CDasd9/qG6pq1rrIsnVV9B28IQ46UQKI9MJFuuj8vJyxLrwty79D0hEIva4oLCNq1ImTxwUIgoEHfbQ8kS8XMsOrANHFJ+Kj5dcoOn5aNu1bRTucZCrn32MSBTFAml2Anj/AuMEBsCjg9ZkhmAe1+eLf9lCUUDZzthZzufXouGAcxkXgMmhE6fgubc/Ajon2Je+F42ntbUFtG1tIJHKfIBSWlKsMVrMj7a3tv6C3AB6SCydaiYAJJ0SU69XQvQomIdcRWHUdnVNzZYraCOYVCqNwClqGlBwY0Lm8NTEQaNEGIEbdC31B04d3NFm1LWewgmcCo0SzVcOGT1UGCHCSMqDH9m2oVLbWFNNYfCJ1eHY1tLScklmX7lIrqBo3sWA45+p1eraXn/5ft5B/wMSACJdnrBkbkz6h3fKhzN4NEZAK+mBReTweuDWg+vAFRsCUdExF2kUSCuprq6CnLRE6rkH7sCELC4gzeScPz6BAc6mgxMjYd3Pm2FU9mBQyuIvOTKUSAhdZ+F2L0pyfVEdpJVgXLrvqqu6oRme+s8HoG5ohniJFJDxFAGJprqarKqqtIvEcezERCXe1NToqCiv+NDtdj6j0+n8SpUSAJIeWIA90IRMLBsKuPchCscfra6ubrlck4mJibEeh+sWxMqDUrYnDho+NXHwyEzc57ZFmaxmY4G+ud5Kkh6OMFKcwuULwxCDL+n1Ukd//3FXa536IIYDByjqMJPL/a2kpOQib0EEajhJ3kNRxJGqmqpdPfB6A7qJ/ggkEBsbGyoPCv3sPsWoGRMjE3DiGs0t4s+VU2Fth7v++AbihmT4iBT/antC9gy73Q4lp4rgzpuvh7tvugGYBAGU+/ThH6MTAAQObo8H3vxkHXDYLFi+cA7wuNxzbfnacDjgk29/hsGJiZCbmHSxwR41xiCACGKA0WaHVWs+g4079kJKahrwzrgIo7HV1GgsxaeK8sLDw4cOycrmWcxmU2FhwbrGxoanAMDgT9kFgMSf0r50X+PGjaPVaTS3A4Xxqmqq37jMiDCFWCEjCc/9GEk2Yi7XZ14m81ZlxohliUNGJeN/5jWgAMPI0/6HGA4U5bPeUSTpyd+98YeGmrLvgCTqMJxaCUD+WFVTg0hDL9CCs7Ky6Pr29vkoIFJdU/Np30uob0fQL4EEiSRVJsvOFIheWS4dNnqIQET/u7L79sTycFFe+KzqKHzbXgZi+emrIg6Hc1HUOgKCurpacJoN7uceWolPGJFNMM4Yvs8fR4VaA59t2OijlBiTkwVCfjCQFAmI3G7/kXww22ywcsFciObygbqkRkIDLxOHTXsOwrNvrYWoGBGEh/8Z3IjsI+XlZY3Fp4p/kMtlN2cOGhza1tZqLSwo/FCn067yN3ljAEh6YhVeXRuRkZFcLov9AoVjP1dXV5/OiftnwdLj4gR2HB9DkTAXKNiDMWk/qlQqs0IieSZj5LS7xAnpkdiVkrb77skob3n+wX2qkwd28sPCXje2t2cBBSspCo5gDF97yD539r4Xl0skkzGAXJVGg9bk39qc22+BBCE+bnRMHRoqen6FLCdDzg29NlMeXt3+6vBptLrzDQ3wevkegNgwsFgsYDDqQalM9iWfOr8gTaC8vMxdV1u3Ozs9MejB5YuzJo4cxiCQ59V5BRnv6xqaYM+R49DY0gZO52nNn8thAz+YBzPGj4bYiHDf1Rjl8F54jUbgQLII6mBhoXfNl98TWrMdi46JvYBuxWq1UoUFJ0u02ra85JTUeQpFQlC1Wt1eVFz0tM1iQac/vwYmBoCkw2XW6xVkMlkc7vW+5KKo+2tra/VnO0QZUk/EH82gACYA4BygvLswBiMPBd/GxcWFcDi8tbmT5s8XhEd3OEYMgNS3N9ce2frdUbvL/qBGo2lVxMUlURi2CB1eCAz7tUKjOZd/RBEfP5gCWMbkch+71PVXhx1eQxX6LZAgGSOvi1iuYOHwMMkrK6TDIuM4IdeQ6P3zKlavG96u3A/7nC0QEydGRmswGo2QPSzHd8V1fjGbzXCqqNBAUeStxvZ25+D05Cdvvn7aiPkzrqPxebyLnHddbjcYLIh7y+njP2OzGCDgceGcFoPcfl1eANcZCgoaQbpx0vDL7r3ad7/aIPDgjFCROJ4gzsv1jg6N1dVqb0ND/e8Ou9OZkZExLUQopJWWlTQ21tffqdfrf/P36S8AJP5Zq1fqRSaTJeJe8ll+WOjSM5QkhEQiCSdImA0AKQBYPkXD9pxv+FZIFLmR8fKvMkdMkTLYHDjrYXKaNfySWQ0xt8vhPPb7j8e1jTUvxNXW7kVjqo+NjQIabSoFkESS+Han13kgOjrabWpvT/UC3IbTaP9SqVQefzuB9P2s/DmCfg0kaJgoBwmdJFbOiFW+cp9iFDucyf1765BdWD3oOvCovh6eKd0B7JhwaG5qhCA7CRidDmGJUuByL6Qtqa3RQE1N7YH09NQlW7durWUymQnBXO6/5k0dP+u+ZTfzk+VSnCBwvCv5SdBwEQKRJOWurquvfujFN+r2Hc43udzu9uzsnBtjRaKgszcO6H+bzQqFhQXOEKHw85amprghWUOnEQQNiouLGlhMzsqiopObuyCCHqkaAJIeEeNVNSKPiRFjNNobpNv9C5BkIdBoIzEMnwMYtJAu1w+E21pF4hj6mPsK7nDSvDzhojhlxi2y1GyD1+NyuF1ONwUURrrdNofV3EwhfhScDsBgeAFwoDPobIKghZbnHxBYTXozRtCOUxh+uk0cZwBGKIH0JoDL3gweRzEQTCmweUqKH3oYjO0nSFP7Zk1jY+XfEVD6PZCgOQwPD+fJ+ZFP3CQZfM/c2HR+MJ3ZudDqq1q6A/9hlEvh87p8WFtz1Hd1FIYzYY44HX6tLwaeVOSzk5wtXq8HKisqwGAyvjV3zpwn33zzzbMRw8FcFuuezGTlshunTxGPGJJJSRPEOI/Fxug0Ah3tCJRP3bcpMfBiFOalMIoDgBHI1oG0lbqGZs++I3l1H6z7vrS4svIgScJ3XC53wZCsoU/GxMTyzqemV6kqweGwN4dHRt59/OjRkcqklPuioiJZ5eXlWmVi0hMxMZFfrF271u3P2QkAiT+lfWFfiGDUSWePBH7UbRASeR24XeFAekhgBZFAZ7jB42IB6SP1+fObgLi0WFwAGh0R++CA4WfsF6f/Q5XPEffRmCQEhzhQtTOHHkSfwgGvGwM6w2eL9xWkNbODkEUeB20DgKGVBIKOQWwCBpwgCrQNHqjIK6RaKp9TF+Sjw87fKo/7gAASNI9pcrlYzgl76gZx5s1TopRBTLxz0dV9twX6vmcEJO9UHYTVp3aDIkoED6eMh5bWFvjKUAZimcxnI0Efe4fDDujUX1ZWirbYKxaL6fmzwVgikYgtDYt+aKgs9eH4sOjQRkOLkxaEW8LCQ6wykcgbHxnN4XBYJJfDtngod32rSd9CYWSOze6Mq2tqJsqrqlvzi8vyTxSX7W1ubUdG0nwulxsSxOe/lZ6WfkNoaNg5Q43Pa6ykGCIiI39JkMvu2rRpUzybzf4wOiY202g0OhKVyk+Cedx/f/311+fuyP0h5QCQ+EPKl+wDl8tTx0JS1mvUsGmDISaB8H3YSS8AnXmaA+5SdAkISOgsANoV4pzOdddNG7nnzFmGdmb5et0AVQUktmvdHqrk5DJ1098rtmTAAAlSLofKk1PieSEvL5FkTRsbLkenjT5b4QOhY2QkX686Bv93Yis8kjMDsoKi4OWi7WAXCX1eUkgTQGlwGxobQCwWg0pV6WLSGEdsJvO7NDtz86J7F1m3/fDzgjFp2a8vHTdHHCUIA53JAJWNGk+tttlTq22haARGOFwuRITntNitbY26Nj2NSaN0VkNFdVM9ZbU7o7UGw2NWq1V1hsGXZDKZU+Ml0ndTU1NlTObZIHsMkI2moqLUERkRcSeNNvFrs/lXhsvleUSvb3+aAmAkKJQno6JiVq5f/1WeP+UfABJ/SvvPvlAYADtK/jU5/Y6JkDqSAIJ22jcKbfvzg1z7Znh/6RUDcNkB2/mVHd++dnZlY+vOfjEsPw1iIAGJ76YyWSIZlhgctfbBxNHpQwQiP4lpYHaD4m92N5TDT+p8WJQ4DD4sOwD1fBykcoUPRNB1V7VaDWp1FSSnpEBTU6OTQWe+ZTEaUOxWHZ1Gq06IFL/+3MK7lcmxsgtQ20uRYHc6wO12A8rfcGaH+453BEE4GTTa0YrG+g+WvPvEaALD9g7Jzv5+w4YNqCKHxwt6e/DgIUtjRaJzaiUaj8lkhNLSUmdYaPhN06ZN/mXVqlXkvHnzZBpNzfdqddUgiVSmk8uk9/zwww/f+XNGAkDiT2mf6wtTSBW3UEMmfUjNfZgNjAtYffpkQB12iuOAHfgR8HX/nlmpNSGnkL9NGWhAAigwSaVSTZ4QqXjjPsWoxAReGN6Be7hfJhN9WN1I5T5PS6LhOKCPeV/pTUhj0zrMcKRVA1uay6CC4YQ4mcx3I4B+I2g0KC8r9cWOxIrEYLfb0IHvGRzgS5fNcW8Ilzfz8TnLkmdkjQa8W0GhWMUvx3bteumHj5l2h/X/VHV19QRB3BofL3kmOTUt0umw00NChAh4fHPkdDigrLwUQkJC/5eZkXb/+++/j66wiEFDhjytVlU9GB0dfUKpTH1s48YfTvhlUs90EgASf0r7dF+K2FgRRMs/JRf+8zqQpPl/AN3pEScAO/gT4F89OatSa/61O00M1GcGHJAgQaMYE9Jgu2lyVMKzt8RnSUUcvl9zuKM4CmTfs3tcoHXZvFqnhWxxWLxGt91KAdiBAq8HKFowjRkSyeLRY1jBNDEnBEPA4s/iy+HuMMOa8gOQBwaIjo/z2UQaG+ohNCwcQkJCoLS0BGxWK2AYDiTpBbPV8v6oESOeaFXXLp6UNuyle6fdxGfTWd1OKubxelte+fmT8h+P7Fynqqmp4PP5/83Kyk7h8njMysoKLDY2Fvh8gc8lGaU/rauvQ2BWJY1XzP3llw1FAMDHcXwpjtN40dGR2+Vy+Ql/JxMKAIk/Vy0AMrC7vPgtVM6Ml6lpKyN8V1oDoQSA5OSUKVN+R843aLrOHaApisK2bds2kSSxQdOnT/lPf5pLhUIRHMfgr5wcmfj4InFmRAiD0+2PXUfv5RMIhoHV7YJWpxlqbAaP2tJuabAbLEa3s6LZbi52UK7yMCavjcAIq9Pt9trAw3C4neEMGpEoZoVMvlE8KG2IMBbx33bUXY/9jgDvi8rD8J2pCqJk8T7jemVFOTQ3N0PmoMEgFAqhqqoKHHabk0ajW2prNXyL1fprTtLgVxNjxU+vmDh3anpcAnE1VP44hlOFtZW6Vd++n7e/+LgzPSNzokgk5qC1ha7UUImPl8DJkycAuSuHCIWg0+l0knjpypEjc39atWoVEhjivEdBiChLot+9YQJA0mNLslMNKePjpR5J+hsw465ZlDQDka916rk+rxQAkoEHJD71V6EIjyE4T82Py7xzcVwWi4Zoc3o4ygRdTFm8Lig3t8LOlgrrkfbaIhflPWlxuo/awJFH0mhNRqPR3tLS4nwWgERcCecVLCYmhhnG5EzMDZe+8Wzq5AQu0RlPkqvfEujra3Q54M5jG4CMj/BpHyhZ1InDh31/S5VKX0AiMnBXVamqQ0PD3isrK1FazGbemEE5+bOGjvnHLWNnhvFYV5+d0uKweZ5b/555b1UROyklhYUADYFTdbXaRxOflJQMpaXF4HQ6gUbQkBeZURQvffDB++5Zt3DhQr8y/V5K8gEgufr12IUWiISk9BvJ3NmvURMWx/rceAdKCQDJwAQStL4kEokkjsV/43Zpzuyp0UpaT7kFI5uHxeOiik3Nrj2tVe15utq9Gpv+NybArtKamqaurG1ZtCwuKyL6ozcGz57Mp6Frot4vCEj0LhusyPse2AqxL2akWqUCZ0Mb8GIiAOexwWqxgEwmh/KyMpPRqH/cZDJ9x2OxEselD3v5lrEzx41KGox3zzZy4fu1mw3w1Pp3od5lgvCI095iLpcLCk6eACaLCSkpachjzIvjWLu2TRtisZhNSqXyjsmTTxvce19aV+4hACT+mwF0OIQY5Tvk5OULICELO+3iO0BKAEgGLpAgTy6JRJKRGhTx8gpZ7oSRoRIGAz9tvO1OcZEeaHPaqGJjs+MPbbWmxNK6T21t/81ssx1paWlp7UabWGJc3ITZoswPHlOOVbCIC/mtutFepx+xelzwwPGfQB/BBUGIAMqOn4R4Gg/0YWwICwuH4uJTkJiQCA6nw1tZUf653W5/dHjKoClDpMnvrJx0Q3hYUNfSHJvtVqjVNoEsUgxsBmLwRoTBOOwuzoOXNn4GwVHhwOPyfNpIY0MDss94U9PSCOSKrKpSmU0G45ftOu1Uq8XSHhoauqilpaW60y/bixUDQNKLwr2waUyemDIVsqd/SU1aEgbcrq0/v43yCh1h+zcA/s2qgLF9oNhIzp/LZwHwnxJSsocKot5YHJeVOzgkluiKr5SPwgMAamw6OKqttZ80NlaWmlp/aXXZ9ujt5sLGxkbkPdStK5aoqKhwcZDwH48px90zJUp59fdEXdgtSPP5pPIQ/M9QDmFRkdBUroL0oCio5eOAnGJKS06BlyRBIpFCSWlJidVsuiVZJL33sTlLl09IG4Z1nnGZglptM+woOAQekoSbRk2DYPbpKwkaQcDqLeth/fFdIJGezjeCvLMKCk66bTabM3f4CC6dTseqVJXGsrLS1Xa7fSFFUSjN6ZvIkasLr9trVQNA0muivaDhlPBwnkOR8SlMv3M+KIf5fAsHVPG4Adv5JeAb18yq1OoDXltnJ68/G9v/usDGwTiaQ9k6PVco+c9y6bAECVcIyNjcUUFL1exxwd62KtjSVF5SY9N9b3M5v29xWVT19fXoQ9btqxXEPhpKY90/NSb5zuWSnOgIFve0O4OfCgLTY8YG+HfpDrDQSOA5KRjNF8Nuqh1kMhm0tDTDyRMnYFhOLoohadE1t3w2PXvsvEdm3ZIYHx5zUc6Svw77rNv1vpLjcLDsJMSHR8PUQSNBwA3yXV/58pO4XfDPdW9BmbHJB14odgVxepWUFHuRkT0hUelTH1WVFa7CwoJCj8fTCAAPA4DaT2LqsJsAkHQooh6poFCmzCHTx30O1z8gAMaFhKI90kFvN+JxArb9C8B//XBWpVYbAJKBCCRozIgtOJwdvGRKVMKqO+UjIkMZV1YAPBQJdVY99V1doWlHa+mPTtLzblFVFYpR6C54YCkpKXS2w8G247golOA+OjVaOW+heBAfkU36u/gM7qQbVqv/gB8qjsHwcAmMCJPAx7piSEhIBINBD3v37IZhw3IQ6Jorykor75+xOOO+aTfS2B0EgHm8XmjSt8HvRUegpq0RJmUOhxxFuk8DOVuQRlOva4WVa18EujAIhMJQn23kRP5x0m63k6lp6URYWBjmcjnhVFGRUaOp3ulyuf4PAPwaJ9LRvASApCMJXf3vcrk8AoSxH1ALn5gL8SlX32BftBAAkgFtI7lgyYhEImEok/vwfHHGfTeLBwtCL/MBN7mdcLhd49jZUll63NDwucNuWldcX69DNhdQAB08l9OrJSDyeLBgZzDRSrViHo+HcDMYzFAWKyyWESRi0WkpkSz+0HAGN2uoUCybEKmgB9OYfjGwX27vNNpN8EPVcYjm8IHJZcN/NIdAIpdDW2srlJScAkWCErgcjrtGpTK8dMsD4fNyJ/mSX11KAzkLIAU15VDZVAuINmVMShZEC8IuSpSFgKSsQQMrPv4/iJHEAYfD9WlB5WWlLWw2m5uSmsZDTgD19XWeyoryTTab7d8Wi6X0KoC8Vz4fASDpFbGea9SX/VBruoEaOu1NmLw0unMcWb07pm61HgCSawdI0AJIkUiiwlj8xxaKM++aE5vGDfZ5SiFyWgA3RUKFuRV2tajajrTXbayx6r6gOy3Hjzc22oYlJYWanc4hYUyekktnX9JPF4UUsnCC6yUhhE2jsVykV8jAaWwuQQtV8MJipbzQCBFbQI9kBdFDGGyg+1yS+76g4Ek6TsBWrQpeLN0JYqnMRyuPXG4RnTxO0Bw0m4v68O5/s5NiZb6Mh2cLin1B8msz6SFfXQql9WoIDRJAtiIV5JEioJ8lrvvLayIgKalTwz1fvgaxUokv7hiKwgAAIABJREFUgr20pAS02tbNQXxBYkpysgJxfZVXlOc77PbHDAbDfgA4RwXe91I7PYIAkPTuTChiFSJQprxMTV15IyXNQL7hvdthb7UeAJJrC0jQOsmQyyNiWaGvT4pMWDAjOpkdwwkGk9uBbCHejY0lJ+vM+rc8NM+Wo2VlyJBOKeLiUiLYwY8MCYmdlC2MC+HTWJe19GEAuBeAFsrkYGycRguhc4BB0ICBExgTJ7pJJ9Jbq/t0u+hlHKQHPqg65FxXe8IVEhHObW1pwePi4kGv14PZbHINjUuEj+99jsE4jzUVgYjZYYVD5QXwR0Uh8FhsmJSRC8roeGDSGRdpIee/BXIdPqkugxWfvAjK1FRfVP2J48coBp2xz0uRsojIKHFjY4OJTqPdX1VV9XV/BJEAkPTuukSOffL0rFnU4En/hYlLpD6q9oFaAkBy7QEJWotyuVwcirPui+OGzBWx+NwWp8ldZzdsa3Na3i2vri48u16zEhPDgmjcH2+Lyxo9LkIBoUyOj4uqo3I2qcHVRH531EdP/Y7ep95ugKdObTlZamwtt5Oe6WwOh5eoVJYdOngAcJLiPjJ3GfuhmYvD0bUW+md3O+FUrQp2FB72DWN8ajYMVaQAm87slCMDApL8qhJYunYVpGdkgslshvpKlVcUGll9pOJUGI/HdYnj4tbHiTOe2bBhrbGn3rWn2wloJD0t0T/bQw4ptLjkN2DS0tsgeTg+oOJG/iqWAJBcm0CC5hkZ4N04HsMhiAiHw2Hyer01Wq3Wcl66ViwnIeWO0RHy1Y8rxzFZOL3Ho+N7bxt2vmXEDbatqdz7evmeNZq2xi1Wh+O/SUkpjoSkpA+2/LrxWEqc/L5Xbn14YZYsObjVqIPKpho4VVcFDpcThshSYIgsCUK4wT4NpLPAia62ShuqYfna50Eklfqi6AVugooVhtvXbvmujSCIf48aNWrjzp07+y2IBDSSzq+x7tSUJQ+ehA0a+wU18dYYCA7tThP955kAkFy7QHLeKvNlMbjEqsNzE1LefW3QrLsy+DH9Z1H28EjQtd7LZbu0h9vUN51QV1YhIkSZLHHXhAljjm3dupUpCY95/YGpN95mdzlpTYZ24DHZoIyRgDJWAgJusI8Hq6sFgU5NezPc/sEqYAv54LA7YEi4FKIEQscL37x/xO5w3AMAJV1t19/1AxpJ70gcxY0445M+oqavXAipo1Amw97pyF+tBoDkbwEkl1tO+HBlxtr/5dx0u7ADd2F/rcee7gfF0+xurfSurjzwS43DuFij0SBLOjr+6SIjI2lcFmtKEJv7+KT03Owh0mQiIz4BYkLCgcVgXtEG0tE4EZDobGZ44IvXoVrX7CONzIlJhMRosfWpL1fvN5pN96MQko7a6evfA0DSOzOgUCjnkOmjP4U5DwqBE9w7nfiz1QCQ/N2BJG3t1zmLb0cMwgOjUOA6457bGTqYWpsBPlYfrtrTXrO4sLIkDxFJ8ni8EI/TORYHfDwFZIwyVip8dfFDmQnRcWyktnX2+upK8vJ5yZFeWHtgI3yy/QdwezwwUpYO04eM0r3y4ydvnigvXg0Apv4u8wCQ9PwM+eJGWLz3qZufmQcJQ3u+g75o0e0E7PevSHzz+7Mrm7WBxFZn52AgRbZfxbrBhysHDpA4vG4ot7SBym3wGbyjMDakB0eD4BKRwOhDbve64fuGItMv9UXvqM3Gb0gaKcVJMhEAIgHwVhKHo0wgWBPScx7+94KVY/gcXo+iKboSO9lYBe/s2AAH8o/AcEUaLB4707Jm89cvb2vc/ybUg/0q5s4vjwaApMfFTFMolHPJoVNXw4y7ooDZo0uuxwfb6QbdToD935vxrWtnqzSaPZ1+7hqoOCATW/Ww3AcMkCDPq/3tajjFMUPG6ExgEjQo3HUCIkwETIxQwPmEkAhEnKQX9rWp4UvNsfoqa/smJ+lpI0nQU4BV4aS7lBkcXFtSUuJKUySNu3n01FfunLwgk81g9XhOU6fHDaq2evj54E6oqKuGJRPnOD7c8d3bRyuLX2xra0OOD/26BICkZ6cnUSSK9UrSXqam3bEIErLplzZd9myffmnN5QQ4+JMOtn04R61WH/BLn/2kkwCQAAwIIEEgonPZ4KOmPJhz81QYPCrTx1tVeagUfv1iM8yISIYYdjAg2pdWhwVOGZvgpKER8vR1unqb4XsX5d0MNNopAGhTqVTW80go8TRlyvyHpt30xo0jpsYQiK63lwqikz9WXgRBPJ77o50/frSz4PATOp0ucLXVS/Lup80SipRBM8msyW/BpNskwOb102F2Y1hngATbvnZ2VVXVwW60MGAfCQDJAAESAsNgS1MZ1HKcsPKBm4EbG+JbdC0VDfDp6+tgCC/GFwiZp68FjVUP4QwuqG16T5W59TXKxv2/443HUXbBiwqip2hvbF72yMxbX50//LqQXsQRX2QOhuNQUF1GvvrL5//bVXDkAYPBYOjvuyegkfTcDEkkEgEek/gGTFm+FJJz8QHH8HslUQSAJGBs7+/GdgQkG+oKAY/iwo33zQdG6GkSSHVBFbz9n8+BSeKAiCGTgiJ8mskJfYP9m/qTm+t15rtVzaq2y63/rKwsOuZwrXxoxi0vzMme0KtAgsaAbCYFmgrtq798snZf8YlXtFqtuec+U73TUgBIek6u8tSMCZAx4Qtq0m0iCBL2XMP9oaUAkASAZCAAydbmcqhjOWDFvTcBN14IlJeEzeu2QeG+ApgZmQwitgBclAe2N5dbv68r+rXU2PhiVV1d8WXiZ3xbLysriyMPivi/ZROuv2t08hAWui7rzYKAJL+6TPPChg+/PlJR9Grgaqs3pd2/2lYoFEwqVLwGpq5YRiWPoEEvrzW/v30ASAJA0t+BBF0LtTgt8Gl9HiyceR0kZSmhrbYVPlz3I0zkSSBLKAKUHnhTY4nru7qTv9ZYtc8XV1cXdcSkm5aWFjlMnPS/+6YtmqCMkWBnc4z05iasbWuy/Hv9O1t2n8p7SKvVovwj/boENJKemR5FUto4Km3MV9SMO0UDMfthh1JAXlsHftIFbCSn0y6dC2EOuP92uHT8XmFrcxkcNdRBNE8ApfpmyBXEwVxROlAUCb81lVLvq/7Y3uKyPlxTU1N2JU3k7MAnZecuvC5z1HtLx80ODTqT1bC3X8pos5Av//TJH1vy991fqdEUdGacvT2mK7UfAJKrl36YUhkkoHPeIhc9tQwSs7tOk3D1Q+j9Flx2gH0bdNjvnweM7QEg6f31djU9OEkPnDI2Q41VBwlB4T6biNZlhR0tFcbv6gq219oMq2praxHtSIdc3LNHXhfDoOEf3z3lxmm5iZl+48tzedzUhj+2677Yu+kZO0F+dPz4cffVyKS3nw0AyVVLGJfLUydDztS11NTbxcDyf5K3q36DjhpAFEIWPcD2z3VY/ubZVeXlAa+tszILaCQdrZ6++R25Ap8mDqPATZLwe2slfFp99ITG3Hp/eW1tpxbwtGnTmLjBfn9OYvqLKybewAzhBfdINHtnJIKi5k/Vqbxrtny9Pb9etbykpKS5M8/1VZ0AkFyd5BNjYsK88kEvUNNW3O6LGzkv183VtdyPnkZAYtYBbPtUh538fXZVeXGn9mE/eoOrGkrA/XeAuP9ebpaR2qF1WpBGYvq5oWiL2tT2lKquDuU7v6xGsmDBAsJQ2zJFJAxf/fjs2+SSiNirWkTdedjisMEnu34y/Xp033P0UN6aPXv29LuEVmffKwAk3Znhc8/g0uRBE/HMce9Q01cmXpPaCHrVAJA8huNUwNje343tHW1ldMr/vU3l/bDyjwMqh/7B6tP5Vi4JJtdPmCan3O7V905dNGVU0uA/k6x31EkP/65qroNnv31PU9ysWVJRUdFvI4EDQNL9iU9JSeE5gqJfxCbdei+VMYY24Bl+LyeKAJAEgGQgcW1deUtTsL210r2h9uSOSlPbcyfVFfnnRbD7Hh2XnR0VERTx5OTM4cvnDpvAZTOY3f9KXOWTXpKEbScPwie7fv7Z7LY8eiAvr7oztp2r7LbLjweApMsiO/eAImnwcCot9wtq8nIFCCKuTSN7QCOBwNXWAL/a+usWR8b4Pa1Vzh/rC3cU6pufLa1RITDxlZtnzAhxW73/yFVm3j0/9zp+ePDp6Pi+KsjV2Oq0w/oDWy3bTh78wKw3v7Gn5Fi/s5cEgKR7KwTFjZCCqDewSbfdQWVOYABB615DA+GpgEYS0EiuHY3k9I5DDMH7tNWutVWH9jfY9beXVlfX3DpxbqjBZXkyMy5hxa3jZgXHCiP6zfZsM+mpL/ZsbN5R9MdrntbmDw/V1/crRuAAkHRvqSSKpaO9mWM/p2bfKwOBH9eb1wPgdQNcghG7e2/SiacCQBIAkmsNSNCy91IU/K8m37OuJu99UZT4ZQ/pfTghRnzfA9MXs/taE/nrtkSGnOqWenh/24aGvWX5j5wqL/m+o0DKTmztHqsSAJKui1KpVAZ5gHidmvvInTB40mljtL9KSzWA1QggzfRfvwEgCQDJtQgkaM+a3Q54W32wTUVaizJlyYOWjJkhjBVG9suc9MhZoKReDZ/t/rnuhLr8gTa7cYtKpXL669tzpX4CQNLlWcBlMtkELHXs59Tch2IhKARlSutyI916wOsB+q4vASKl4E4fFwCSbgmx6w8FbCTXmI3k/CVg9DrhF6MaLHw2zM4eB7JI5Obrx5NhF9cjApPSBjV8svOnUyeqy59ttug2azQaRxeb6fHqASDpmkiTYmND3bHyF6kpd6yA9LG0TsTGdq2Dy9XGMMCrTkDwni/BkTUdHBkT+wRI4MTOOeqKkn7rhdgzwr6wlQCQXKNA0u5xwHctxcCNj4WZ2eMgkh96VfnXe2PxXapNkiKhQFNOfrFnU1FRXeUqFw37ta8j3wNA0qXZx6UJyROxQRPWwIy7lH7LxY5hgNnNwNvxCQwX4nAkdBAYlSNR3oIuDb7blc9cbWHbP2vB8rZfr1KVHu52WwPwwQCQ+IAkY+3XOTcNoJztV15pBo8D1rcUAxYTDssnXg/cAZbKlCRJOKkpoz7+/afy6ubaB/aezNvRl3srACSdl75CoQiGENEqasrye6j00Qy/fcjREMuOwEJXMSSnZ8BqlQv0ilz/AolJB9iur4qJgz/Mr9BoENfd36b8XYDEl1PpTIzCXy9r8ezE1NXPp06+Z3iopP/e+3RySVq9LtiiVYElSgCLxkwHPjfIb9QnnRxip6qhGJOjlUXw1f5fK2tamx9Oi+DvXLNlS5/YTAJA0qkp81WSJw0aQaWO+ASmLlMC349xI2YdxBVsgpcXTYQWswNeONYK+gT/Awns/KIAdn6yQN1mquy81AZ+zWsdSPC4uDg+HegyIZsV3mI31zEYDNVfjLjYsMT0OVkh0V/+UzkhKMTnMngWc9AE/4ktf0WZPxEJsV71ffGQJOxoq4RGPh3mjJ0KyMW3P4yru5Lxkl44qjoF3x7cpmoz6Z/L5Et+em7T2ktmeuxuH515LgAknZGSL7cN3UgEv0JOWHwPZI5n+S1uhPQCo/QgzGO1wjMP3wtbdu2HF/O1ASDp3LT1SK1rGUjw5HjFIDFXsFTBCxslDQoVFOgaasrMLd8bXZ4tlbWViI/KV1D6Twmbv2ZmdOoNuaHxbBGHDzQMB5KiAJ3wkSutm/SCE/mnnykMnAAmQQMGTgMOQQc2jQ50jAB0x99XH+8T5mbYZquHhRNnQaJI6ku9O9AL0kxOasqpDX9sK3Z7PP8eFB30251r1/qVLTgAJJ1bRfK4uCwqa8o6mLoiCUKiOvdQD9TCzO0QX7AJVi2cBKNGjoCft+wMAEkPyLUrTVyzQJIQFydL4sd8ulCcOXJsuJzGpTGgzqajtjVX2HY0l+c1O8zv6Zy2XxsbG30n3Gy5XAw4Y56IEzJbxhOmAAU8Gk6YdE4rggaDzeNuN7psXoKgteIUeBg4EcOlMYQcghFBJwghl2AwE4PCven8KDyOE4LRcf9SWJlJN7xdexSmTpwKwxMyBoRhvbML1ev1wI6iI+TGvD0HIoVh9736v7UoYZffSgBIOhZ1ZGQklxcetYqa9cDDMGgi7re4EQwDetlhmE/UwqN3LYeQkJAAkHQ8XT1e41oEEixVLpfHsvj/vU2SPX1ypJI4+1FH5OsO0g3Fxhb4ralEV2hs3G70OD/SeZ15KpXKvAAAPxUfH+Gm04V2u53OJggXk8EAJ4BT73A4MIeD9Hg8dhqN5gUAHsElWEyKybG53SwSvKHxnJDRUazgEVJeaOygkNiooSGxPBFbQCDtpTcLDhgcNTfCTm8bPDx3KQSzOH2mFfXWe5rsVtjwx3b3YVXRa4r6yudXlZS4equvv7YbAJIOJY3J5fLhkDJmAzX3wRhfLnZ/xY14XBB38Et4eu5YGD9+PKBU0QGNpMP56vEK1xqQYOlxCdIoHv/pRXGDlsyISaaxcdoFH9Wz1g+Lxwl5+nrvgTa1+pSp5Zdyq3YDm80uKSkpsXRXyhKJhKW124NFLJ6Cz2Bny4OEs2dEJ+eODJNyBHRke+mdgq7dNjaXgjoYh0fm3AocBuuaAxJ0CKhsroU1W76uP1FVNC2vtPRU70jz4lYDQHJlSctkMj4WLn4eJq+4m8oYS/cbiKC4keKDMI+qgsfvWwlhYeG+gfYZkKB8JDu+LICdHweM7QM5Q2KKRBIVxRI8Ok+cece82HQ+h0a/4g5ANpBWh4XKN9Q797RVlRebm39osJs3SCQS1VXmx8CysrJoHq0xTRQc8uC0qOS5s2NSg/n0nv/Ao4NfsakZNls10AwuWDpuDgyWJgOBD3z7yF8nD9lLXv/lc8+HO9bPb2lp3+gvpuAAkFxxG2GKpPQxVHLuu9T1D6YAO8g/no9n4jZiDn4FL982B0aMGAE4cVrz/3nrTnjxeB8Y241tKLFVAb533Q2qVmOVvw46/aGfa0YjEYlE7Dgu/4FpUSmPLZFkhXVFA0A+VzqXHXa1Vli3NlecrLa1f6FzOb7qgahqLEkiiY9mCZ75V/LEm0eExTOR4b4ni4v0wM+6CgidPhwEYWHw0zcbYGicEiZnDgc+J8hnKznfB60n+/Z3Wy6P2/Ds+ndd3x/a8Y+G5uav/MXHFQCSy880ihuhgiOfpqYsvxcGTeD4LW4EWS4L9sAw9Xa4ceECYLFY5wZ5oqwSvrOEglk5yr+R7bomgB/fbMY0p74FBrP97IAwktJ5bfpCp9N5/KxN1t97p7f7uyaAJCUlhUG4yZsnhElfWiHNjRZzBF2WG/rcuikvVJrb4NfGElOevu5Qu9P+ngn3HCdJUnsVvE9YskQ+58a4zPfvUYyK6ml7CfIk+8FSBbKlM2HixElQcigPPnjjLXA53ZCjzIRUiQLCg0J88SRMOhNwHANkU0EeXQhk/kSZ/uHCfN7EIcRFtijSQ5Iug9XUvOn43rov9v5qbTe2u7wYdrtGozF0eaK78UAASC4vNJkybSimHPYpNW1FGoTG+kcbQcNBHpSqfGC1aYDBZF5wm+bFCXCIU4GMlPiREggDcJgBKzlEgVFLUudJAgPKBbVlWmir2YxZjKtVxSdK/aVNd2O5d+uRAQ8kyC4hoDFnDQsRv7xcmiNXBoVflccS+noh+0mBvpEqMDToSsyth6ot+i11dv0+DodTU15ebu6qpGUiWcKwcNEnr2XMGB1M//Pk1NV2LlXfS5FwyNwA5SIGjBw7Fpo0NbDpx58hGGNA7ugR0GDUg6NZD3achGh+KEQKwoDD5kAwNwgE3CCg0+gUDSe8DBoNaDhB0eg0kk7QSDpOoxE4QT8NNBdqUZfUqajTOeTPncLO/HF+XQzDXBhgNAqoC+7dzovUIT2k1+FyO60Wh91sdlgNjXqtvdVlDipoVLk4kUJhdk5O3nPPPMtubWr7Z01TDdqQvV4CQHJpEWcB0PVZo56HsYsehKFT2dDBVXKPTxTK/Y40k78sSJ8Ojq52/ck4fPblSPLSirLFCFjRHjfkbfvGqNXcp+3Gd6TH5deDDQ5oIEEBUF69+bqhQvHLy2U5GUlBEYD34OJBgKKx6ckiY7Ou0NhQkd/esMvgcuwibKZjJW1tnTbKpykU8rSgGAQkY3saSNBaMLudcMhYB/WkDTgkBpjLC80cCm5/5nFgMZmw+e1P4Yv9W2G0KAEyxo6EFrMRDuUd9Roc1na5RF4dGREhcVsdNrPRyOSxOB4Ok0kIuMHBQUwOD6Eym8lysBlMBBU4k8YkcAyjsRjMc6GadBoNeCzueXYZCpA9g0BxLDhGUSTV7vZ6NC6PS6O3mOMpDFgYRWEYhlEe0kt3ulxCh8fFsTocTK1J317T3qxu1DbXtZr0dL3VlLrotiVRI0aO4CUqlVRwcHDNnJmzSk4WFT7R3Nxc3IN74bJNBYDk0qKRxsZm4hljvqFm3JMMEXH+mIoB3AcGYNUD7PyiGfb9PEtdp84bwC9z0dAHMpBgQ+RJQxKDI968S547YrAgluhZ68OfskKn/nanjcrX1zt3tFQ0lpha91tdzq2tDtNhGo3WUl9fj6g70FHkoiIUCoMjgwXL5oszn74/YXRYT19tnTsInQmaRB9v5OL8U0sJtMpDICw0DBoOFwDL6gZOpBDue/81qKuogueffsb7R1lB3rpv1++IFYkeqiivKHryiSeiXQ77lkce+0eUQBCc8tnHn+VXqirGDMrMrM8ZlpvcUFfXXnD8hIHD5ioSZQqcIj0cm8Vu0enbyaiQcFa4UEgjvaRbZ9DbrG4nj81mE2arBbfaraVN7a1VLozERHHxUR63y11bW9vmcDj5ySnJpjiRSNba2laSf/x4fPaw7Ohbli7l0hj0wg/eee9ofn7+xDlz59AeeuQRU2RkJLVv796yB+67P0pnNKxobm5u88dmDADJxVKOiYnhsJnsVdSc+x+B3Dm4TwMIlA4kgAF26Ccztum921WqcpRzp7c+WX6fiYEKJFiqPFUu4fJevV0ybObYcBnDd/rtxYLUZXR1Y3Q74JSxiTqpb7CUW7Rmo9tW1OKw7gMgT0RweW04RfPYSSfucLmYFtITGUJjz84QxEy/LT47QsIVYP5aOVaPCw5oq8FDkZAeHOWLwv+iPh+CMxVAeSnYeWBPu7qt+febbrkldOFNNybt3bWree2HaymcIE6t/+5bRXBwsOyZp58+tnfvXu/MWbOD//Gvf2Z63O7jC+fPtwuFYanPv/g8W6FIEOradXsXLrjBNWXKlLQ7774nms1i1k+fPHWtVCF77JHHH4+USqVUZWX5p8uXLHOmZaTPeO2N/8SFhobWr/vyyzc+eP/9yY88+ph8wY0L42tra7+98Yb5rOxhw0aveuH5GDqDYX71pVeObd786zrKS3H5ISHD2GxWnV6nkzsczoPxcumHV+lZ1+nVEgCSi0SFycTioaAYsgkWPRkJwmj/xY10etb6Y0UMsKO/msif31lRrSr5wV/OIv6QxEAEEixaJhOnMPkvLIofMn96VBIHRa37syAwQLkzzB4n1Nn0ZLVFR9bbDW4MsGbAMKeH8tJpgHPpNCJEwQ2nJwVH4BFMnt8zgaAxouIzqgOAzmWDo7pasHndUKhvrNivVd9vobyZPB5PaHPYdC6H4yAdpw1JG5R5YxAviF9YePInk8GwPjQi4vasocPSrBazYf/+fc1cLs8yfvyElDFjR9t27dlj2v7bFpAnJPAmT56UjuNE/YcfvK/iC4SCyZOvGzpkSBb30KE/Cr/f8F2hICQ0+IZ586bIFLLKTz/77FRlWQU1JGtwzqRJk8MKigrKd+/ahRwbjGPHjFsqCBHQDx0+tE1bV/cu4XCYnBxOBklRMRiG2R1u925/er8EgOTC3eXz1GLxn6em3H4P5My4so+9Pzdmv+8rACSDpk+f8p/+ME/x8fHRInbwk/NjM5fNE6VzUWxGXxakqSB2LZvHBU7Sc05XpWM4MAk6MHs5qr2r747Ga/I4YF3N8fJtrZUzddqGJhObHUSj0Wwoul8ikfBxkryTArARDMZ6lUqllcfEiDw4PY2GQInyFHlJBoHRqAkUeGMwAB1JELvROBgEMchLkgzSDWV0oDewBYwcHjcoTW/UN9udzr04jttoGHYdgeNTXC7PCYz0fEcChDDorFQP5dG5vN7jbrfbSBCEjCBJHuFhqataqtD1lb8UuUuKMwAkF4gFUygUY0jliHfghsfSgMfv6hL8G9cPAEm/ABKUB1oAtMfnxqQ9tCR+aJC/NZFrZQfoXXb4XHOsbHtD2axDVcWq899L8f/sfQeYVcX5/jtzzrn9bi9sv/fusrv0sjRRFAQEFlFjhGhiYiyJxhRNj6ag6Ymm/PKPJpZUE2MgiY0mFrDRBKQJC3u3997u3dvOmfk/cxcQcGHvVsqeedwHYad+881555uv5eQYeVD7PINWVFZZ+fop4veJOC/CJJc4HA4jpdQYDAaD1dXV4SyGwgmzo6ODut1uEVRR6Izk1NRUg8Vi0dxutwhpwoWpdsDr/RYgf1BSUSKcCtn48eOVpMOH2Vbgw6iYp4dgPq+k14HkQ/ILL3ZqT3iALbv7S5i2yDriYvZ55YTBDq4DyXkHksvS083UGnPbgqTc1Z9zzR4TMwxe4oNlk4ulfbWvA38o2bbrjYaKVUfKjlScOm+hRLUYDPeB863uigqR5W3IpQGXw3E7AbqNFsvzh0cwZtZA90cHkg8pl52dX8AnXv40lt45FfEidbNeIqeADiTnFUjELTkGxhVXJjp++Kms6fkuW/xxf+3It1Cv+SEFSjzN/DH3uy++WVVxd0lDSeMZEkkUVPWBIGPPVFZWHh4OujkznSslgujuUODZkdR1DHQtOpD0UG4+IFcVXPEdftXND2DGUsuI+40MdAMvmHY6kJxPIJGzsrIWL0jI/vmdrlkTJkSNEX4MFwxrXIwTOdhRx351dOsf36l1f6e5ufk0B0tXSkomDKb7NLBHKyoP1q+9AAAgAElEQVQq6oZjfWMznYsZ+DjZbPzLQBw8h2NO5+pTB5Ie6uQlJzvVmUvX8qV3FiApa6S34RIYTweS8wUk1OVyzR1vSfz9fXnzJhXEplMR3kMvA6eAsOR6o8mtPVWy86FNgbZH4Haflr42JyvrMg5czSXp96WlpR0DH+nsLV0u10yqsmVGpv7+g+rq1uEYYyj71IEEmD8fcnVt/rd44T2r+ZzrDbrfyEA4TAeS8wEkZFx29oSx5oRH7x17+eI58VnD6ygyEL64CNsIv5INdUe8/6s5+J0qOfjEnj17Tss2mJ2V9TFOiMPm8z15oKHBOxxLdKW4MolBuwsh+amS2pKq4RhjKPvUgQRwpqbm0dwZr/NbvpeG2OShJO8o6ksHkhEHksl5ec5cc8JDN6ZNWrk4Odc80hkHL1XuFrlL/l21v/Z/Nfvvf+Pwvv8dD4x4crkuh+MecB40Wa3/GC5FuNPpTKaMfY4C/y2uGJl4WYPZz9EOJCKytjEu9bv8ms9+C7N0v5GB85IOJCMKJMLEMMcc89CNaZPvLEwZZx+O+FQDZ4aLt6V4FBSe+X8o2XbgheoP7j5S7t55hlUWyc5y/giE7y4pLw+b5g7Haiekp8f5JeVOzsjW4zGHhtwybCjnPcqBhOTm5s5Ux855HDd9owBW3W9k4LylA8mIAcnq1avpv5959ubrUsY9/oXsudGxhuHLLDhwhrg4Wwojhf3ttdrj7nefP+xtuH//sWM1p64kLyHBrtpsj4Dzv5dUVGwbrlUKfyAWCNzBOD9QUlGxdThMjIdy7qMZSMRehUxRX8Wiz34ds6+NGkq6jr6+dCAZMSARYeGzLbH/+3b+1ctmx2eFQ5HoZWgoICj5r4q9nidKdz7oJeqTZ+ZYcTqdWYTx+yDRP5aWlh4bmlE/2osw52YB9XYKUuuuKls3XJLPUM1/NAOJ05k3mU6Y+QRf8rk5GOPUY2oNiql0IBkxIEFqqmVRbMr23027YXKaKWroveEGxQgXb2MRGqUl6MUjR7eUlnQ23b75yPtvnbmanKys6Qy4U2HsJ0erqmqHcbXUmen8OKHcFhsf/48zFf7DOO6Auh7FQCJnT5/7Ncy98fv8sutsUIwDop/e6AQFdCAZOSBJTzfPj0pY/9D4axZMi0nTgWSITqGQRrY1l+NXRVvXJluj7/3Xnq3NZ3btzMxcTCm9VjYavzfc/h3ZWVlXc0ImB1X1ierqat8QLXNYuhmtQOJMScmik678D1921wyk5Q4LbUdXpzqQjByQANL47Ow7V6VN/c3ns+dYrJJBB5MhOG1BpuH/it/ybm+p/NIbh/f+rRe9BMnJzLwVlKa7y8t/MdzPTSIMOZWkhZLH8/jRM5wih2C5Q9rFaASSlStXSnsPHrkf82/5Mb9ylQkjHGF7SDfwgulMB5KRBBIIBZ9DiXrqdsfMlQuTxlJFT5oz6KNQ4mnBDw5tOry/vXZedS9OgMLE0yDL91FGatyVZc8MesA+OnA6nXmUsbtCnP+0srKybbjHG0z/oxFIwsE1o1Je4B+7bymcU3Qv4MEw0Mm2OpCMKJAIuue5XDOmRqX/8lbH9MvnxGUadD+SgXOyCG//36r9vueqDvzyraJ9P+xN2nA4HDEyw7dBscldXv7mwEeLrGV+Wlp8SJa/YwjS3x+pKzstcGRkPYxcrdELJKlr+U1fvw6Z40eO2JfySEwF2bqmi2/+8y2lpcUbLnRrxf5sxQWb2ErciLgvdNXUmDEP3pI5fd7s+EzJRGX9mas/uxvmVI7drdXaMxV7Xj/QVvGlfaWlxb11MS4rKyXI8TCY9suS6urTQsv3c8iIqoclICp/UwLdVlxZ+lpEjc5TpdEIJAAk57ip99D5n/gNv+LjCsJm+BeRBeX5tPbsLRagmE9dCchrzxyi+1+/vriysvQ8sfOwDHvBAolYrQATxa/Octnjf3R96sT5y1LyoYNJ5HwgLLXq/Z34U9mush3Npd/x2ozPn81CKiczczwn5H6iKF8+0yw48hEjryn21t/dfacIJ19SXi50NhdsGaVAAmEOTp1TnuWT5s+Ga7KEqHiRiuaC3acPX5AIYDBhxPU6AiyCfkAV4etOoZMaAupLOA68XU9L3nskmoR+f6FbKvZ3ky9oIDmxmAV5k/OMsuGPt2RNv/Ka5FxqlvTsnpFstIir9Uz5nu4N9Ud+laGaHvnz0XdPi/R7Sh90rNO5kDF2VUlFxfci6XsI6kjZWVnXcULySsvLfz4E/Q1bF6MVSMTX0OXKn0gkch1SXMsQn5p0MeAIJ7KNFCxO4NnTFYxYpHAC+LpAdq4LoOpIHWQldJJWwQAnte6DrL3+L8Hk5Deqt2+/oK0UB3KQLgogEQsrcEzKz4yyrl6WMm7F0jH5Vj1syrm3W4DI1qYS9mTJjvWyTL+xYf+uczkYSjmZzhs1wqLLKiqeHggjDaCNyLJ4pQTcEhMf/+UL+YY2ioEkvK3jAYM3ISGe2u2GAezziDchsak3Ysmd38fUBbEgIxTrVQBWZyvI5j8fJq8/e69mt5efuvBQKNRVXV0tjEouovfByLfuogEScTuakZeXm2aM/frCpNyVS8bkxYwx2S7NXYl8/3qtKfQihzrq8Qf3tgOVnvbPv118YBc5BwOLZ6ag1/slMOp2V5WJGFsjUsZmZro4od/jsrS6pOTCjQI82oFkRJhhCAfJnnX1l7H40z/hk+fbRxpI8Nrf95P1T99U0tk57HrGISTZoLu6mIBELJbOzpmcajaQL14W6/zCjemTonNs8SAjJr4Omt7D3oG47rg9zfhH+Z6qbc3l33jPffg/ffmEHLfYup8x9b+l1dUHh32SxwcQUYAlhu8D7J/uiortIzVuf8fRgaS/FDu/9bNnzPsJv+b2r2PK1cYRe9o6LpHgtb/tx2t/Wlna1NmrUcv5pczwjX6xAUmYEgWpBRavof3WSTGp37kpY1LWVQnZ1CzpFl1CvVfqbcUTpdsq3m0qf/ggLX4WbpyWuKo3VhKSASPkdsjykyMpGYTDk0vKgyD8g5Ly8ueGj80H17MOJIOj30i3ds288mdYfPtXMWWBDiQjRPyLEkiO00aZlJM/I0E2fe6KJOfShUljk3JtiZJllHrgCl+Rg+112jMVe48c6Kz9aYO388VI86GPdTimMs6Xk0DgSXd9fdMI8Z4YhmQ7HJ8H57aSiorfnpkbZQTncc6hdCC5UHYisnnkXLn852zJHfcjp0AHkshINuhaFzOQhD9E03JyEoyS+RqHJebWy+Mdl82Oz4p2WeMhjyJv+PagD++0lPnW1Rx5293V/NtuI17vR1Iq4srMvJpSOtng9T51uKnJM2iu6kcHY53OxYzzRSZV/cWFmnZXB5J+bOgFUDVn/oqn+eLbb+M502X9aWtkNuRiB5Kep66CAsXQ7s+KsVhvzDTHfHJOfNbERUljJfslHq1UKNUrvO18fd3hjrebyl5o9nt+ZStJLtqKrWqk7CNo197U8klOuBqbkLBmpK2n8l2uXFXj9xGu/epCddLSgSRSbrow6uXMv/4/bPFnbkROAdGBZGT25JIAkhOkEh/F7vb2vGjJeP/E6JRVtzlm2vPtSTBKMtj59HQd4r0UxgVeNRCO5vvPir0l5Z7WX3n9XWuP1da29Ne8UOgpFEm6g3CpqLSydEtfivkhXkr4EtDe0vIoGFtTUln57lD3PxT96UAyFFQcuT6yr77xf/yaz94A52QdSEaI7JcUkJygWXJysjXaZLsm0xZ9x4LE7Kmz47KSx9oTFZtsgDRSduXDsIEhrqHF382PdDX4tza5a7e1lG/p6PY/day67H0AoT6GFH4bRp/PJymKwqqrq4USnom0xlDZfQTS+pLKkr39BaKhWGZ2VtaXCKeN0ZVxz+/BntD8+fPlY8eOhX0WUmprQ3v6XttQTOOsfehAMqzkHfLOswtvfZ4v+9z1SHaMnBu+brX1DUr5viVLlrxOCAn7ypwkPuecvPLKKwsZIyMetHEIuIu6UlzpZrN0ebYlbumk2JSZ4+zJOflRSUqyyQ67fPEk6fFqQVR1t+NoZ6Pn/fbaoqKuxm013R2v+Ch7x+12d/ZBKzrR6UwMQsm1KFJelC3K2OXt0rqCvlLeTfdBQRQkdjujeLKs7PwET3RlZS0HJzmK2fhn5mOJskJmpscnZwk9V21rY11H0HeQMVZRWVnZfj6ATgeSITiNI9hF9sIb3+DXf2VBOKPjSBUdSC5ZIDnBQrLT6Yy3MDo+1RK1IMOWcHmK0TYt2x4fNTFqjJRuiYYIuUIhPGCF1uH8lRMIzsAh8odU+zpQ1NnIjnY1eiu87btrfW3rGn3edwJBWlJUUyQ+qlpfs811uWamxSV9YWb25JkT0h3x8VFx/jZPJ94ter/szcO7t4VC6gFOmCPE+dPnK5y7w+HIlxlu08D2JkXHXXfdjPlzx6dnx8mShMrmev9bh3fv2F927D0fC/2roqKirK81D/XvdSAZaooOb385i1e9yVbce+XIA0kzsPnP+/HG33U/kjMlkg0bNiwiRJpeWLhUJDu6mAvB+PFKdiAQQzXNmWGKuckkK0uzLLHpVyS6oqZEp9I4gxk2IakIN3A+/LAigiqKi4z4k3GGLjWApoAX+9tr+XutVZ1uT3NdiPNXa7s7/hcg2pGysjKR1ZBFeivPzc1NsEvG3339+tuuWThxdrzNbAElhIvS5uk4dPcTP95ypLpkIQH9ZXRl3HPiWel8bLBwiKTAt5OjYpd+pfBT8cunz0tWZMUgdkDVNLR4Olr+uGnNzhd2vbGFejr/ONKWZZs2bZrFGJYnJSX8eMaMGafRaPfu3UpDQ9N3JYm8tHTpUvE0qJfzTIHs6257lS++cxGSs0ZuJuIgt9aBvPzY+9i5cVVJU9Oo8mxft27Dg7JMd/X6tCV2YcOGzZdzrt7q9Xq+tmrVqksm2JjIAFf8XrE9zkIu6wgG5tkVw+RZ8Znjx0clxTos8ZY4g8UQrZhgoJL4+EImNKxfEVJDX1JLbw+zjAMqNGiMQ+MMARZCa8DHO1R/qCPkDzT4OgPHvM2dhzrqPugI+A9aFcO2Ml/7uzNnzuxau3Ztn5JHLyeGODIyVmUlpH58zdd+GRNlsS/k4CcCD3GJ0n0PrX3qx2ve3fBLRskdZWVlH8nhPlKnMCcnx0gZ7p0/oeCBn9z85RiryayIqMCcoJEDcYQTW1FN6ZFv/v3XB8ta639QepZQ+MM13/XrN90jSYgyGo2/XrBgwWkWcVu2bJH9/uA3GFMrli9f/q/hmoPeb+QUcF1z02Zc+8VFGOMaWR1JUzXw4v+9RvZt/VRJQ0Nj5DO+uGtu2LAhihDye0LIb0+9TJ1G/JdffjmNUvlhWaaPLlmypOjiXvLZZ5+bm5umaCTPQmheTlTCNDM1ZMQaTFEJRltClGyMi1ZMUdEGixytmLhdNlCLZCTCGuxUWPFpIYSYAAvGhYMgB+HdWpCHGCNeLQABGJ0hf3tr0NfcGvS2dKvBzgDTGqq728pq/Z5yE5FqaIiU7K8+VjcE1lMkOytrgcVgvvVP9z5cPCEz5xMUmMA5BBpWev2+x67/+VdaGjpa50tMffBYdXXNedxbkpedPTcv1fmTH37i3oTclKyx4JyBkFYCEqUxzfju0X2lj7z0l3eP1lV9v6qqqnak5vryyy9bJEn+jSTRfy9ZskRYtZ12j1i9ejWdM2fOtZzzq6uqqr559913nxepbqTocTGMk331x//Ll3z2Y3BMGlmrrZpjwJpf/tfmqb/twIED3ouBVkMxx02bNk1nDJ8D2A8KCwtPOjSfCSQWRVEeZIzsLCxc8vJQDHwh9xG+HVNq93g8ZlmWo1KN0SmxJiVZghKjMZZslY1psQZzml02JloNBkkGEdZFYTOFzlAAQU1tC3GtzaMGuEyk+vaQz+vT1AAlaKKgXRpnTQ1+T11NwNMYR0i3zWwOhjo6fAcaGvyR6Dz6Q7vExERbtNX65RiLPfWzC24ILp8+b6osS/49JUcO/m79s56KltpEwvnf3BUV+4YAuPoztY/UFemViap+ckLG2Jtvmr0weUb2hLQos83c6u1s3F68v2Pj3nfqj1S7H2OKsq4fzpaDmpNovHHjxjwA31BVw0MrVizsFWw3btzoYAw/kmX6gyVLloy4DmfQi7zEOsi+cvkfsfj2O3nujJFzSOQMOLqLkVeefrzk3VfvO9/naQS3lKxfv36lJEmOzs7O365atSp4YuyPiIMbNmy4CaDjAPZ/hYWFfVkJjeAaRmQo8RzUQ5Px46XEJhgM8R1Gxa8oZm4mcSZGGOfh31Mf4V0GVW01BVR0AFGBQLDTaNSqTSYGt1s8Twm8OfVn2BcgzHupql5DFWV5lNGazQn3dXm7uzSubuFB6aXSutKqCF7rhn2eYoDU1FSLUZIKbCbrrbHWqJmyLFv8AX9nZ8DzmjcUekGSpP0jkXTrxGLXrFkj2Wy2m8TOx8TE/Hzu3Lm9Pu2+8sorVk3THiKEbO/q6npx1apVA3mKHBEaj4ZBXFNn34dFn/4JZhRaQaWRWbIaBHaua6c71z/o3vHaH0Zm0PM/yrp162IlSfoKY2zP8uXL1506o48AyUsvvZqpKOrnALze1dX1tn5Qzv8G9ncGqwH6z7ScVCIFDYrN1nj48OERDYXSz/nS/LS0WJ8sR0mS1FpaWiouL32ppvo5xLmrC9P3zZs352kav4sQ/t9ly5adMzrxunXrFkmSdA3n/InCwkKRRnVE5zuki7/IO8uZOGM+m7n0X5h/8xiY7SOzmvYmTjb/5TA7sOWOsmOHd43MoOd3FKEf9Pl8VxNC5qmq+scVK1acJrF/BEjEzcxuty8CMIdS+uclS5aIW6xedApcshQQCkTO6ScJYcGYmJh/nU0aOUEAIZWoKruVEM5CodBz119//dmyUV6yNLtQFjZ20gwXyxz/JF946wKk59NzY3pv+vhT7wDH///UyBgnf338f/zdwIE3Osj2l54K1TT8tLLyoEhgdcmXTZs25agqux1gry1fvvxNQoiwKD1ZerV0eP7552OMRvNnOQdPTk54/EwzyEueavoCRxUFNm7cWMg5uVxVydPXXbdEZLvrS8IgL7/8co4sy7dzzl8rLCx8Y1QR7AJarHgiNSWk3YbJ83+AK24aA2tUz+yEHoMdf3UM7yYH2Bn/Jup423tyrwuTXioxUY90tQKhoGjBQaQgWIij2wNoQU5a6rpJzbF1pK3+keJDe4VBUl+8cgFRa2BTWbNmjcFms30VQDeAv/Wm8jirydyrr77qCgbVhyjF66qqrl2xYoXoRC86BS4ZCgjp22qNnkEpvwfgf1u6dOlbZ960zrbY4zqVazjHSkLw/3bu3Ln/4YcfPu2WdskQ6gJfiPChUqnlcyQh9VaSPnYMNxi93N/N4WnrUXhydIDzDtLVonBflyI8xwiol0vUB6Hv0AQWEAZLVAMoDUELhUGIgATB1CoWCvihhQgVQMSDR4KKsqvy4MGO0aBkf/HFF+0Gg+GTjGEaIaYfFxYuqO6NHc4KJMdDpkxjjH8WINWE8BdNJlPJmbb1FziP6dPTKfARCnDO6SuvvJLMGFlGCJtHCHmhs7Nz46lWKJGQbcOGDSL2zgoA1wLSq34/Xt2/f1uzDiiRUG9o6whfsX27duVCklzM72+HopyUFAjnHVxVO0/EhZIoZV2a1h5pDp+hnenF0Ztwvm1ubs5lDDcSwqM4538pLCw8cjYJrE8nni1btozp7u6+llKaxRjZLctku6ZpHcuWLQtFenu7OEinz/JSpoC4GD355JNyRkaGmVI6hTG2gHPiIYRv2rlzZ9FAP/4ClDZseHUyoC0mhCicayKQ3ZGkpCRfQUGBeuLjdSnTVl/bpUEBwcsbN25UfD4aZ7HwKzgnUwjhxZzzDaf6jPRLIjm1slAuApioqmwZIbByzso55+WSJLllWb5kPOAvDXbQV3EmBUKhkEIpTeWcuzgnYwkJe/2/QwjZsXTp0tYhoBjZsGFDAiHkCsYwi1IECCElAMpVVa0xGo0R54wZgrnoXegU6BcFGGM8FArZANlFKcZyzjMJ4W2MSRvi4uyH+zI+EYP1KZGcmJHw6p09e7YNQDrntADgkwiBCeCjwmqhXzujV77QKBALUAaQw7JMPmhvV48lJprbhvqZ9oknnlASExNjTSaTOIyTCKHjOYefEK5fti40jtDnc5IChBDKOZLEt5wQcohzvtdsNlfOnz/fG6lEHTGQnEn343bFwkFlwH3oe6lTYCQoEAwGFQBtI20wsm3bNnNbWyBaloO6En4kNlofY0AU4JxLsiwzSZJaBnq50kFgQKTXG+kU0CmgU0CnwAkK6ECi84JOAZ0COgV0CgyKAjqQDIp8emOdAjoFdAroFOgXkAgTyj179silpaWW6OjoKFVVnYQQjRDhFqoXnQIXHgVEYi9hlssYq+WcN1FKu3fu3BkaqLlvXysUw61du1aJjY01BwKBeEppBgBhBqyfkb6Ip//+fFJAhAGok2W5ra2tzbdy5Urh3hGx136kzE1efPFFm6IokznnuYRI6QATFlydlNJGxlik/ZxPQl2gY1NOKQ1vmKqqlJ5IR3WBzvZim5agraZxOyE8iXMiLKgaAAjT3PeXLVvWMlS+UAJAXnvttahQiE/kPDSOECkFgI0x1irLtFU/I6dyjuD5ntAijAnLUUaE0/iJcyD+frHx2cU8X0F3xlgsgHiAejjX6ghRjigKObRo0aKTjpznWmOfGyYOyMaNG12U0qWMwQnggKbxYoOBVnd0dDS7XC7dRn4QXPSLX/zCUldXlyzonJo6q/Lb3/6UTs9B0LO3piaTidTU1MSoKkmlVBNS9ETGEKQUr27fvn3fYKUTsXcbNmwYC2AZpTSGc15ECClVVbW2ubm5ZdKkSXqo+eMbU1paSh5//PG4jqamZE2SNJfLVf29733Pu23bNvrMM88kxSpK4K777293uVwR34aHmF1GZXcHDx6UEhIS4mVZDvtbEULyGWPtIk1PYWFhcV/SyTmBpCcScOxlALsFYFWc87VVVUmVd999ei7rUUn5/i2aOp3OiYTzBeC8ykTINiZJaQxSUmJC/Bx7TMzlhFKpu9vzbG1t7evcr07kFJNBeHWIsbcqKytFIEHdhLR/NO+1tvDe3bx5c4KqsoUiwjXAdjLGXhioabDwHcnIyFhACFnKOS0GtJc9Hk+dnn7hNPKf+M5wp9OZRRk+w4FkQrjMGYoUrq0JUTqHcLIYhIc4pK3+kH+THsJkCBh+AF0cjyOXAkgrCGHCJ2pTVVXVlnNlBD0rkIiIj3a7/RYANwL4K6V085IlS0ZNSskB0P/MJpLL5XLZrdYrksaMmSLLysJQMMRlWRZ0DQZDIYvX45GtNtsYs8ViFNFH/d3dra0tzUWSLJsopbJEZVtIDVa3tbRu8nZ2tRBobx0rL3eLV7AhmN+o7uL4YZkM4AsArVMU6deLFy8WgfgiLrt377Y0NTXdxTmZSwj/I+d8e2FhYSDiDi7NiuKbIn64w+EwSpwv48CNlJAowvAGJ1yEunLaiLqFALl+SNeEmMQJh9Emhw6Ds8k+rsRRzh/zQN4ha4jROGmTTFKR2+0ebYn2ziuHiFhyhJDLOCf3EMK3JSYmPj1jxoxeg/f2CiTHo6JeDrBPUIonurq6PtBvWBHtKUlISLBZAZtis+VFx8Q+mJCcPCEqOiaBUmoghIgc3yKNW1gTwjnHqTpY8ffj/yYMGMRziKRpGu32dnd6PV3NbS3NRQG/7/8xPz3k5V5/TU2NiCqgSyoRbU3vlUTWN0rl+wFWoWnac5FKJiKoXUNDcyGl/GpZln+1aNGiqr7E/0FM82JpKudkZGRpspxGVLVbkaQ0AnangWolCnhMCGRxgFFrlBRSjYSJ3CFKgEkmH5NlixTSFMIFCCsBRmUvUwIS5V4KfjTEqVfjZJtJUv4Q9Ps1v6Jo5eXlIgeM/mQ4zJxxXPeXoarq1xkjbyQnJ2zoLa1Ir0Cybt06oRP5PCHkrWXLlm0cDTH3h2A/yNT8/CzJbP2ELElzqCwlxcUn5Nvsdhsh4Vzvgyqc86Cnq6u1q6OjXtXUmu5O77Hu7s6/HSsrO6Dvz6BIi02bNk3QNH4rpXhpx44dO/vSmRzXG44D6M0AEwHtdgxuBpdG67EOx1SA3WYgLB+cxKqg0WaiJlulUBcBj2MgNq+mQCEMJqqGte3dTIHKCSxURYDLMJKePwOcIpoGuEx4iwYS9GgGGuTy8xrn1ZwTFYTvNlqt7xw+fPhk3vBLg4oX5io2bNgwB6CFAHtu2bJlR868NPWWs12IM7cCiJJl+c/9FfcvTDIM/6xWrlxpaGtr+6LZZHnAYDLFUUogSbKgb3/tsMTBEJZFwmz0tCJMWYX1D+dM83f7OqsqKjZ7/d0/8vv9pdXV1Xo8pwFus3jGtVqtKwiRJhgM8mOLFi1qOVdXa9assdlstrsJIe3R0dHPRhLUboBTu2iaJScnW6NMpp/ZpdAEM1UnapwkdjEDkQmDjQZPBvULcAl+JkM6LkgHIMFCVBipFgaVIKMQhlwSYYiVel4JOQg6NYOQ3ztlsMe6uXJM46SAS2RNaWnpOxcNkS7iiYpwPx0dHZ/knMd4PJ4nVq1adVr67l5ytr80XZYNn9a00BMrVqwQGcD0EgEFrr322jRZNvzVaDIt6ofLwAnLlJP7IMxROQ+L+OZzDSuewOpr64Jd7W31Pr//5RBTH3a73U0RTFWv0gsFtmzZkuDzBe4nhB9aunTpv8/1TPXyyxsXShK5lnPtt8uXL68YxQSlmZmZ0YqixBNNS5DA/xgn+fMlwkSeFvi4jG5NhplqMBANIVD4mQSN0zBQiD+tUhAmooXBol0zIMjEy2/P7StKCsJANaicwqMpsEohUfcg53RNKzPEBpjsJYr0JKXUn5qa2r5161ZddziMzLh+/fosQqT7NWk0RvEAACAASURBVI2vW7Fi2eunDnUakByPR38XIUTkbXh64sSJutgYwcZMTk62sri4m2PjE1ZHRcdk2Oz203Qf5+hCML44OX2aYffWhwATTVXR2NDgb25q+O7hoqLf6jqTCDas9yrCzP0qTePXUoof9pZOVDQ7roD8JgD3jh071vT1DDbg2VwEDZ1O5xTK2EoKOCTCEznIZXYpYDcQBpH23MMM4WcrSfi1cQ4GCpsk4IQf/x0Qq6iQCYdHpejSDLDQULi+eAITp0IhGhgnYSklRgqKv4uXRV83l1u6NEMtAX+bAGYDtDcSzOreRlpfe/gw9O/WMPCPiAA/Z86cVQByOOePnGpYctoHbM2aNdFWq30159rL11577ZZhmMsl2aUrK+tGmy3qi6kZ6VPNFmuc0Ri+kPWnCKWh+Om3LoUxhuaGBt7U2LDbZDL+ICo2673XX3/+nE8z/ZnYaKq7efPmVFVVf2QwGH6xaNGiY72t/bXXXksOBkM/JASPLVu2TOinRmURGQnf37nzRxZZm2IhqgqQaV2aks4BInQgIlGtAAC7rCIu2oKQRlDf4Q9LGT1AYkRUbCyirSITBYNP5aisa0OMQYNB4qzZT4lADCsNhUEkwKSwbkU8gYlEud1MhkK420SD2wNcng0QyU6DblD6yNXHGrY8rBuhDAtfbty4cTLn+KLBoPxg0aJF4gk+XE4DkvXr1+cSQlZrmvatFStW1AzLTC7BTnOyHL/OdGVPSUxOvmKAivUBA0koFEJbSwtCoWDI7/NVq6r2Z6vd+tg777yj54npJ6/1+E3Zf8wYeX/Xru3/6U3a2LRp0zzGcLumhb4UqYVXP6dxIVeXnE5njqRpk0BIpkTwmRjJ71QIM6qcGjo1QzimhgSOEKcwUQ25aTGYf+VMdHiDeP71veF/UyQKYjBjZeFcmI1GhFRNWL/j2fXb0dDUCpkSzadyKmsBEiMHwk9bQrci+g1yoUPpcYu30FDITLVgkFETA5EMYWkF/w5w+z17SkuFVZdu0TjE3PTyyy9bJEn5PaX4y9KlS9/+CJAc985dApClhYXLvqqbMka8AzTb4Xo8LS19YUpGuvCa7nnkHcEiTo8ofp8PNVWVezpaW+4qLi/fN4JTuGSGWr9+08cp5eNMJtPPz8zN0ON7Ev15xjT52msL/98ls+gIF5Kdnp5DJPlrEmHESNm8IKPjTFSj4jlK6Da8TIZdCkEmGnzMgBA14oqp2cjPc2Dv4XIkxUWHRwqFNEwbn4WxWWPCT8BhpxMAlbUteHX7QXi6A8hKicfr296HWfOCMA0hRuBlCjROQEkPUAkJxUZD4fYCYISUQjipVwk2M036J6qkN91wj3a/ngh3N/Jq69Zt+DKlkurxdDx5wi3kpEQigOSVV15ZyDmftmzZskci73ZU1ySuDNcMRaHfio6PW5SanhFjMpnOG0HEM1d9TU1xQ13NV46WlGzWb2T934oNGzZMA7AiKSnpZ2fay69evVqeNeuyuyjl7cuWLXuu/71f3C1yMjNvlShS45VAOuXsHj+XlR5zXvGQhbDkECUHERdthT0uMWydlTYmHrJMw6AxcWwGZKnHiPFsBilM2GYJsFEZ3t17FO/tO4Kujk60dfnhC/Fw/2I8H1PCwGUUOhSQ8NjHzYoDnCPg43JtUFO+UlxZ9ppuHj+0fLdx48abGSMxu3Ztf/rhhx8OGzh8BEgYI1MLC5c8OrRDX5q95eTkGKHhrsSkxE+PSUubIMuyTZJ6F0hOSA39oUQ/rL/C3Qb8fl5dWbmvubX5vrKysnd1IOkPtXvq6kDSK81oQUGB1N7UcruVhhx2OfgxAuSHramYAmHiK/4/xCiiTQQ5WSkwWKMwOT8LU/IzIVEKRZHDCvf+lGBIRXVDK7xeP3bsOYjdh8ogdCYCMHxMhp/3mBELIBH6GPFsJqQjwffdTFE7mOH7JeXl4lumP3H1h/B91NWBZAiJKbqaM3Wqw6eqjxoMxkJHzliTSDusaRpnwkGdaTQUUkVEXzAtBKZqoFA1TdW0AJP8nGt+iXMflYhV01gUZ6qsGAyUUAmcKJBkCYqiHP+RRWTU8M+5SktzM6+uKD+oqqGvF5eWCmMJ3fO3n3uuA8npBBP+IXaL5WOcsdkUmGogLM0uBVMp4UbxlCSU4MJKy0RDCMk2ODNTkZ6SAGdGEiaNzYDJKLIcD7JwoLquEf/ZtB1llfUwSEAIMvzBEGQWgJH0gImYj5mqMFHuD0omT0JK2ppv3Hn9z3JczpaMuat0P6tBbsOJ5jqQDBEhRTcOh8NkUZQvxSQk/iAuPsFOJQmeLi9X/Z0+O/EysKDVLGkk1sIRayZQZAmpUao4BDVdIcPbVilUn2AORXMqOxqD1myZkERNC5k7fRx1HgX+kIZgIIAGr4xOZgWXLTBabLBZzRDPZwJUzpRyOOOspbmxs66mepPX7/9qeXl5/RAueVR0pQPJadssubJcSwC2yC753jASrPYywwyhpxB+IOIRSqi9o2U1/IRljE7A9Em5mD7eAVkeelWhpjHsPVyKtg4vGlq78O72vWGdDD3+riKe0oTuxCxzyPY4NiEvS3NlJLfYTcZnnM6kx5d+9qEKXfc7+GOsA8ngaXiyh+zs7CRZkn46JjHh+iijFp9g8PKJ8V4yNgFaql2T7GZKok1AtLHHIqUn+0K4aLxH1D55VfuIE8nxf9AYQVWnjPI2ijaPiqoOoLjdivpgNFTZDrPVHpZYyCmSiqapbRUlpXWtzY23uisq3h/CJY+KrnQg+XCbXS5XNNH4V2w0kGSX1DyNY2GASzQkLKhIT1w4ASqJNhlz50xFi5fhiulj4UxPHKhrVEQ85g+E8Nr2Q2hubER1dR26ujwwKxSdAQZNMiImyopsZwZSkmLh9wfR2uH1KZL8XEKM4cGHH1+rX64iovLZK+lAMkgCntJcdmY4r06JwvcX5JKJ85wsOjuBI8nCiOk4PAjc6OeTcK+zC4dSJT3KrO4Q0OAhONhoQFGjhN2NdnRLsbBFxcBg6HFB0VQ1VFNZ2dxY37TcXeHWgaSfe64DyYcEG+9KyeSa8hOrHFqiQIv3cZkKHw4VBEpYHmEIQEZctB0T8hzIdaaGpRGD0IcMYxGSSUuHB0ZZwtHyWux4/1iPspdS+IMqpuRl4bJpuYiymeGurEdjSydKqxs7Wzu6HtTMiX9cu3at/uQ7iP3RgWQQxDvR1BHjiDHG4eYJY/jNq6bw1HlOnh5rhlmI1/1TJQ58MuIWGFSBPXVGbCg2oajVzGX7GCgGA+ns6Ag0NtQ9jybffQcaShoHPsrobKkDSXjfSXZ2drqsqQ8QsJskIEEhWthOVyi6hV5EKLUVicBoj4Uz24nCK6ciLsZ+0iprpLhHKOTrmzvQ7QtAliS8f6QcC2aPR0KsHR1dPuw+VIrm9i6kJsVg1/6S9zykY8HmzQf0dBiD2CAdSAZBPNE0Ozk5yWY333FVDv/KV69i8cl2KMeFhUH2PPDmARV4u0zCb7Zb0NAJBP3+Go2xRxnFX8vLy0WGM730gwI6kADCGpGHtEesNHirmaqxQS6FFdlCqS5Mb4OMdjuSLRXTJua6/NxgsFgsZOFlE8LWWee7aIydnId4/tr9QVnY4fHyaWPx1q6ipj1FJTmtra16XpNBbJQOJAMjnpSRkZFsUaQlFhk3zczkc79xFYvJigPYSIkgfcxbzGN3NcVfdpJQQxcvTotBR30nqS9t4evUoPGVY9XH6nQTyMg2XweSsCFJvgHs7/GyXwRidAo292iGsHe5KRzmXfKmpo6pLpjgcvr8AcOsyS440xIjjS8X2UYMQS2fP4jS6iZs31+MPEcK3tl77FjxgeYZR5uPCq93vQyQAjqQ9JNwBQUFSmtD6zQO/rG8ZExLieLzbi3glsuy+ElLkX52OWzVxdPagVqw9Udo51wHk+0myl84hMOvF5M3G73sb5WVlSKSs25P38cO6EACkpWVNc3E+U8TDP4xBHyKAJKucABGGs4XYlJkZolLojMmZWPaOAdSEmNG/Ekr0oP05ntHEFQ1BIOq9u7eot95NOnbe/bsCTub6GVgFNCBpH90kxwOx0ybTD59VTYvNsp88bgkvuTjk7lkHgLT+P5NJbLaKgffUky0ynbQVVM4VA0d/9hLj/5zH9nc4cdv9KeuvumoAwmQmZnpMhDyb7sUSjFTNU0o/9o0YzhKr9CNONKSEJOSjrHONMydOvYjZuh9U3n4a4jnrNZ2D+qa2lDf0qHuO1K5s7S69osfHCvbP/yjX9oj6EDSj/11Op3JVsofuHcu8ldM0nJ+vYWmfaqAmyaMuUDes86ylnY/+D/2UH5ZFqcFGZy3eEjFAxtp0Y4y+lRxRen/+kGCUVl1tANJamqqxaoY71WI9k1CWKLQAZqJChUUMgHPzUrSrpxbIO0vbSRZaQmYV5B/wQGJsHKsqm/FvzfuEHNramrtfMkfCj3pzD28Z+1a3Ul3sAdbB5LIKUjG5ThvXTJW+9QPruHjt5eT9DfcKP3W1bwl2kQcnPFoEPQ7Vnzkw5+tpsj5zvuUh94uJfz9GkK+MJcJB0jPhiLy5g82kVZmsN6lpyY99y6MdiBxZbqukKB+OkEJTCeEzxAZC0XqW5GYKgiFT8rLYGmpKVJXtx/XXjUNcTHWITFzP3VXurw+tHV2I2NMfI8PVj+LaNLc7sGf/rvVRxj/uBJv3rZ27Wsd/exGr34WCuhAEiFrCEesMRbt0Z8s5QUzM/mEx7cRaUsx/fK/bw/tUwi5nXNyAyFICJvSj1zhhBAP59zWl7dXsxd4dAvln5/LSHY8eKsX7s//h1YXNeDrupOiDiTnokB2VtbHJMoTkmj3KhCySIRj7NSM4ZhWnFCYLBZMzHPg2gXTMSa+J5rvUBdhsiuiBd92w5UwGs70SREvAn0fO68vgMeefdX72vb3s71e78m8GUM919HYnw4kEe56ZmZmwWUZ9Pu/ul67nBIS/aNXUf5eBW5/9z6WxRn5DgfGH89sGGGPQ1SNgEcCXiENeHoHDaTHcON1E7nwOQn95i1y9O976FMl5eW/G6LZXJLdjHaJJMfpvIZwvjBR7l5OwScISy2R5lZIJFFGgoysTJjs0bh1xRW9fOSHhiWaWkW032640pM+VOJzDdBCANMAKgGSyKB49jAswofksWc3e3ceKh7b3NwsrBb1MkQU0IEkQkJmpDpu/sR09o3vL+Zj6zohf+l/8sYbJ7E/3TmbPcw4ZkR0JYpwrOGoJhKbvngI3tp2av3SPEZUDWztARL48Wb6f+7K8geGY8xLpc9RDiRkVk7KNT6V/k4DyZEIpyKqrrj/WyQ1HMPK6XJCM9jw2Y/Nh8k4fB7sp8kdXAMPdAKh7h42E4ob2QIYowHSu+9Ke2c3HvvXZu+uQ24dSIb4cOpAcjpBBQf2KiNnZjruXJTNr/n1dcx+sB78nrXyBy/cqZozYnA75zh/CUciZAgCsD3V5NiaAzT+J8u0fYRA+99+4nlok1RRUpX1HWBrJBYDos6oMxcezUAyOycuKqAZv61xep9EYRUhfkRUXZGZUIRFsSscCYmJyMvLxoqrp4c9yUei8JAHEEDCT2FHkRDLGAsoll6n0AMkr3p36RLJkG+RDiQA5jscpnZgjEZZTpyR2M88CgSENwWxRKHAlBS+u6YDWQ0+MuN/t2s5qVEYOxTxs4Z8Zz/aIXunhLq/vQHNubH8rwaJBqs74Gz2YXaskfxZ4iycjOZsReUgLSG0SUQtVg3RjaNJQT+agWS8wzEGRH3EQrSPG6lmFjcJkfdD5T35Piw2Gy6blo/5s8YhOaF/+hGhNB/Q2eEMPChCNoioJqfefziIwd4jlfRyH2zr9OKJf29p336gaLz+tDW0X5xRDySTs7OTJKrdOM5GbhxrR1a6VaQuOJ0LKQFvC8GmMY54I/FUd8N42MOjfnIdk9MSuDKgwzC0+9hnb2KOW/dT/9O7CVs6Bm0yIVpAg9GnwRKt4JxhU3oy3YFX+dBd4oH7YDt7DirfcLCyclTkgB/NQOJyuTINmvqNaDkwSQGbJ4QRERpFCzsihhCfnIJFV83CzIlOSMczHfbJjMcrdHR1w2Q09F+vwvlxIPF8JNEhMUYBhqiPTOGE+e+/1m0/fLiy5Kpjx2qbI52nXq9vCoxqIBk/frxBCXpvLRxDf3RDKklx2kEMfRh/CG/x4i5gXR3HXQUccZkMkE9/FerbfuT0jQm3jszwpO8dPVsNBrz7noQt5QTfzhe3yf53FWKA2wu2poJXbG3G/e+7y9aNhqeu0QwkDodjjMT5XVZJnUI4rhepDoTVlvBmj7fKGDdpEiaMy0G+KyXiuFrifHR4fHjh9d3hHDo3LCyAzdLP12EtAO5vB9gpDulUATHHArQn6vWphRKCHQdK8Mrb+59zjTF/7vG1WwUK6WWIKDCqgWRKbm7alKjg7+5xkeunxBBJJAXpqwglSkU38FQpR340EG3nYFYOagRE3p5EG2A5g4+5eDQS3h4neF5ovjUCqAQyBQR4ERHEWnR+XE94UsqhAFE4QHomRxVAlknPWaE9+MOPI5cQpM5cgkg2ZJQ4ZB/Bpr0UahD4lIMM7ElBDEmAd5oR/EMx+2erT/722253U180u9h/P8qBxCRzcicl7AErDaUKVvUzKRwufmxqLGbNKUCM3YrszKR+gYHIZLjt/WJ0eXy45orJMPc7ayIH1ADCupKw1ZYMolgBuXdAEuO98s4B7D9SecechUv/9vDDDwu2DGdkGD9+PA0Gg0RV1fBPIBCQDAZD2CfMDnuYfT3EwwOBQDAzMzOgh1P56Ike1UAywemc8vEMPHmHk8yK++glptfvn+A8rwa828xR7wOaAsBBvwFpaTEQudkJ4ac5TAlA8Ac0hLQzdNTHv/hmicAmA0IvIwtzRpFnnQHeEPvwY3+KiCMRhBP2hDPAEUAjIh8dENQYgkwAy+mxhxWRs5r4EeUPgPmAOQnAzNiPAk5/PvZ1fuCJEv72+hp229GKirL+tL0Y645mIJmcnGz1miy3W6XQjTYavJyCG4SOxMtkcQniyTE2kpKajGxHGq6eM6Ff8bVEVF7BvP19EjuNh4SyXRwyYal1Fk9FcVQaWjvx+o7DofZO772v7jiw02IwxNjMNrtEjTHx1tgYDSSKgJhDasBoUExWCkRZjLaQdDxDXEhTucfvaesOeg7Wd9XvNhgMbrfbHbgY+Xk45jyqgeTyPNeMlRn8yU9kkGnWAVgtiueht1sI3uZxmDoupdcDIXhc1RhYBIoUynuUMyEOhCIRj45zhOha4/ysYzS0+dBdXY+ViUE4bYBpkJG9u0LAE6Vs+7Nl2qfdVVUlw8GYF1KfoxlI8tPS4lVF+UyUFJzPOZYZiKaIEPJCKjFRDQkWCRMmjUNXiOJTw+hHciY/iEyMInZWJAmzxPkoKq3B3kNVatBvLfZ2UK8syVaLwWqglJitRpuZQhIAYqCESlGmKFAqMYnKjBwHJ01TaXt3K2/qamg5Vn/Y3eip/Y1K+cujyejkXGdSB5JBAEm3BjxXK8Gbko7s1OgBhW4Y7g+mOActXUEcO1qLzyd0Id0k/BcHV3Qg+ZB+q1evlmfNuuwuSnn7smXLnhscZS+81g6HI0Zm+EKUHLyDg2eoXCISIS1ms9Hg8wfiEyxA3rg8hIgRtyy/LKIP+8lVCmmChcJxuYh4sxVOhREWXyCEt3cfxeXTx8JmMZ7zqVbVNOzY70bAY0WqcQYUbg+Htz8BEj0Cf48k3+Mhc/bCOENdWxXfWrR5X0Nr3Vf2HNuzbTToCfvaFh1IBgEkLUHgn/UKEnIyERtr7YvW5+33QZVh+wf1WGVqRkHM4LM26kAyeoBEqMWys7Lmy4TfbZFCnQZZOnT1vJlmq9V298a39zs0TYPJZMTiuZNw5Yx80PCbawSFBcEDXYAmXoeOA4mwtjqLjuPMHrv9Qax/cx+umJ6L1KTYcwaJFGa/W3YWwRU3FbF80qADSoqr2OHqfcG3ijb/rbqx9qc0QNtoPPW73e7gR8zIIiDFpVBFB5JBAEmVD/hzkw3jx6fBZj0P8Rr7wYH73M1Iaa3DZ0TelH60662qDiSjCkiQnp5uNsryVeB8UWJclDE1MXZRUkL02JTEGElYQ3V5/RiblYxxrtTIElmdzQ8kbHWVEJFkUl3fii07D+Paq6ch1n72S1wwpOGtPUUIdAMTk68C704cJPf3NK9qKedvFL1c3q21vM3BW1vauvb7NW1reXl55WiUUHQgGSCQiHvXe23Ay8F4FIxPgSLMry7gUtvkgftwJR7KVWEc5FR1IBldQCJWuxKQDo0blz4zL/1nFpPxFqFYT0uODRMiEBTPU4ApUssrpoL7WwFNXOBPLULdHd+nVCKCL4pnLYNBDudiP5sMxBjHroMlKKlswBUTZ0Py5EH1R2hVc46zHFAD2FO5BcbolmBeTlKDJJHOHftKane8X/xmu8/3h+rq6tYL+FMwLFPTgWSAQCIk+P/WAEXmJEzOS4a4mZ0oPe+v59gvEWYiAuX7UO64P6jhlW2l+Hp6N3Ltg7Pa0oFk9AGJWHHd3j8n/vDR55/LyUy+OibKgpTEniclu8XUP8urMJC0HX/WOoXLxbkxJUCjhvD5kYQn8CkKPXHGuv0BvL3nKLy+IBbMGodoe+/hUMTxK65swOZ3D6Jw3nREIw+dDfHgLMKnt7McPnG2SxuLURPYiRWL83mUzSJ6ZG2d3U3PvPT2kb1HKn5bXFoq/KtGVdGBZBBA8q8qgoqoMZiQk3ASSLp8ITS0+aEy8ZL6UbW2YGNh7pgWZ4HFGLlycbBcKW5nez+oxTS1GStSdSDpDz1Hs9XWqXTa8o/V6X97fsf/rpieN3NfUQVMBgUi2sOyeZNhMxsjN+IQnumhLiDoOT1WlmQMSyQl1U1oaO5AfnYaoq3mMFh5fAHUNbVjf1FFOJ7XgtnjEB/T4+PRWxHRgl/b9gHG5aQiP208WsrHIDQE0ohEJbxX9g4siTVYeHk+FOE8JhQjnAff3H3k2HMb31tz8MiRH482XYkOJIMAkmerJTTEp2BsZmz4bVgwfFF1J4prOxFtkkRO6A/5Key5TgBK0dqtYu64JGQmWgbsGNifD+GJumJe3e5yfDUHGAyG6RLJ6JRI1qxZbfvvX956em5B7ieaW7vCllCXTR2LcdmpiIu2Qjw5CQ91qzkCfaGQSkLek8p24WlLFBsgGdDU1oU9h8rgCwRhNRkQUDWoqgZCCTKT45HvSoXFfPYnKk+3P+zsKM7kFZOnoKsuFd0dtsFbmQjLAyphb9k2KHHVWDwvDwalB0iEVFJS1djx5No3XiypafxibW3t8bDEAzmpF18bHUgGASRPVcroTEpFXkZMGCPEc9XB8nb4fEGkxyhgZzohgkC4h5S1BpCbHoOMEQQSMb9WTwiH3i/FF9ICyLQM/FzpQDI6gYRzTj5749J742OsP56UlxlztKwOPn8QCbF2JMdH4dXthzDOmYYrZ+ZH5qkediYUjronHAo/lNCFVVZbhxeebl/YyTbKZg7/CMnnXEVYaO08UIJQiGFG/gTI3Q50t9nBT4R/GOQ3mhCK8uZiVHfvxrWL8hAd1TMfcb5qG9qDf1jzxnMlNY33lZeXnzN+3SCnccE114FkEEDy11oFzXEpYSAROhOBG3vcLQgFAkiP7v3GJJ68KtqCyM2IHVEgEZwnvN93HqjFDaZWzIkXwDcwftSBZHQCiVj1/bff6Gpp9fzUajHeUDDBYRTPW60dHhxyV/Nom7W6qbXDk5Wa5LqiYKxRSCdCSh9ciTwInbDk2vj2PiTExGBW3nTQ7kwEPULqH5xe5Mz5+0N+bCvZjCmTojB9cnKP+wsHO1ZR3/7k2q2vtHh8dx89erRrcOu+uFrrQDIIIPlLjQFVtgRMy4kP60gEkOx1N4MFghhzFiAJaBzuJj8mu+JHHEjErWlXUROmddfh2pSzRpTok4N1IBm9QCJW/n/fu3usu7zhq1X1LYsMBtneHQg2OVITt1+3cPrfv/nTf5TLJuXBqwryb14we3ycePIa7hIKqThaXoed+0uRnZaJ8anTEWyPhxpUhmVoAY6VLWUoatyFqVNiMX5sYrtEacvzb+xp2LLj8Nojbvdvh2XgC7hTHUgGASRP1ZpQa43H9Jy4MJCIp6297lY0tXqQEm0Ixx0SsbF6Ss//+DWORo+KqdnxGBMrbmwjxx1ijkVV7bDVV+OWVA2WAer6dSAZ3UAiVv/+87+JqahpzKuobbUZTYbmOJt8bNXXfuMTvxs3LivFqtjvmDw2/e4FsydkZKbG9ysGV6QnQnzQO71+7DlUjppaH/JSxiMjJh9BrzhXQyuFnDknjamoaC7F/uod8NO6I5TSg2VVTWVdgcBfy8vLiyJdw6VSTweSwQBJnQm1lg+BRGBCfZsPx2o64QuoJx3/gqoGoyKFD5PQkcTYDJiQGQOzYYBf8gFyn1A+VjV50F1Rg9uS/YgZ4IVNBxIdSPpiwakOR4wlLvpaZ3riA1PzM/NyHSlSbJQVsiwN6rlL8LCwQBS6E3dlI9wVjaCheDhiJiHekgqwAQTN62sx5/j9kdoDeGH3c5vb/R0/JYQUV1VVNQDoib46iooOJIMAkqfrzWi0x2OSI/ak+a+4JQVV8aNBBDcVUopgfGETL6xOhC5FgIpwYDzbnSkcMTioQZHJkN7kxNNWc2cAVUercGdSN5KNA1O460CiA0kk38iCggIlJcY4w2YyPGwwKPNzMscouY4xGJMQA6MiR+xLFQ50TQk0jYW96MtrmnDwWBUIMyMnYRpiZQcUaj5bluxIpjqgOgLUGjvq8OLef+8vrztyfVldXcWAOroEGulAMgggearOjM64JOSlD23AxmCI4Z0jjXAm25A9xh7xgYuEH7uDGo4crMSnYzuRZR2Y+K8DiQ4kkfCaqCNS9eY4XN+dOS7/tq5gu722uQljQiAK3AAAIABJREFUEqMxITsdWakJ4SCPp/pbnQygGB6Ah6UXkQSrqq4VZTVN6OjygjMJ2cl5yLRPAvP3L71vpPOOpJ4I8BhQ/Xhhzz/bd7h3XNnQ0HAwknaXYh0dSAYIJEL38WilGXxMEvLThhZI2jxB/HdbJSY7YjAnL3FIgUTkRdl/sBrXWTswJWpgChodSHQgieBjSFwuV0aqPeXBaVmzPzEla2p0XCKIj9SgurUSdS1NoBIPOxWGUzlrWtiKUMSsMykKAiEV/kAQnR4/un0qLEYzoi1RiLMmwy6nQlLjoAVH9hmrtzVTQrFh/3+63zm25eayysr1ozHOlqCLDiSDAJIfl5oQ5UyDM8k6ZCHkxae9qtGD196rREpKDAqnp0buMRzB6VY1jn1F9Vggt+HyaHVA89aBRAeSPliNTHbm5Zqt0d8tcMy9cbpjtsVssISjtsuKCmr0wc/b0eZpAiNBgIYQCIXCXvIi6gPTCDyeECg3IMoShVhrLCxGGyRuBQ8Zoal0RI1UzrVWASS7St8JvXXstR/6uO+XozU/iQ4kAwQSEffwgaMKHBMdSI8T77NDU4R+5GhFKxpLa9BojMK1szJgUgYZZfGUqYnDetDdjFm8GQuiQz2ZFvtZdCDRgeRcLDM1f6rDqlh+PN152cenOWaZjGeGhhd5P0TqaCK81UVG0Z4nrBNFWFyF/yosr7hI69uTDnQkLRwjPRICHd0NRWzT/hf+VtlW+cXq6uqw5dpoKzqQDABIBFt3hICH3QbMnJWDaMvQidji6WlvUQPy/M14L2jFjMnpiLMZhuwQCSB5392MaaFmFMbrQBLJgddjbUVCpZ46kyZNirUT+3cLsmbfMyP7CqtMh+5sRD6Lka3Z0d3Gn9329KbS5v2fqa3tah7Z0S+M0XQgGQCQiFu82wM83mDF7OlZsBmH7rB4fCEcLqrDElM7XmqUkT3JibR4EbhuaBhGWJF9UN6Gcb5GLI8PDig3iS6R6BJJb9wo0vLGxKZ9dVzq1Htm58yLt5uihoZpL/BeVC3En9vxlx3FdQc/566s/OACn+6wTE8HkgECyY42iv96YzB7UgrMxwO3DcUOtXQF0HCsCjfFdePfVYBprAu5qbYhAxLxhPBBZQdcnXW4ITF0isNk5LNvCwJPlLBtayvZp4srK0sjb3lx1tQlko/sG01NTTXZ7Xbp6NGjHvEIlZ2dnWSVzPdNz5pz90zX5fExVpGrZADvphchi6hMxeaDLxUfrHr/CweOHXhjtEX+FVumA8kAgERYbL1YR/A2ScTl45M+ktSqJxfJR7M/n/IKHHbg6E3IqGzyAhWVuC01hOcqGWoTMzHV1RNd+NTykTHO6pRyYhzxDh0Od40D5W1wtNdhZYo2ICA52sW1P7j5+j2d6r37j1XXXIRnv19T1oHkQ3I5HA4TYWSepgUngMEMKhWbCNtutMSump4163uXjZ0fN1okkRNU0ZiG7e43G3cWb/3y3qP71+pA8rAIe/7hNUJE+3zllVcWMkamFhYuebRfp+8iqHx5nmvGygEAiUyAP5VxVMalY3p2XJhiPR9pwOMPwR/S4PGp8AWESSOH0HsYhQMiIbCZZJgMPQ6J0RalByB6/gv/HCxthbOrPvyR31jHsZ/GYUJ+CmRFCgOPGCMQ0sIRhr2eALxBDb4ggyegosOnhV1qRR2bgcJuksLe8wajAqtZQbzdGB67vLYDyc01+NgYDWItkRYxflADnq3k7c9V8YdiNPmPG91ukXT7ki46kJzcXpLtdH46LTH2joWzJ6RZLIp5x76SlqPlDcVZsdkzri+4JctmjOo1D8+lzCCMM+yr2NX16qGXvnbg2Ad/0oFEB5KI+D3EgMfcDI3UjGi7GT6Vwx9SgWAIIr2PUSZhSyvOODoCDA1+juwoKWwhRSmBL8QQUBkYoeCSBFmRIRsUBEDR3u4NzjT5gzNiOY50AG+1Emq2m8O/C4QYb+nWeEDlUMAQKzFYZQ6bBMTI4t84QpzhSCfkMSbCFZlqQU7QxShaggReRmFRCLGAYbI1iKuTCI/YHowAdT6Ona2kfVsze7VN448cKq44EhHBLvJKOpD0bGB6enqOKyXxV7fdMM81PifVBVBjS3uX/z+b9iixmKAUOC4nZ0rOF/nWRzR94VBZ3HDE+/LetT9r7Gr89Wi03NKftgYgkQjHqYMdQIMfEEF+zTKBWSGwE4Yo+Xj+quOy3YF2UZfj4+kEpp5w0whnYOBAtwZ4VcCrIQwUWxoZe76Kv55qxA6Lgas+DaTBx8OafApwKhEuMWEQCSZSxIvkbFT8CUD8XYACY1Sq8/PxCuUsVqGHOWFcZYCQNYMhIARQDSDRMni0QKMIkUTTQNpCpJsyHG3XpO3vu90to8X5SgeS8PdUzkjN+MwNCwu+snLprEyJ0nDCdmEF+Oauo+ioScaUjDkQfhWjsfz/9q4DPK7iWp+5d/tqV723VbNkyb1iG7CMjSvYNJPQHvBCJ/BIoaUBIZUEh/cgBAihBEzAphs3jBvuRdiWbNXV7kpa9bq93DLvm5VFjOOislqtdGeMsT/r3in/mbn/nDNnzqnvMHk2ln70mrXH+rTUcpEQeVMiGQSR9C2UvjOOCxxPwIEOgCYvhlUpCC50HYScu3xsxfzPysSn9Fh4Bft8/sEsSLdWK2MwXoEwE6MB4V3B4+EGU8+53vFHRnJGo5H0K0g+ZMHq2fDWQ4kEICUlRaNiFb/94a1XLp0zOXeciHuVWbIh2n/MCC2mGJiaMUeyRNLYXeffdnLD2jpb3WPV1dWScwGmRDIEIrnY54toHttaAbw8wIrkXq3hfIX87KOGAJE8oVTKXzIO/uwBjcvInicgvMDmcrzQ0dEhqQQ7F5PJYH5OiQQgLi5Ol54Y//ef3rliSlZafH7fBUI/J8C2PTUgd+dBXkLRfziFDAbv0fhOm62Z21W5ZW1Fe/mjlEjoGUlQ5zAJGf9ZI4ZIBYIFCb2mp/MSCQJY34C5J0/i25saLO8PZdefk5aTi2XCzXKM36mqqzMHdVASrIwSCUB8fHxEXJT+tYdvWTJnSkFmJnHEId4h9Q1O2L2vGfLjZkG8PkmCs6N3yE09Df6vTm1+t85a+1hlYyUx+0qqUI1kGDUSjwDwkRVDoR7BtIBF+fyFmMfetmDu9+VwS2OjmbgQDrrkJuXGiwr+fpGBzy0Wy/FBV0RfDCBAiQSgEAoVrjTX/6xcMPWWq4qnJgBmErq6vezew1bQ4DQoSpkCctm500uP/WmEwdJhcm8+8fHfmhxNz5pMJtvYH/N3R0iJZBiJpMvfSyTFCQjGRZz/YIGQCIcBXq7B3N+MQyeSwsJChc/leRgQNtZaLJ8NRbuR2oI413gpkQRQQRkZGVnxkdpf5aQlXaJVRWQDFymPVqTC+JTJoFEMf0rdcJ2LAfff+iP2neWbnvIi/8tSDNxIiWSYiISQQ6MHYGMzhhXJCFIuENeRPOsnLsU1mHvNhG6yWk0f914rmc5CWqsMOI6JE6IYkYRFPV26SAxuhUMAjUaAyEgRSkqIY9a3h+BZGVk3MEicpNRqfyPFiR3Mjw4lkn+jmZeVdXmSLu21GTnz8nMSxkGUhlyWHYueWr0XismC6lt0vYvru34mxN3Z5/fAphOfVJxsOHFfhbni62DOvdFSFyWSYSQSowtgSzOGmzMQRF9A6+8jktfNwK9rEP+qZcDMMjg2Vs7EigCJWgVERrI4Ts2iQG5ejDC285jzCqjNyYHNJ6B2J4+aBQwtDBJ8Khm2t3hRkotDV6gZ9KN0lu3ZLEFvq2AtQkok3yLJXFI069HZecW/mJY5K4KYss6M2hssvIe/nl5qwFgEok2QP4XAnyT6gwhezkP+HvhXFrGBIZLnGMSQtKZIySpBxvZmeHT7XLjUesR2zHL41U5P9x+k6PpLsKREMkxEQsA92oXhmx6AOw0Xdv0lz5KD+ZJuDLVOwDEKwAoGQC8HLEPAqGWAImQAytNbI7In8omBeyjYxQF4RMBuHsDOA3h44P0Yelq80LO7HUdGy9AGP0bHWt3YGKOBVpfgtx6ubOyWyh2QYHyUKJH0okjiaeXG5r2/eMLKBUlRqcGANqR1EDLw+F3g9rvB6/dgl88Jbs7p9vq9PU6v3ebnfR6EwOXyuUSEEMeyMpeMkYkkZTbGHAl8r+IEv0ol1zAyxCpFwODyOl2Ntrodna7uN+vq6ppDOqAwaowSyTARCdnFEI8tklLh2tT+xSHhT2vNJGzJ2W+cfXHjXDUSMiJ1kJv3XhHgDRMGFYu4NDW2W9zgaPZC26luXO7CUIExHGpyeI62tra66RnKhVckJZJefDJTU+fMG3fF1iuKluvUCk0YfcbO3ZVA2CIQidYArfYmsanHyve4OzucHmeF0+do4HhfE0a4xcf5Wlx+V7uXd/TwPHIyDCOS33qZjPcyTGDpEcu0g+dZnudlxGONYfiAjUEFCi+r1baXl5eT4JWSLZRIholIyEf9nToMBTqAS2L7RyTBnIVk9n/ZgqHODXB3NgpoMA4OcLsP40oH8Ps7cYfRAYeMTvQ3tVpxsKqqit43OY8AKJEAEAcODVb/el7+FY/Pyr4srPce5NyCmKcau+qhtq3KZWqr7nT7nEftnPNTzOGjPGPrcjqxq7293Xt6IIEwdmE9qGB+HIahLkokw0QkRCv4fSWG1WkA4/WhJxIyV+pcAK+bRHi0gIFI+b9nDwnsSExhh7sw3t0GTotL3OoW2PfbeO6Aj9V10MP57640SiQAhYbCpMSYpD1XTV2dmxRJzFrhF9xAFAVw+uzQaG8RjC0nWyuspXY/71vr4jzv1dfXW4lzZFh2fBg+7KGukhLJMBFJuw/guUoRfjaeueBB+3AK3MEDvGzEcE0qQIEOnXPpExflsh6MT9mgpcyOD9Y48SZekO3Sp6dbdu3aFQgHLfVCiQTQlTOu/L5OHfnGqmk3qchBczgVchpu83SDucsMdYIN3PGxdqff9Xrjro8ARP5Lo8WyNZz6Oxb7QolkGIiE6B9HujBsaQF4rAABOTgfiULOS96tw2DQACxIODeRkL4SMxwhnVonFg93QcfeDvFwnRPexK7IraWtpa6R6Hs4tSl1IikuLpYJ3cKa2TmX/3CqYdbIqNfnmBDEQVcEERq66uBEdzU4MzJAM346qJMyfKxS9ebRZ24zOdvq/LdZbn/xGXiGRCyiZZgQoEQyHESCAD5vxEAyCd6SiQaVPCoY8iZh63e2kfssGG5I6x+hkbOUagcW36nDLQc70V+1rOLFfRI/P5E6kSyes7iA9/GvrZ59x2V6dWQwpmZQ6iBeWBWNpXCwo8yhu+JaFD1xTgSrUAXqRgxzqvaTlz+o3/y2Hjnkzxq7jPagNEorOScClEiGg0gA4P9qMBToARYlIDgruWHIpiIhklM2gAOdxLyFIKafESyI9bvJA/BxA/bs7ID19W5YI1OrK6R6diJxIkEzi2ZeNT5l4ssLC5enydgzDttCNpP/syGnzwHHm05AldyNI6Zd9kHsxHkiw7DXA4Cyl0mQy2Eu31jy3D127HU/a2purh/B7o75pimRBJlIiN5PzETPV+GANpJ3gdAowz27SF/afACfNOKAaYv0pb+lbxzb27C4vQV/fcqJ/uZi1Zuk6OYoZSKZPn26Brnxg1cULf/55IyZYaGOePxuKGk5AXUJERB7+SqsjEp4GbCwAwP+HQDKP00kmPe6Th3/0/09NmPpTy2trYf6O/fpcwNHgBLJMBAJcbn9oB7DnVkI4pUj69/iEwA+bsSQqUUwJ/Y/76dcaMoQMiGmrio78B82ijW7W9FfUFTMWyUlJUHLcTLwKRv6N6RMJPn5+SlZkdkvLChcdl16jIEl2QBHqgTORLAIJY0lUBMlg6jiVaCMSSTX0dfKQf1LDvkeAQQPB2wA5JY6gMv4r+ctdV+99ydLY+Na6M3vRsswIECJJMhEQsxJ5Eb7nnaAu7IRkBvpI7f0SGgHgO1tAB6hN+YXSaA10ELqMLswfrUWt+xoxb+qnjXrTVi/nngRS6JImUgKcnKmT8m45LUF45dNi1DpRlTexDursqkMDostELviNtAkZhATFkYYvSePSHyo4+S2YsQq13Ium1qhiwZtsgHaS3bUVf/rT58KnPfxIeT4GdFxj4bGKZEEmUgIaWxswmDneg/aR5JE+iYgSQt8uIvcaUEk7Mqgi9mJ8V+qccvxHniAjYrdKBXNRMJEgmYVzbppZvbcv8zMnpcgZ/t5yDboGXbhF9vtLfB5/U6IXfXfoM8qCuS0FnkOvG0NX1e++ZvPZEpZcVzW+EVa7FU7OAzaqYshIjXHd/yFh/e5ak/eVNva2jZMXZN8tZRIgkwkJAfJJ1YMGVqA+fEo4Fo70qXNC/ChtVcjMWiHpiHVOED8vxp84EgXPFluNu8n3sMjPb7hbl/KRDJv8rwHZ+dc9tyUjJlqlhm5+yN+3gd7LXuhuTAfki5fFVC1PR2NYK85BlxjVWeyTt6cPWlm7ri0BFWkSg6Hy6rgYG0LpC69A8pefvRAV+nen7g57oRCwenVrD6OAVmkQqFRK1hFQEeXM3JWAAF4wQc8xpzIiw63z+3wg78HIdRtMBj4Xbt2kbkeBit6uGf8wOunRDJIIiGeWN+Glw7E9Oktnb7eM4nL4hEU6ntNSyNdyC37DxowJKkAFp7hRXa+MVyov2Q8O9vA9269+FGzD/1sf4W5bqTHN9ztS5hImLkT5/5s/vglvy5KnYxI6JGRKMSkZek0wX6uAeKuvTugifRUfwNcXRlkJcXClIIcX05qglut1kbKGGB8Xi/sKzfDtoPfQNT0K6Fpyz8tuK62RIZkPQij+LjIxPhIVWSkVq3XyBkS2S7g5cViUUSCwGO7z85xvN/h9ru6etxdDp7n672C92S3o62EUSqbHQ5Hd2trq+TvV505FyiRDJBIyN1Csi0h7rHEfEXOHOKUAHGKXjIxOgG+asVwY/qFQ8eHekHu68BwpAvgoTwEgaCQCKDFC4G7LmQlkRAqhGjIv1+M/BwcwHor7v7ACr9TJmW+MNZvwEuVSKYDyFUT561ZNuXaH2bHj4OROmgnXlp7Gg6Ac958kMcmQsehzZCq8MPll86D3PQkUCnkmMeMv7HLLmsxVbONJiM01LVDV0s3qNUREC2PEGNUMWJsRByK0kQjOatEDMOgQFaGs8kRYxCwEDirxyBijvdDu71FbLY1elttjU6H117fZmvd4+adO1mF4mBlpfTS6p7r20WJZABEYuMAKuwYDncBNHsAdKfPG8iHd5wOoDgegckFYHL1/wJgqAiFkMZfqkR4JJ8J5I7f2Yahwg7AMr1kSExy5Ab8lOjebI4XO0uxuABeMop1uzvxnVW1dbvGssovVSLJzc3VZ0Vnv7V44sprU6MyRoxIGrvrYZt1LwhZeaDoscJlU8bDrNmzQavVgM/nh462Njh27JSnoqpernWKslRdCsRExINeFQk6dSSwLNubNyXw38BNBEQTI7+Iea3L1QFt9hawdBh7Gjote/y8/0Ony/klaKCrvLxcsrG8KJH0g0jIjr2HA3jDjOFET2+IdpJhinxsyU4+llyBwhhYhALkkq5BsDgRgHhwhUsh4VLeMpM9FoCK7b1fQuJs1bt7iSRR1UskZJlpWICrU1BA0zpfIc8RDef5Kry3wcPcfLK2tiFcxhrsfkiVSMaPH59cEFf4RXHB0mnxusRBfYSDIYvSpqPQzFqhy2mHyROLoHjBFdDZZYP6+kYwV9WB2OUALdZBki4VYnQJoJarSRKqQH+DnXgrYN7DAG6/C1p6GsHcUd3V0tNU2m5v+7jb1f1VTV2N8XRwyGAMfdTUQYmkH0RCPsIbmjB81RqIRxU4B+krZF4RF9+rkhGoWYBSG8C9OQimRIXfHCC33J8+JUJuBCJJseBYDw5EASZFzgBMigS43YCg2gmQpu7VsGQXiBNGzl7eMGPvugb8xJEaw18BxmaQR6kSSX5+ftaUlOl75+cvSYnUjMyEJlrA0dZ9MHnhRGhrb4d9+w9CbtZ48LQ7QcOrIUGbBLHa+EDO+FAHkyRE5eO80O3sxJYOo62y+dTBpp66NwQWtkgtLQMlkosQCVEqyDnCP8wYONyb44Ps5M9UNsguf2EiglWpKJBal5xDXChH+0hQDOkvyaD461M4YH5r8eAAmZxZiIfZ4wUIiiIBSHaSlSm95HihQi5f/qIMf93gEe/7pqauYiTGNtxtSpVIUlPjxl2Wv+zYlUUrNCo5Se0U2kK0iqYeK5TaDkFSVhK0NnSCt80DOYkFkBaVDmqFFuRhErKFEzho6m4QjtUdbqtqLnvP6e551WS11oQWsZFrjRJJPzQSsvMmSaoIoRBTELlwSM4USCHmqwQVwB0GFDi8Tlf3moUutJMfKXETMiGa1ZsWDK3e3nMRYjruK8S89Wg+gk4/gEYGsCSp92D+QoWQ6D/rcOdHDfBkAqN+e315uX+kxjdc7UqXSBIXLi66evPCohVyhEIfwpqYkaqbT8Gumi0wLnECjEsohER9yul86eEXzJeco7j9TjhRX4JLzPs39XhtzybUJJTsGqOa+pnrjRJJP4iEfEubvcSFVgSvgAKEcrwHBz6yySqAgtOJq6IVANelIoga2Xtb5/2eEjNchxfg/QYM5JJim7dXKyFnJMQ8Ny0aBcZDyIGQSHI/NqEEmzIbFt604A1ldvjRwUqLZbg+6CNVr0SJBGVnZt+0bNLK1+flXaEezCH1UOVFzjeaehoC2Q7TYwyglKlG7Jymv2Mh5McLHFS1lHPHzAcPWnsafldaVbptrN+3okTSDyLpm0TE5fdoN4Z6F0Ctq/eDSz685FA6KwLBzOiLezv1d0IO13NEAenw9Y7D6ACwuAF4ESCKuP+qAbK1ANOjUcCBoL++AsSb7Z06sXFjE/rxvirz+rHmwSVRImGKsgu+t2Tyta9Mz7pEP1zz8WL19h2Wj9Qdlov173w/50Ue6tpr+QO1Xx+rbzc/fqr21Jj2bKREMgAiIZOGHLx7BQAn3/ubeG1p2V5PqHDy0rrYAiDjIAEdyRhcAkAE22vOImciA43HRcxj+zqx+A8TvFeD3feVlo6ty1pSJZLC3Pzrl068/vXpWbNHjEguNo/D+eeiKBI3YWFz2SffdNg7flhtrj4czv0dSt8kTSRTs7MX3ZiJX7rDgPK1A4z+ENitk/+dcas9cN5wjm183wW/M4mGHGx/54ON//Nu1FAEO5B3Tw9jIK9851nyPjlXedkodn7UwC6pra8tGXRlYfiiRIkEjc8Zf+PyKdf8Y1rmJdowFMuo6FIg0GRzGWwv3/iFy9H901JzVfVY09iJICRNJDnp6ROuTpW98mAempukAnSuq0p9hBFISStCwHOL7ObJ3wO7ehECLrRuAQtuAQl+AXMCBr9XRLxHxAzCSPCLOOBkS7SWvjbI7XCtDFg5AzINi1itDMvlCCk1MsxqWIR0RDuQASiZb/kq7BfOx1bgX64VnjpcXffHsWQTliqRTBpX9L3FE1e9PTVzdpie+oX9kgh0kGgmRy0HnIeNe17p7Or8Y3VTdcfo6Hn/eylpIpmYkRGdHcn88pZMdO/iJKTp0xACd45wr9mH2P9JoioHj6HLFwiL4nPxqNvO4x47j+1ODtx+jFyCiB0uAWxuDnV4RdTl4LGjx48ZlsEOBNgunIunRBShkUGMXsFExchFvUoGSVoZ6BlAulgFJGZqIMegBU2mFsQEJWKJJ9iZXlb9F3NonjzWDfg35eKeCju/1Gq1ekLT6vC3IlUimZBbuHrJ5FVvUI1k6HPM5u6BvdVfGcubyx45XnF801jTSiRNJMR7d2p2+rQcPfvnS2LRpVOjIPCxtnpArHcB3+nDgkeEph4/srT6RJOfZ+rkLO7AmG3r9oqdXobv8gisEyHkiZH7BMGv4P0uDW9X2gW9Xh9wEC4vLyd/ni9CLpObmyt3OByyKCGKkalccp9KxXIcJ9MyTHqkQpyolTGzMzV4bnYEypoSCeyESKSMVEAgzEm4FXL7//6jYnOFm5lvMpnGjA+9RImEGZ877pZlE6//6/SsS0Y2EUm4TfRB9Ick5KppqRQO1Oz4pJ1vv/v48eM9g6gmbF+ROpEETjpyc3NTFSJ/a4YGLkMIuzv9YG5wsYc8WKxVi0wXw/hccrncZbFYvKGXpEEVlQRJOjlMSVXB6gQ1zFmaiJKuSkXqaHl4xbQm5z7PVWJfaQ88uPGk+R+hx2p4WpQqkRTk5P3X0onXvjgr+9KIkXD/HR5pjlyt5Bb8jvLN3sO1e+6rttS+Q6xeI9eb4LZMieQ0nqtXr2aPHDkil8lk2BgZKUJJCTnXGHiEt+DK58zaAtqLIAiGDCXcsyQJ33xNGhObpgJZIKJcGBRidtvcgklwyD8dqql7YqwsFIkSCUpNTVq+dMKqT64oWj6EdGhhMDHDqAtN3Q3wxfH1J9psDasrxpDWTokkjCZZP7uC0tLGpSSq/LfOiYM7bstEWeN0SDlQl91+tjXgx0hU4J+ewB/Z3PDgIbO5dcAVhOELEiUSSEyLnnhl/srDiyZcpRrp7IhhOC0G1SVBFGBP1TbfAePuR0/WlL8UZpvVQY2JvESJZNDQjeiLKD6+UJugc189MxqeuNXAFE6PBtlIkwlRi4hzwnOV+GRJB757n9FycERRClLjUiWS3PT0nJl58w8uGL8sTquMCBKatJrmHiu8d+Af7/ocvv85ZT3VNRYQoUQyuqWIJmRlLZqfCC8/nIdyyS37kS7kzsw/zLj5b7X4fqPF8vlY2HFJlUgKswszCtMmbF9QuCw3ShM7FkQ50ssjcNHM43fBxuMflTfa6u86XHb4QBh0ashdoEQyZAghcHZhNBrJmUrI85fHxOTq56XyTz+YyzwwNw4ukEFk6APtTw0k/tgXTbjr+Wrxl61+9MbIOCj0p6f9f0aqRJKSkhI3M2v2ugW7vfQyAAAgAElEQVSFyxYk6JLCPs7V2RIlEXk5wQ+CyAMJOkkcBshlMWKmU8gUgX8biUL6caB6Z/vXVdseU+jVa0tKSkhCrFFdKJEMQXz5mZlZShZdomAg0SfiNh4z+yrMZmtICaW4WDbVarrm5kx2zQ+yUPrFovUOYbj9epWY13a0gfOvRvHP5hblmqoOEpB+dBepEkliYqJ2YtrE15ZMvOam1JgMFO6eW+T8weVzgNPrwN2ebnD6bcgnE8Gp0gIrV4FIfrmcEMEJEK+IwmlR6UivDn2eFRI3zNha6dtRvunv7W3Gp05ZraPevEWJZBDfuKcAmI8zMqbGaZlfLk5Cc8hhd40T+7a14G/avfBPuwibLRaLLVS2gNyMjMIrkthXfzwOzUvVABrJS4skDMyBDvC9bsL/OMlxvzx1avQvEqkSCQDI5kya86fFE1Y+Mi6pcBArZfhfIR9lkle9xdYIFW2V0CW4AOujethIXWvKuHHZvD5e7tbEAzC92gfvcYHQ0yHajmx3RjS3qebmzlckR6cPf0fPaqHD0Ya3nfzii+MNJfdbrdbGkHcgyA1SIhkEoDk5ORMy5eIrj+TDvEvjUCC7IAmXQiICf1CPHQc6xE8b/cxLZrOZxJwadnPXpRMzouMY9tc/GYfumxoNsr7YXoMY2pBfIURyrBv4N8z4/ZJu5ieltbVtQ650hCuQMJGgS6dcev9Mw7znphhmaWXMAAPSDaPciMc7ibDbbm+BU63lYAI7aKbMhbhpC4BRKJtZxOxm5fIFIobE3o3V6UB4iJxSIL6r4nBzzT9/54nGypjrZt4SlxBIJRy64va5YOvJT/cerdt7t8XSVBm6loenJUokA8OVKczIGJ+hZ351h4G5bmkSyM6O+Eu8lg51YXFbC9QZHfBhiw+txypHRXl5u2u4NJTExEnaGfGOJ58sRI9NiQL5SBIJ8dwyOQG/ahI/394kPFDV0NA0MIjD72kJEwlMzZt4+YTMmX+bX3BloVqhGXHhEPOax++GVkcrGO31YJX5QTV+KkQVzABFVFzfuYcLEGzBGIoQQMG5Ou139jhNH71o6ji83TQtc1bxgsJlUaH0TCM5VnZXbCs9Ytl/b4Wx4tBwfRtCJTBKJANAusBgMOTp4Mlr09Aty5ORVnOONLTkQ0q0E5KB8EAn9pV042MnbPBJi0v8sKa+vm44NJS0tLTUSxPkax7NRzfk64AZSSIhcJIkYC9U462f1qN7mptN9QOAOCwflTKRkLztBXGFrywYv/TKeH3SiF58JYfm1q56qHLUgS02GnBmNkRkTwBldDwghsWAcV//iBWgBDB4AcGlJBTS2RMLYyz0VJU0Vbz1bHWUKItaOfXGaZnxOagv/8lwT0SSi/6gcY/lkHnPg8crjm+mRDLciIdJ/UVpaTGJetlvr09lbl6ZCnqSh+RChcxovwjQ5MXi3nbo3t4qnqhxwNoOn/qzxsbK7iDe+kY5mZlzrk9Dr/1oHFM00HD4wwEvySD5l2q87/1G4Z6W+vry4WgjlHVKmUgWFiyMxVr0m/n5i+7MSy5UhupDey75ttmaYUPFBtBcvhxips4HWUQkMKyM7NusQIJZIWQAwKdJAzchQMcxwEKAc3szihznMX/+WmX77k+iV079XubE9KkhIxJe4OFY3aHOo6b9D+0t3ftBEL8HoVwa37ZFNZJ+wB4fHx+RqI944tZMePT2TKQY6MeaaAi1Lgz/qgPvkS68zeLBb2GMd9bX1xNCGVLJyMiINmjYn9+dDfetSkVhkTfCwQN+w4T3rW3gHqg0WcuGNMAweFnKRFJcXCxrrm++bVHR8j/NzSsml0lGqCAgu/j9xl1gToiApMXfB2V0IulLAyDmCQCcCxg/DgB99jc3AOwCBJmAoeh8neY8DvvJ39/bvjhrfs6k9OkQKqIUsQCnrCdsh417HtpxbMdaSiQjNK1C1Wx2dnZksky8//IEePLubEYfrxxcAC6ioZBMhCd6MBztgs7j3fhIkwdtbOdgD4+QxWQyETfZgQRxYyZmZETq1OjBFcnMw99LR/EJYXAhkcjFyQF+24L3/quBeaC0tvZkqGQ1XO1ImUgIpjMnzVyYFZ3z6rLJ1+UoZCN3VYl4aPk4HxyuPwB10WqInLsUVInpbkauIGlsTwCGWwBBRt88wABHSDBvjOAqwHBOGwLn6BHb313jKo6ZpCN54UPl4hwgksYTtsOmPQ/tOEqJZLjWbljUWxgfH6GP0d56RQJ69E4Dyjpf8qv+drbPgEvym5BsHce6cfeJHqg1OmBXB4d2N3hQpeBGbV0x4AOj0X9uu2mxLCWlOipZo5wWo4SrL4uD7xESSVb3txfD/xwlkuHHOJQtTMgpmKvTRL9685y7JsRExIWy6XO25fa7oLq9CmqxHfxZOaAvms2pouPLGbkKY8BT/p20B3cCRu9iwDcghFL/XVnAdQt4twPaD22FxPIquNRwGajkoduJkfOeE/UlXUdMux/++vi+fw1wEzniMji7A9S0dR6RkGjA5SUl1yxJFH99m4EpyI4IXkr2vtS25AylzQu4yom9J3qgtcKOmly8aOnyw4k6D1OerEWWRBnn9vCsYBdBVe8QYxOUTE5mBCwp0MHs+fGQPjEKKWMU58zwO2KTjRLJiEEf9IYNBoNKhvGtakXEj5ZNvq5gcsaMkbkOftbIeIGDblcXVHcbwcJ6QGnItqmSDZWylNyZCn0sg1gZ0S6IgrENARIB4ysBAQsIAe91g6+tHhyle0FbWweXp8+G3hAwoSvk7sth0x7rYdOeB4+WH9tAD9tDh30oW0JpaYbL58ah1/4nD/KKooY3mALxXyfnKCRtr9mJcY0TuEo7QI8f7BhBk4jBjwAnqBiUlKEFPD0a5AU6xKhk4UUgfQJycMT9F+9fZ0X3V5pM9IwklDM3yG3l5eVli37+BzKG8U5Im/b4qunf17JhdJ+EnGm0OZrB2FYFLc5m3hEVCWJqpkwVlQAqXRQwSq3H67F/JdforhA9Lq3P1gHe1gZQWxsgUxELUzJmQoRSH/LvOMlNsrfqq4oj5r33ldVU7Al5B4I8T6hGchag06dPl3u6ui4p0OMX78tBk2fFoOCpIv0QHrmXQjQWkhu+w0tywfe+pGQBYhUAapL3HQ/sMKUfzQb1kQ4f8doSd71vZe9ut9Yag1r5CFQm4TMSJjcj6wZAYpoyNvbzuPi8rxYlzMjMjh83AlI4f5OBdDwIwOV1QperHTrsLeDmvOBDIoBCAQIvuEQkKlhBlKtFBiLVkZASkwnR2tBqIWeOwOVzwVcnNxwoMe29p7ahYdSfI1Ii+e78ZKfmZs4q1KPf3pKBiufEITSSodlJ7vi+c5W+y7mhvH07mK8F6W+VA/DLRrxhXyt/P72QOBgUw+OdoqKiGI/D9VOMhS3z/+/zUrux9qRm947UyzLmQoQqHLPvkk0fAgELIIoCCAL/7eE5WTcMYoBlWCAaFSGfUB2sn0uaXa4O2Fb2+dYj5sP3NDc3j/q7VpRIzpDy1NyMQoOWefYOA1p+eTxSjSSJhMenZOC9IBrV4S7g3jDjf1Y45E+UVFd3DLyW8HpDohoJuZ+0FCF0icgwaxb9/UAc53Qd7fjszajJbgXkJ08IfJhpGTgCxPussbte3FWx5WNz88mHyi2WloHXEl5vUCI5LY/p2dmRMWrxhVszmZuWJYFSdY5b6+EluvDsDSHfnW3geNkoPl/LOddUVXXQ6L/hKaoL9spgMESxIrwKiH11/t8PViKB+xUwzF32k4dY5Z7tcFnKrDDVSsIfbELANa0V3h2nNr3e3k6j/4a/xPrXQ1RoMCTq5PD0jRnotpsykEYnG9xdkf41N7afIkSyrh53PlclPq6JifvnWMi1IEGNBOUaDCsxxleNv//XzyZNXnwnxuIjgFAU5+yBnk3vwXQuEnIS8gImIloGjsDBmt0d209tfExtqnq3BIDmIxk4hGH1BkpPT09O17APr0qFh25KZzRRirDq36jrDIlX8dca3PCORby3uq6OxBAa9UVqREKiJcgR+rlcHbF73gtfZZ6+MU7uYSAsimA7eQC0h/bDFelzA0miaBkYAh7ODRuPfXjS2FJ9T5mxjGZIHBh84fc0Ud/TVfiBJUnMw/9lQIlRF4mfFX4jCK8ekb0pCdj49Em8u8qF7yuptoz68NgEYakRSU5m5lxAaNX0n71dokvPexYA8gI5Yk8X3mWD9o3vwky/DvKTCkMWViS8Zvvge9PQaYaPStaudWP3w6dO0Zztg0cyPN5kZ+QZ7royEX71gywmOVEVyMJJyxAQIG7JnzVheMkIaw7rYp6AMZBCVGpE0ncBMXZqccHE+/9YjEVx2pkkEpgeGIOt+hvR9dE/0MqJ1/ZmGaSLp18rh8SW3F35JX+q4ZsnD5w89Pxovz/SN2hJHrYXFhYqFF7XoksT0Gs/yGJScyL6NQfoQxdBwMUDPFkm9pic6HtfV5q/HCuASUkjGZeSEgfR8Q8U3v6La+MmXzYJi+IZrlnYB8BUYVHc5WqsPlz6/AMLLs0qvv2SvGJZKMOLjOZ55fTZYe2+vzd2u7sXlVWXjQmNnchDckRCSETNu5cX6dCf7stGOROi6GlhsBbm4U6M/8+I91b5lCuqqkZ/rvY+XKREJFkpKflxky//fd4tP5mvjkuL+TZuFWLsIApr20t2fG769G+st6vZABinx+sSF84vWDppfMpEhYyltuGLraWKpjK85cTHHxyt+OZ2kmniYs+Plp9LjUhQQU7GtEui2TV3Z6PLivSAzs5wOFoEF2799AoAb5ixb0srvm9+ueWfz4T35fsBwSchIkHZGRnzUi+/7pmc6x6Yx6ojTof6RYKnq3lvxWu/+NhuqSBRGx0YxFoWIZNSro7PiMv+5fz8xXNTYzJZ6sV1/qnl9Dlgd8XW1m/qj9xeaawkGvuYMQhKikhSUlI0RdGKh35gYJ5cngKRA/qa0IfPiwA5ha11ArxUg8sO97DLS41G61iCS0JEwmSmpS1JnbPi9nG3PDaXVarTiZeWw1LhMX/+amV3xdE9gPCnHMbHZ9fX29cDCCSkkNfhvb4gqej3yyZdY1AriJ14zHwfgzaNSbTfsoZvhEO1e151sa5HS0pKSL6UMVMkRSQ5OTkJxbHin+8xoJuKokA20ilpx8osEjDA5mbg3jDh576qMD81HOmERxIrCREJys7IXihXqxdNvO8PXm1azuqOE3vTmvZ8Wu6yVv2vTKn8ory83Hm2LCZNmqRFXvSTGdmXPHbZuEVauYy6BJ+JEdHSWm1NeHv5xmOWNvNDJ2tP7h/J+TwcbUuKSHJzc+OLo/k/3pXN3DpBD/KBZJEaDvDHSp0mJxbfssA3B7uERw5W1e8bK+OS4hnJuHHj4ni//waGlaUrYxKieLeri/M4PlOpVKXl5eXntekbDIakOFXcM5cVXHHThPRpOpU8jBLkjPCE5AQO9lZvbz/RcPSPPsb3SmlpqWuEuxT05iVFJMS0lR8lv++mdOaXq9NRFI2lNfT5RHKqvG7CHdtaxT80t7tfLW9v/48d69BbGdkaJKSREKCRwWCIRAiNwxirOY472djY2NkPCaC0tLSUvPi8x6cYZt8+IW2KnpJJL2oVTSfxzoot67q5zsfKy8tHfYDGc80FSREJWSS5GRnjc/Xs/z5RgBZNi+7H8qCPnBcBcm9kUwuGt8z4Aycv/HhfVUPTWIRLYkTSJ8LvBJ7ur1zz09NTEmMMT87IufS/p2TM0MgY+YhG2e1vv4fruRZbI2w6tr65padt1SnTqaNj9QBJakQS2HEVZGVdmRMhvvx0EWPIjUAs1UwGt4xKezD+Tblo8mPm5h3l5sODqyX835IokQxaMKmpqWkZ0WnPTM+ed9uUjJlytUIz6LpG64sk4Va7vQXvrNzSUtbwzePm+vr3xtrZ4ZmykSKRkPEzRdmZ186LRT++IZ2ZOS0a5AoaEXtAa9bqBnirDlv3deKfyhMtH+3aBfyAKhhFD1MiGbCwiBvxFVql7n+nZM6KmpQ+LTkxMoUJp8yKAx7RAF9osTWKh2r3mCubStfY/a43LBaLd4BVjKrHpUokMB1AjnMMCydFw+MrU5l5xfEgl9FApv2avHYO4ONG3PW5Ff4i59g/bTYaff16cZQ+RIlkYIIrLi6WNVgsNyARJkdHxFelRKf+cFL6zCk5ifmsglWMeVNXu70F9lRvt5jbjM9zbm5tWX1Z98AQHH1Phy2RkMkYHx+P169ffzrZbPDBJbfcE0T/3Ai58PT1aTD/6hQESoZ6wZ8P6b4UwJ83gvdf9Xh9vRt+WWE21wVfMuFVIyWSgcmjsLAwwufx3I8wrgaZbIsO1JdE6mOfmJg2beGUjFlytVIzJgM9koyLTd0NsOPUpo76TvMv/Ij/l9FotA8MvdH5dNgSydRlufFaxs/v3Vg/3GyO5uTk5DCs8OJtWeiKq1OQguQjoeU/EfAIAFtbMPe6CW9o8cLPqy1jI7rvxWRNieRiCH335/mZmVkcQg8xHLfG2NhILqeiCbkTsgHBTyakTb55mmGOLkGfxMjHUEgVH+8DY0s5f7D263Jzl/k3arX6swu5Sw8M0fB/OmyJpPgOg8rVBlFiWmxnyWslw574JSclJ70gRnhycRL6/rJkFEWiAVNL178ncLsPYEMjdnzchD/udInPnaqvrxirHihnL1tKJAP6kJGkWJeLAHP9PP+C1Wr19L2dlpYWE63Wr0qOSludHT9uRk5iQWz8KCcUjvdDu6MV17RWdJRZv9nc7Wp7tbK2luQYkdT1/rAlktWrgW3nDLo2ucZdvv78F6EGNMUv8vDMnJz0OLV478wY+O8b0iA5XYOAnJtIakachREh0zYfwKeNuGdzM7zT5EV/LjeZGqS0UCiR9H+VEXOxz+2+GQC8tRbLhwDfdcIgIVVc3a4snVo3Py06fXViZOq8nIR8Tbw+CUaNhoIQCAIPHY42kjLXXdtaebTT2fZ+t8+20WQyEQ1Mcnedw5ZIyNQtLjaoyJ+7doXM4wEVFaVF6/zyWzIj8P9ck4qy58YiFKOQJpkQlazZA/BBPe7e0Y5f6bRxL5f2miokVSiR9F/cBampsX5Wfjdg5itTg6nkPBsOVFhYKI9SRiUzArNCrdTcnRWfWzA+ZZIqXpcEDMOE5RkKQgh4gQebpwdMbVX+U9Zj1T2uzjdtLucnglxoMo5xp5MLzYKLEsmmTZsWISSbvHz5kj/3fzoF58npV6doREEZz6SZm0peC2leYzQtK22iWi77ydx4tHxVKsQU6REjpfsmnAhwvCcQ+qShpEt8yY3R6xaLpSc4kh1dtRAiwRitTEyM/92MGTO+Y2Z96qmnZLNmzbmLYXDPsmXL3h9dIwt+b7OysvJZjG5meP9r1VZrYz9aQOPHj89AHL45Xpf4/cLUyfm5CQXyaG0so5ApAAFzRm7GftQ2DI+QOyFevxta7c2Cub3Gb+kw1rT0NH2Bwb/2lNFIcopITgM5G+YLEgk5JNu8efMVALDE4XA8eeONNw6bB9U55f8UMLNLsnN4FN1YsiH00TInZmREqxSwIkfP3nZpLJp7aRxo0zSAxvKdExKAscWD8d52sG1swfuP2fBLCKGdY90P/kLfn40bN65CiJ2kVit/v2DBgu/cl1m3bh2r1+vvFEVRtXz58peG4Ts2qqrMMRi+ByIkenj/601NTf2OcEvc8V3Z2QUsI1+YHJU+P1obmxunS0pJ0CXpo7WxrEapRSTkCoMYIJrBcBVCGuQXidbr8XvA5u4SmnqszuZua12ns+1ES0/9VhHEUsZkqiofQ/lEhornpk2bfsgwjNdut7/ZxxPfkdIXX2wbz7L8Y6IoPrlixYqWoTY4wPfR1JXpyTKkYI98Vkvs8iEvpxNhZcfK4JpsLdw4Ow4VzotDykQVkL3SmDo/6fIDlPQAt7dNNJbZ4IMGD3q/ymyukfKO66mnnmJmz579LABbfujQ/n8988wz39l9YozRli1b5osi3CKTMY8sWbJkzAXk6++iI2vF63Q/zQLaWVNv3j6YeZObm6vkOC5Gq9BmRKujJzIMyouLSJqjVWqzYiLiI+O08RExunhEbssTUmEQCyzDAMOwQKLsEhK4cOnNmEKewlgEQRQC5ipO9IPL6wS7p1u0+2weu9vmdnrsHS32pm+8fs8+u99e4hf9ZqPRSOKOSV4DORPjrVu3anlefIFhYO3SpUt3I9Sbtfw7RPLJJ59EqdVqEhr846VLl+7p76QK1nOGYoMqTitPObqxxhSsOgdRDyo2GJRuBcrXs/j2idHousWJKGN6DCANM7pnFUns5RYATvQAbG7CbSdssMHmE9502NSlVR1VJADjxVbmIOAcPa9s2bIlWRThDxgLv12xYkX1uXr+5ZdfpgiC8GuM8Zrly5eXj57RDaqnzLiUcTGcktNyHNd2pldWTnrOBGD4ewSE1lgsFsugav/3S6i4uJh1VDsUugRdQre/O0HNqKepFKr5MkaWE62Ni49Q6fQahVanVmjkWqUOCLkoZEqQM/Jzai28yAHPC+DjvUC8rdx+V+DvNl+Pu7GzzuPxuV1qhXq/0+8scbgdpXKl3OrwOdrT0tK6d+3aRawxkl4L55Pnpk2bChFCP2ZZ9leLFy/+Nt7ed4iEqO4aTcQDDANep9P5RqjNW8TLg83ozjr8iYnsjEdckGTX5XF4ipPU4kPFCcz8hYmgJecnGtmIm3IHtG4JkCQfi8UJeFMLdu1ox/vaXPBKrMHwxa5du8ZsuJMBgQQAmzZtmg/AXOvzeZ6+9tprz3lGtHPnTpXX6/05xvjEsmXLPurbkQ20rTB+HmVlZWWwgjCTkSkmIoBUxCA1YHAIWNjt8fu3Wq3WnpyMjLsww8SIAC8Mpyk0JSUlTqFQ5EawEcksA4kuzhkliGJMhEqXoFdFpUYoI2SIYTHLsAoGIdYv8qKf8xg8Prc6IztTHpMYo2FlDBMREQE6XSTodLqu9ra20s2bN3Z0dHe9XFdXtzOMZRFWXSMa+ebNm69HCE1WqVS/XbBgwbehYP7DALlly5ZpAHAjz/Nvr1ixojLEC4WZdW1BtFzA/n2fh08e8MzMzGQFwJy8CHR1YSTMmRuL0nN0oIpRIEbLArBMeJm+iFCJPu4TADp9gE0uzJXaUPvBTrG63oU+6RHhc7PZTMyHVG0/vVQ3bNgZx7KeexFCjQ6H450LbaK2bNmySBDwpSqV4u8LFy4ku7IR3/QE6YvD5KTlZMvkcK8hN1s1Y8aswtxxeSlabURMe3u7/+iRQ20nS8t2dHd1foQxvkVkmHVmsznklguy4ew2mTR+rTZCFN2ByHkKhZ7VK5Wow9GpUMo0D2KM037/5+cjU1NSF8hkMqxUKGwYQIkx1giCWPPO22/u2bpxU09aXebju4Bupvoxf9D27dtTvF7/3SyL9i5duvSrM9/5DyLZsGGDhmHkd7IsyHw+3xurVq1y9KOR4D2yGlgoBAzPhN1HjklJGRcTp/ZNipZBcY4ezTJoUH62FuKzI0CTpEIoUg6gYHuhIGHXQ1mIIMm5JC8C2DgAkwug3IZt1U5ssrhgT7uf+dpsw0e1WrZFyq6L55LJunXrFBEREcsBYCoA/H358uUXdHsmJmClUnmXKKIWrVb14Zk7s1DKPNhtZWdnRwIv3pGfn5/y2M9+Nl2lVs9kWZakQJRjjEWHw+744rNPv9m0cbNV4DivwMCT4ebdVwwgqzcYVmOMp7359jtdGq32SZJrBQO0IQAtAGgFQdj38osvlh3cv7fdaLH8dixH6g3WHCGauMvlvYFhcJLP53v9bI39XC4RaNOmTdkIoR8AwJfLli3bFazOjJF6UGJioiY+IiJGz4hZUQq4XMHC7AwtTBqvg7Q8HTBZWgTkgJ6U4UzxS4RHzj2I91WHH6DDC2B0YfF4FzTVuuC4X8DbWrzidlGUWUtMJnIGElpPvFEi8C1btuSKItyNEN6wdOnS/QihC2pqRMXftOmrCQhxt4oiu+6qq5aQOxSjvpCsoiLP//e119/I3/i9G38FAHoAILfVyVQjM9pVXVXx4e9/85sYn8+3ttZi+SAcB52bnp4jMrIHsgyG2l88/dRUnT5yBcY4kVyY9Hi8Rz/7+KMjWzZ9ofBw3Bsmk4nkDaHlIgh88cXW6Qwj3Iix/N3lyxedPNtSdU7fOrJQtm7dulAU4WaO8z25cuXKthCbuEaVYA0Ggypbhae1+GBashqKUzVQnB/BRs6KwWyuDiG9rPeD36c1DNahsdf7pNeOQsjD6MS4wgG4xg5Ciw87e/xwvMYFezgednoBDg6n7XpUCegCnd25c6fM6/X+CADsGOO3li9f3q/oxuQ9l8t7C8OgGSyLnliyZAlxfw2xHhpcKaSlpamVjPzWpOSk5D+ueX6+TCafjxAipqPTzk+4q+TokXUvrlmj8PD8T8NNGzkDDcaQapjEyPA9Wo0m6tLLLmcSEpOivV4vc/jQIcFiMjUwLHqvtq7ua7q5uugcIlygEQT8B1EkFg3V2rPd4kkN5/2m7d+/X22z2f5LFPF4hOBzuVxesmjRIjsllPMD/xQAszk1NbpFUCdGaPjZBg2eJ2OYzDg51iVqUGyyCvQJSqSOVWCZXo5YBYNZrQwQS6xSZ0iCkAUJmsgDYE5Egl8EwStg7OFBbPCCv8mLu4wOaHNy0CqIUG1yoL1uEExahLoq5PIukPCt24sui9MPEFXd5/MVCgJeCQAaAHHNQF3ev/jii2iGYR5BCOkAYD3DMKWjnFBQbnpuNkb8PTl5uVFXX3ON0mDIzlQoFYker0eoqao+9NGH68T21tb9tRbLu2eHROkv9qF6jmhYnNc7Aws4AxCOEjC2yRimQQ5wYmpjY/N6qqFfSBQBAhFFcRIAEFOhQxTFF6666qpzBta94OaYnJfI5fK5GON5GONOQZBtvfrqxcSjipaLILB69Wp23759SkFQR2wqMGcAAAaQSURBVKhUfGysCpLjZCjBKeIYJEJSqpZJ0jE4PlaFdBoGy8+kdEIk5JzDL4LLxaOuHh63tXqQBzC0MCx2iIJotXrkFq1X1poc4eN2WSx+enDe/ylJ3HwxxgsxxlPInRGFgt24aNGitsFoFDt37ozyeDxLAGASxoxRpZJ/uXDhwv7c8u5/h0P7JMpNTU0VWHaBQq7Mi4yK1EbqI7Uut4vp6uxq9vm5Mk7kdlit1q7QdmvQraHc3FwF0UZUKpVoNBpJtALqZHIROLdv357q9XKLERJzAaBUrVZvXbBgwXmjXVzUyoIxZjZs2JApl8sXA6BxoojLMBbKtFpt1YIFC4jdnZb+IdCHNZOYmKiKlslUIkIqjUwmj5CLDMP0XuzpK6KIEaOUcz6X6G9HyOtwOIT29nZir+5bBKPajNI/yIL31MmTJxVmszmTYeSFAJiYbByiyH/OMMzJ/pqzztebV199VZ6enp6HMVqBEIpFCJ9ACJXq9XrT3Llzv42IG7zRhKQmmcFgiGN4RieTiSzXe/GsR61Wd0spZHpIkA6TRogVym63Z2OMJ2GMJhPlASG8saGhoebee++9YFT2ixJJ3xjJHZPIyMjZPM9fjRCbAoAVGMMJANSIkNjvesIEM9oNCSGAMYoCwFMQQmoA1CII3NcqlWrHlVdeaQsmDOvWrVPrdLq5oiguQYhJBwgc2p/AGJrpGgkm0rSuYCKAMYMRgmQAmAyAGYzFBoZhtjocjv033nhjvzZCAyYAYlu224VIhuGyGUbMZUj4TlooAmGMgCAAsCxYOY6rIRfShluTJoQSGxsb4/f78wQBMtnTLuFhDBHtmsQROL1G6jDGRqfT2dlfAumDbcBE0vci8exav349Ex8fP+g6JC47OvwQIdDe3o5Xr14thtpRhK6REAmYNjNkBIa6RigJDFkEtAKKAEWAIiBtBCiRSFv+dPQUAYoARWDICFAiGTKEtAKKAEWAIiBtBCiRSFv+dPQUAYoARWDICFAiGTKEtAKKAEWAIiBtBCiRSFv+dPQUAYoARWDICFAiGTKEtAKKAEWAIiBtBCiRSFv+dPQUAYoARWDICFAiGTKEtAKKAEWAIiBtBCiRSFv+dPQUAYoARWDICFAiGTKEtAKKAEWAIiBtBCiRSFv+dPQUAYoARWDICFAiGTKEtAKKAEWAIiBtBCiRSFv+dPQUAYoARWDICIQHkWBAp1PN0qx/QxYprYAiQBGgCIQWgbAgknVH/xAZKWf5JZMfdYV2+LQ1igBFgCJAERgqAmFBJJ/t/aOOUUUJV8+41z3UAdH3KQIUAYoARSC0CIQFkYR2yLQ1igBFgCJAEQgmApRIgokmrYsiQBGgCEgQAUokEhQ6HTJFgCJAEQgmApRIgokmrYsiQBGgCEgQAUokEhQ6HTJFgCJAEQgmApRIgokmrYsiQBGgCEgQAUokEhQ6HTJFgCJAEQgmApRIgokmrYsiQBGgCEgQAUokEhQ6HTJFgCJAEQgmApRIgokmrYsiQBGgCEgQAUokEhQ6HTJFgCJAEQgmApRIgokmrYsiQBGgCEgQAUokEhQ6HTJFgCJAEQgmApRIgokmrYsiQBGgCEgQAUokEhQ6HTJFgCJAEQgmApRIgokmrYsiQBGgCEgQAUokEhQ6HTJFgCJAEQgmApRIgokmrYsiQBGgCEgQAUokEhQ6HTJFgCJAEQgmApRIgokmrYsiQBGgCEgQAUokEhQ6HTJFgCJAEQgmApRIgokmrYsiQBGgCEgQAUokEhQ6HTJFgCJAEQgmApRIgokmrYsiQBGgCEgQAUokEhQ6HTJFgCJAEQgmApRIgokmrYsiQBGgCEgQAUokEhQ6HTJFgCJAEQgmApRIgokmrYsiQBGgCEgQAUokEhQ6HTJFgCJAEQgmApRIgokmrYsiQBGgCEgQAUokEhQ6HTJFgCJAEQgmApRIgokmrYsiQBGgCEgQAUokEhQ6HTJFgCJAEQgmApRIgokmrYsiQBGgCEgQAUokEhQ6HTJFgCJAEQgmApRIgokmrYsiQBGgCEgQAUokEhQ6HTJFgCJAEQgmApRIgokmrYsiQBGgCEgQAUokEhQ6HTJFgCJAEQgmApRIgokmrYsiQBGgCEgQAUokEhQ6HTJFgCJAEQgmApRIgokmrYsiQBGgCEgQAUokEhQ6HTJFgCJAEQgmApRIgokmrYsiQBGgCEgQAUokEhQ6HTJFgCJAEQgmApRIgokmrYsiQBGgCEgQgf8Hzk7XZ1mLUfsAAAAASUVORK5CYII=;" parent="7" vertex="1">
                    <mxGeometry x="460" y="89.99999999999997" width="202" height="261.29" as="geometry"/>
                </mxCell>
                <mxCell id="16" value="&lt;font style=&quot;font-size: 12px;&quot;&gt;You guessed wrong!!&lt;/font&gt;" style="text;strokeColor=none;align=center;fillColor=none;html=1;verticalAlign=middle;whiteSpace=wrap;rounded=0;fontFamily=Lucida Console;fontSize=18;fontColor=#9999FF;" parent="7" vertex="1">
                    <mxGeometry x="15" y="290" width="75" height="30" as="geometry"/>
                </mxCell>
            </root>
        </mxGraphModel>
    </diagram>
</mxfile>